<svg width="343" height="343" viewBox="0 0 343 343" fill="none" xmlns="http://www.w3.org/2000/svg">
<mask id="mask0"  maskUnits="userSpaceOnUse" x="12" y="16" width="327" height="302">
<rect x="12" y="16" width="327" height="302" fill="black"/>
</mask>
<g mask="url(#mask0)">
<path d="M162.026 38.9741L82.1333 142.771L296.995 89.3574L177.319 35.1385C174.711 33.9552 171.78 33.6902 169.003 34.3868C166.226 35.0833 163.767 36.7004 162.026 38.9741Z" fill="#FCDEB6"/>
<path d="M81 143.509L161.674 38.7138C163.473 36.3574 166.021 34.6837 168.898 33.9682C171.775 33.2527 174.81 33.5382 177.503 34.7775L298.363 89.5252L81 143.509ZM172.064 34.3998C170.188 34.4011 168.337 34.8367 166.656 35.6724C164.976 36.5082 163.512 37.7215 162.379 39.2174L83.2577 142.04L295.652 89.2398L177.142 35.5245C175.546 34.805 173.815 34.4358 172.064 34.4418V34.3998Z" fill="#FAD5A3"/>
<path d="M82.1274 142.774L297.745 89.1746L326.795 206.033C327.37 208.346 327.002 210.794 325.773 212.836C324.544 214.879 322.553 216.35 320.24 216.925L122.069 266.187C119.755 266.763 117.308 266.395 115.265 265.166C113.223 263.936 111.752 261.946 111.177 259.632L82.1274 142.774Z" fill="#FBE2C1" fill-opacity="0.7"/>
<path d="M284.472 95.5765L209.775 171.894L96.8716 146.48L83.9548 86.596C83.2399 83.507 83.7676 80.2608 85.4239 77.5572C87.0803 74.8536 89.7327 72.9092 92.8094 72.1432L256.138 31.5461C257.677 31.162 259.278 31.0853 260.847 31.3205C262.417 31.5557 263.925 32.0981 265.284 32.9166C266.644 33.7352 267.829 34.8139 268.771 36.0909C269.713 37.3679 270.394 38.8182 270.775 40.3588L284.472 95.5765Z" fill="white"/>
<path d="M199.518 165.894L110.812 258.586C111.125 259.847 111.684 261.033 112.456 262.078C113.228 263.122 114.198 264.005 115.311 264.674C116.424 265.344 117.658 265.787 118.942 265.98C120.227 266.172 121.537 266.11 122.797 265.796L319.446 216.906C321.99 216.274 324.178 214.657 325.53 212.411C326.882 210.165 327.287 207.474 326.655 204.929L326.471 204.191L210.479 163.275C208.594 162.609 206.557 162.501 204.612 162.966C202.667 163.431 200.898 164.447 199.518 165.894Z" fill="#FBE2C1"/>
<path d="M171.178 80.9843L107.282 96.8798L108.905 103.404L172.8 87.5082L171.178 80.9843Z" fill="#FBE2C1"/>
<path d="M253.163 78.1524L111.395 113.42L113.229 120.791L254.997 85.5234L253.163 78.1524Z" fill="#FBE2C1"/>
<path d="M257.647 96.1605L115.879 131.428L117.713 138.799L259.481 103.531L257.647 96.1605Z" fill="#FBE2C1"/>
<path d="M260.627 120.026L256.188 124.466L137.174 155.578L121.622 151.944L121.035 150.257L262.348 115.107L262.961 117.55L260.627 120.026Z" fill="#FBE2C1"/>
<path d="M230.186 151.038L176.571 164.366L160.18 160.623L240.308 140.689L230.186 151.038Z" fill="#FBE2C1"/>
<path d="M196.279 169.267C196.279 169.267 196.22 169.36 196.077 169.519L195.439 170.216L192.972 172.86L183.832 182.537C176.093 190.686 165.367 201.95 153.491 214.296C141.615 226.642 130.704 237.721 122.747 245.661C118.769 249.631 115.529 252.837 113.28 255.027L110.687 257.545L109.998 258.191C109.927 258.272 109.845 258.342 109.755 258.401C109.817 258.314 109.887 258.232 109.965 258.158L110.619 257.478L113.137 254.901L122.512 245.442C130.41 237.444 141.262 226.34 153.164 213.985C165.065 201.631 175.825 190.485 183.588 182.318L192.821 172.742L195.339 170.157L196.01 169.494C196.195 169.334 196.279 169.267 196.279 169.267Z" fill="#FAFAFA"/>
<path d="M326.47 204.174C326.429 204.291 301.694 195.705 271.228 184.996C240.761 174.286 216.094 165.507 216.136 165.39C216.178 165.272 240.912 173.85 271.379 184.559C301.845 195.269 326.512 204.048 326.47 204.174Z" fill="#FAFAFA"/>
<path d="M288.022 91.9005C287.976 91.9753 287.922 92.0456 287.863 92.1103L287.393 92.6895L285.403 94.8968L277.992 102.946C271.714 109.719 262.969 119.002 253.166 129.132C243.363 139.262 234.315 148.302 227.752 154.798L219.938 162.452L217.789 164.509L217.227 165.037C217.093 165.155 217.025 165.214 217.017 165.205C217.07 165.133 217.129 165.066 217.193 165.004L217.722 164.441L219.812 162.326L227.517 154.571C234.03 148.016 242.985 138.935 252.788 128.813C262.591 118.691 271.37 109.476 277.715 102.761L285.227 94.8129L287.283 92.6643L287.829 92.1103C287.884 92.0327 287.949 91.9622 288.022 91.9005Z" fill="#FAFAFA"/>
<path d="M196.278 169.267C196.179 169.262 196.08 169.245 195.985 169.217L195.145 169.015L191.788 168.176C188.918 167.454 184.746 166.439 179.585 165.23C169.27 162.788 154.96 159.64 139.147 156.216C123.335 152.792 109.033 149.594 98.7347 147.068C93.5814 145.809 89.4184 144.751 86.5564 143.979L83.258 143.081L82.4187 142.838C82.3195 142.817 82.2236 142.783 82.1333 142.737L82.4271 142.796L83.2664 142.989L86.6236 143.828C89.5024 144.55 93.6737 145.557 98.8354 146.774C109.15 149.216 123.452 152.364 139.273 155.788C155.094 159.212 169.387 162.41 179.685 164.936C184.839 166.195 189.002 167.245 191.864 168.025L195.154 168.923L195.993 169.167L196.278 169.267Z" fill="#FAFAFA"/>
<path d="M284.472 95.5766C284.472 95.5766 284.388 95.2997 284.246 94.7373L283.633 92.3621C283.096 90.2555 282.315 87.1752 281.308 83.2053L272.856 49.5325C272.409 47.7532 271.953 45.9319 271.488 44.0686C271.262 43.1454 271.027 42.197 270.783 41.2486C270.666 40.7702 270.548 40.2918 270.397 39.8302C270.266 39.3589 270.097 38.8986 269.894 38.4537C269.062 36.5708 267.753 34.9372 266.098 33.7142C264.442 32.4911 262.496 31.7208 260.452 31.4791C259.391 31.3323 258.315 31.3323 257.254 31.4791C256.196 31.6638 255.122 31.9575 254.039 32.2177L247.451 33.8963L233.678 37.2955L172.484 52.5708L111.215 67.7789L97.4591 71.1865L94.1018 72.0258C93.0122 72.2522 91.9449 72.5752 90.9125 72.991C88.9214 73.8541 87.2034 75.2441 85.9438 77.0113C85.3343 77.8701 84.8378 78.8038 84.4667 79.7894C84.1206 80.763 83.8923 81.7745 83.7868 82.8024C83.5434 84.8587 84.1142 86.8395 84.517 88.7951C85.3563 92.7118 86.1593 96.4635 86.9258 100.05C89.9893 114.394 92.4652 125.993 94.1774 134.025C95.0167 138.037 95.6797 141.142 96.133 143.257C96.3428 144.307 96.5106 145.112 96.6282 145.666C96.7457 146.22 96.7792 146.505 96.7792 146.505C96.7792 146.505 96.7037 146.229 96.5778 145.666C96.4519 145.104 96.2756 144.315 96.0406 143.274C95.5706 141.151 94.8908 138.045 94.0095 134.042C92.2554 126.018 89.7291 114.419 86.6069 100.1C85.8347 96.5166 85.0122 92.765 84.1645 88.8454C83.7616 86.915 83.1741 84.8671 83.4259 82.7437C83.5224 81.6808 83.7537 80.6345 84.1142 79.6299C84.4976 78.6129 85.008 77.6485 85.6333 76.7595C86.2692 75.8546 87.0292 75.0438 87.891 74.3507C88.754 73.6312 89.7184 73.0429 90.753 72.6049C91.8032 72.1763 92.8905 71.8448 94.0011 71.6145L97.3583 70.7752L111.14 67.3677L172.409 52.1259L233.678 36.9178L247.434 33.5102L254.023 31.882C255.105 31.6134 256.163 31.328 257.271 31.135C258.888 30.8934 260.538 30.9767 262.123 31.3802C263.709 31.7837 265.198 32.4993 266.503 33.485C268.164 34.7424 269.476 36.4037 270.313 38.311C270.524 38.7694 270.698 39.2437 270.834 39.7295C270.985 40.2079 271.102 40.6863 271.22 41.1647C271.455 42.1131 271.681 43.0615 271.916 43.9931C272.378 45.8564 272.823 47.6776 273.268 49.457L281.577 83.1885C282.542 87.1668 283.297 90.2555 283.809 92.3621C284.061 93.4112 284.254 94.2086 284.38 94.7541C284.506 95.2997 284.472 95.5766 284.472 95.5766Z" fill="#FAD5A3"/>
<path d="M166.442 55.9164L156.097 63.7928L156.599 78.8344L147.132 71.3136L141.902 75.7905L122.028 51.2512L166.442 55.9164Z" fill="#005FAA"/>
<path d="M152.206 66.9937C152.206 67.4539 156.599 78.8344 156.599 78.8344L147.133 71.3137L152.206 66.9937Z" fill="#005FAA"/>
<g opacity="0.3">
<path opacity="0.3" d="M152.206 66.9937C152.206 67.4539 156.599 78.8344 156.599 78.8344L147.133 71.3137L152.206 66.9937Z" fill="black"/>
</g>
<path d="M122.028 51.2512L152.206 66.9936L156.599 78.8344L156.097 63.7928L122.028 51.2512Z" fill="#005FAA"/>
<path opacity="0.1" d="M122.028 51.2512L152.206 66.9936L156.599 78.8344L156.097 63.7928L122.028 51.2512Z" fill="black"/>
<path d="M205.709 254.197C203.849 254.136 202.022 253.691 200.343 252.89C202.202 252.951 204.029 253.397 205.709 254.197Z" fill="#263238"/>
<path d="M214.265 256.289C214.265 256.446 213.48 256.394 212.602 256.185C211.723 255.975 211.033 255.662 211.064 255.505C211.095 255.348 211.849 255.4 212.738 255.62C213.627 255.839 214.307 256.132 214.265 256.289Z" fill="#263238"/>
<path d="M178.952 76.868C178.025 76.8816 177.101 76.7365 176.222 76.4392C175.301 76.326 174.408 76.046 173.586 75.6128C174.519 75.4903 175.467 75.5833 176.358 75.8848C177.29 75.9989 178.18 76.3362 178.952 76.868Z" fill="#263238"/>
<path d="M189.077 81.2088C187.322 80.633 185.662 79.8012 184.15 78.7402C185.084 78.829 185.984 79.1372 186.776 79.6398C188.146 80.3302 189.161 81.0728 189.077 81.2088Z" fill="#263238"/>
<path d="M197.853 87.8615C197.738 87.9766 196.807 87.1921 195.635 86.2088C194.464 85.2256 193.543 84.3888 193.679 84.2528C194.571 84.568 195.377 85.0874 196.033 85.7695C197.173 86.7737 197.968 87.7569 197.853 87.8615Z" fill="#263238"/>
<path d="M204.548 96.5956C204.401 96.6689 203.711 95.6542 202.874 94.399C202.288 93.6797 201.828 92.8662 201.514 91.9932C201.629 91.8991 202.508 92.7986 203.355 94.0852C203.946 94.816 204.354 95.6763 204.548 96.5956Z" fill="#263238"/>
<path d="M208.345 106.92C207.896 106.108 207.585 105.228 207.424 104.315C207.075 103.453 206.88 102.536 206.849 101.606C207.414 102.359 207.797 103.232 207.968 104.158C208.32 105.033 208.449 105.982 208.345 106.92Z" fill="#263238"/>
<path d="M208.909 117.903C208.723 116.994 208.684 116.062 208.794 115.141C208.715 114.217 208.8 113.285 209.045 112.39C209.365 113.273 209.476 114.219 209.37 115.152C209.435 116.092 209.278 117.035 208.909 117.903Z" fill="#263238"/>
<path d="M206.054 128.509C206.166 127.591 206.428 126.697 206.828 125.863C207.041 124.966 207.394 124.108 207.874 123.321C207.925 124.263 207.734 125.203 207.319 126.051C207.106 126.962 206.672 127.806 206.054 128.509Z" fill="#263238"/>
<path d="M199.663 137.442C199.558 137.317 200.374 136.396 201.368 135.267C202.362 134.137 203.157 133.175 203.293 133.29C202.996 134.185 202.482 134.994 201.797 135.643C200.782 136.815 199.767 137.557 199.663 137.442Z" fill="#263238"/>
<path d="M190.437 143.383C191.144 142.786 191.942 142.305 192.801 141.961C193.574 141.448 194.425 141.067 195.322 140.831C194.714 141.555 193.938 142.119 193.062 142.473C192.276 142.989 191.374 143.301 190.437 143.383Z" fill="#263238"/>
<path d="M179.705 145.695C180.58 145.373 181.503 145.2 182.435 145.183C183.34 144.975 184.273 144.915 185.197 145.005C184.376 145.47 183.452 145.725 182.508 145.747C181.585 145.969 180.62 145.951 179.705 145.695Z" fill="#263238"/>
<path d="M168.931 143.656C170.72 144.028 172.47 144.564 174.161 145.256C173.224 145.373 172.272 145.243 171.4 144.879C170.484 144.695 169.632 144.273 168.931 143.656Z" fill="#263238"/>
<path d="M161.295 136.082C161.452 136.03 161.933 137.128 162.791 138.363C163.649 139.597 164.475 140.455 164.36 140.612C164.245 140.768 163.22 139.984 162.321 138.697C161.688 137.97 161.326 137.046 161.295 136.082Z" fill="#263238"/>
<path d="M165.94 127.515C165.94 127.683 164.799 128.049 163.607 128.896C162.415 129.743 161.777 130.8 161.63 130.716C161.484 130.633 161.944 129.377 163.272 128.436C164.012 127.801 164.966 127.472 165.94 127.515Z" fill="#263238"/>
<path d="M175.396 131.438C175.249 131.522 174.58 130.497 173.492 129.492C172.404 128.488 171.295 127.986 171.4 127.829C172.372 127.906 173.277 128.351 173.931 129.074C174.683 129.665 175.201 130.502 175.396 131.438Z" fill="#263238"/>
<path d="M175.751 142.118C175.829 141.206 176.001 140.306 176.264 139.43C176.342 138.515 176.514 137.611 176.777 136.731C177.057 137.644 177.057 138.621 176.777 139.534C176.705 140.479 176.347 141.38 175.751 142.118Z" fill="#263238"/>
<path d="M168.586 150.329C168.492 150.193 169.444 149.408 170.584 148.436C171.724 147.463 172.676 146.626 172.749 146.731C172.822 146.835 172.142 147.86 170.96 148.823C169.778 149.785 168.67 150.465 168.586 150.329Z" fill="#263238"/>
<path d="M158.806 155.412C159.498 154.786 160.309 154.306 161.191 154C161.995 153.526 162.889 153.223 163.816 153.111C162.324 154.219 160.618 155.002 158.806 155.412Z" fill="#263238"/>
<path d="M148.963 160.412C148.879 160.276 149.873 159.534 151.191 158.739C151.96 158.202 152.839 157.845 153.764 157.693C153.848 157.85 152.781 158.488 151.473 159.241C150.726 159.801 149.872 160.2 148.963 160.412Z" fill="#263238"/>
<path d="M140.595 167.609C140.48 167.504 141.202 166.479 142.3 165.402C142.906 164.684 143.668 164.116 144.528 163.739C144.633 163.864 143.785 164.785 142.708 165.831C141.631 166.877 140.762 167.714 140.595 167.609Z" fill="#263238"/>
<path d="M134.319 176.625C134.495 175.702 134.881 174.832 135.449 174.084C136.254 172.776 137.081 171.835 137.206 171.929C136.935 172.817 136.506 173.65 135.941 174.387C135.146 175.674 134.466 176.699 134.319 176.625Z" fill="#263238"/>
<path d="M130.302 186.876C130.249 185.939 130.421 185.003 130.805 184.146C131.001 183.226 131.414 182.366 132.007 181.636C131.701 183.454 131.127 185.216 130.302 186.866V186.876Z" fill="#263238"/>
<path d="M128.859 197.797C128.48 195.963 128.61 194.06 129.236 192.295C129.395 193.208 129.395 194.143 129.236 195.056C129.272 195.985 129.144 196.912 128.859 197.797Z" fill="#263238"/>
<path d="M130.302 208.707C129.833 207.898 129.537 207 129.434 206.071C129.127 205.181 129.048 204.227 129.204 203.299C129.609 204.136 129.878 205.033 129.999 205.956C130.289 206.842 130.392 207.779 130.302 208.707Z" fill="#263238"/>
<path d="M134.559 218.853C134.423 218.936 133.681 217.932 133.001 216.552C132.496 215.757 132.191 214.853 132.112 213.916C132.714 214.623 133.189 215.43 133.513 216.301C134.009 217.083 134.363 217.947 134.559 218.853Z" fill="#263238"/>
<path d="M141.171 227.671C141.066 227.775 140.125 226.98 139.079 225.809C138.405 225.152 137.89 224.351 137.572 223.466C137.708 223.361 138.535 224.282 139.518 225.432C140.501 226.583 141.286 227.556 141.171 227.671Z" fill="#263238"/>
<path d="M149.664 234.679C148.755 234.435 147.916 233.98 147.216 233.35C145.982 232.451 145.124 231.551 145.208 231.426C146.071 231.773 146.868 232.269 147.561 232.89C148.775 233.779 149.747 234.543 149.664 234.679Z" fill="#263238"/>
<path d="M159.601 239.428C158.66 239.422 157.734 239.188 156.902 238.748C155.995 238.494 155.165 238.02 154.486 237.367C155.402 237.502 156.289 237.789 157.111 238.214C158 238.484 158.841 238.894 159.601 239.428Z" fill="#263238"/>
<path d="M165.134 240.84C165.134 240.986 165.04 241.112 164.988 241.101C164.936 241.091 164.915 240.955 164.988 240.798C165.061 240.641 165.082 240.526 165.134 240.537C165.187 240.547 165.166 240.683 165.134 240.84Z" fill="#263238"/>
<path d="M157.136 213.447L145.698 209.691L143.361 216.806L154.8 220.563L157.136 213.447Z" fill="#005FAA"/>
<path d="M157.112 213.466C154.973 214.538 152.756 215.447 150.48 216.185L150.281 216.259L150.156 216.091L149.957 215.84C148.37 213.911 146.939 211.857 145.679 209.7C147.403 211.509 148.987 213.446 150.417 215.495L150.605 215.746L150.281 215.652C152.495 214.741 154.78 214.01 157.112 213.466Z" fill="#005FAA"/>
<path opacity="0.1" d="M157.112 213.466C154.973 214.538 152.756 215.447 150.48 216.185L150.281 216.259L150.156 216.091L149.957 215.84C148.37 213.911 146.939 211.857 145.679 209.7C147.403 211.509 148.987 213.446 150.417 215.495L150.605 215.746L150.281 215.652C152.495 214.741 154.78 214.01 157.112 213.466Z" fill="black"/>
<path d="M148.963 214.062C148.176 214.77 147.264 215.327 146.275 215.704C145.364 216.244 144.366 216.623 143.325 216.823C144.12 216.119 145.034 215.563 146.024 215.181C146.933 214.644 147.927 214.265 148.963 214.062Z" fill="#005FAA"/>
<path opacity="0.1" d="M148.963 214.062C148.176 214.77 147.264 215.327 146.275 215.704C145.364 216.244 144.366 216.623 143.325 216.823C144.12 216.119 145.034 215.563 146.024 215.181C146.933 214.644 147.927 214.265 148.963 214.062Z" fill="black"/>
<path d="M154.978 220.641C154.337 219.852 153.842 218.956 153.513 217.995C152.823 216.436 152.363 215.097 152.572 215.118C153.214 215.908 153.713 216.804 154.047 217.765C154.534 218.657 154.85 219.633 154.978 220.641Z" fill="#005FAA"/>
<path opacity="0.1" d="M154.978 220.641C154.337 219.852 153.842 218.956 153.513 217.995C152.823 216.436 152.363 215.097 152.572 215.118C153.214 215.908 153.713 216.804 154.047 217.765C154.534 218.657 154.85 219.633 154.978 220.641Z" fill="black"/>
<path d="M203.78 241.321L174.364 231.661L168.353 249.966L197.769 259.627L203.78 241.321Z" fill="#005FAA"/>
<path d="M203.753 241.342C203.334 241.583 202.893 241.782 202.435 241.938L198.774 243.371C195.636 244.553 191.358 246.164 186.536 247.932L186.337 248.005L186.212 247.838L185.72 247.189C182.519 243.005 179.632 239.103 177.572 236.29L175.113 232.953C174.8 232.553 174.523 232.126 174.287 231.677C174.671 232.023 175.021 232.405 175.333 232.817L177.896 236.049C180.04 238.79 182.969 242.608 186.18 246.844L186.672 247.482L186.348 247.388C191.159 245.63 195.5 244.082 198.638 242.995L202.362 241.729C202.813 241.557 203.278 241.427 203.753 241.342Z" fill="#005FAA"/>
<g opacity="0.4">
<path opacity="0.2" d="M203.753 241.342C203.334 241.583 202.893 241.782 202.435 241.938L198.774 243.371C195.636 244.553 191.358 246.164 186.536 247.932L186.337 248.005L186.212 247.838L185.72 247.189C182.519 243.005 179.632 239.103 177.572 236.29L175.113 232.953C174.8 232.553 174.523 232.126 174.287 231.677C174.671 232.023 175.021 232.405 175.333 232.817L177.896 236.049C180.04 238.79 182.969 242.608 186.18 246.844L186.672 247.482L186.348 247.388C191.159 245.63 195.5 244.082 198.638 242.995L202.362 241.729C202.813 241.557 203.278 241.427 203.753 241.342Z" fill="black"/>
</g>
<path d="M182.833 242.9C180.546 244.33 178.162 245.598 175.699 246.697C173.319 247.96 170.855 249.057 168.325 249.982C170.603 248.54 172.984 247.268 175.448 246.174C177.826 244.904 180.294 243.81 182.833 242.9Z" fill="#005FAA"/>
<g opacity="0.4">
<path opacity="0.2" d="M182.833 242.9C180.546 244.33 178.162 245.598 175.699 246.697C173.319 247.96 170.855 249.057 168.325 249.982C170.603 248.54 172.984 247.268 175.448 246.174C177.826 244.904 180.294 243.81 182.833 242.9Z" fill="black"/>
</g>
<path d="M198.272 259.814C196.985 257.57 195.862 255.235 194.914 252.827C193.796 250.49 192.853 248.075 192.09 245.599C193.378 247.847 194.501 250.186 195.448 252.597C196.566 254.93 197.51 257.342 198.272 259.814Z" fill="#005FAA"/>
<g opacity="0.4">
<path opacity="0.2" d="M198.272 259.814C196.985 257.57 195.862 255.235 194.914 252.827C193.796 250.49 192.853 248.075 192.09 245.599C193.378 247.847 194.501 250.186 195.448 252.597C196.566 254.93 197.51 257.342 198.272 259.814Z" fill="black"/>
</g>
<path d="M175.95 236.185C175.218 236.722 174.343 237.03 173.436 237.07C172.529 237.11 171.63 236.88 170.854 236.41C170.077 235.939 169.457 235.249 169.073 234.426C168.689 233.604 168.557 232.685 168.694 231.788C168.832 230.89 169.232 230.054 169.845 229.384C170.458 228.714 171.256 228.24 172.137 228.024C173.019 227.807 173.945 227.856 174.799 228.166C175.653 228.475 176.395 229.031 176.933 229.763C177.291 230.249 177.549 230.801 177.693 231.387C177.837 231.973 177.864 232.581 177.773 233.178C177.681 233.774 177.473 234.347 177.161 234.863C176.848 235.379 176.436 235.828 175.95 236.185Z" fill="#22CDB1"/>
<path d="M176.159 231.635C175.187 232.357 174.155 232.994 173.073 233.539L172.341 233.947L172.205 234.02L172.132 233.894C171.637 233.109 171.216 232.279 170.876 231.415C171.459 232.14 171.967 232.921 172.393 233.748L172.194 233.685L172.927 233.267C173.954 232.63 175.036 232.084 176.159 231.635Z" fill="white"/>
<path d="M184.885 216.656L169.471 211.595L166.322 221.185L181.736 226.246L184.885 216.656Z" fill="#005FAA"/>
<g opacity="0.2">
<path opacity="0.2" d="M184.885 216.656L169.471 211.595L166.322 221.185L181.736 226.246L184.885 216.656Z" fill="black"/>
</g>
<path d="M184.851 216.667C184.637 216.795 184.409 216.901 184.171 216.98L182.247 217.734C180.625 218.351 178.366 219.198 175.835 220.118H175.73L175.667 220.024L175.416 219.69C173.732 217.472 172.278 215.453 171.138 213.978L169.883 212.273C169.721 212.063 169.577 211.839 169.454 211.604C169.648 211.785 169.823 211.984 169.977 212.2L171.326 213.895C172.446 215.328 173.983 217.326 175.657 219.543L175.918 219.888H175.751C178.272 218.968 180.542 218.152 182.194 217.587L184.14 216.928C184.367 216.815 184.605 216.727 184.851 216.667Z" fill="#005FAA"/>
<g opacity="0.2">
<path opacity="0.2" d="M184.851 216.667C184.637 216.795 184.409 216.901 184.171 216.98L182.247 217.734C180.625 218.351 178.366 219.198 175.835 220.118H175.73L175.667 220.024L175.416 219.69C173.732 217.472 172.278 215.453 171.138 213.978L169.883 212.273C169.721 212.063 169.577 211.839 169.454 211.604C169.648 211.785 169.823 211.984 169.977 212.2L171.326 213.895C172.446 215.328 173.983 217.326 175.657 219.543L175.918 219.888H175.751C178.272 218.968 180.542 218.152 182.194 217.587L184.14 216.928C184.367 216.815 184.605 216.727 184.851 216.667Z" fill="#01ABFF"/>
</g>
<path d="M173.9 217.482C172.701 218.228 171.453 218.892 170.166 219.47C168.916 220.132 167.623 220.709 166.295 221.196C167.489 220.439 168.738 219.771 170.03 219.198C171.277 218.534 172.57 217.96 173.9 217.482Z" fill="#005FAA"/>
<g opacity="0.2">
<path opacity="0.2" d="M173.9 217.482C172.701 218.228 171.453 218.892 170.166 219.47C168.916 220.132 167.623 220.709 166.295 221.196C167.489 220.439 168.738 219.771 170.03 219.198C171.277 218.534 172.57 217.96 173.9 217.482Z" fill="#01ABFF"/>
</g>
<path d="M181.985 226.342C181.31 225.167 180.723 223.943 180.228 222.681C179.647 221.455 179.15 220.189 178.743 218.895C180.012 221.291 181.096 223.781 181.985 226.342Z" fill="#005FAA"/>
<g opacity="0.2">
<path opacity="0.2" d="M181.985 226.342C181.31 225.167 180.723 223.943 180.228 222.681C179.647 221.455 179.15 220.189 178.743 218.895C180.012 221.291 181.096 223.781 181.985 226.342Z" fill="#01ABFF"/>
</g>
<path d="M103.009 81.2189C101.945 85.4054 99.6638 89.1824 96.4536 92.0724C93.2434 94.9625 89.2484 96.8357 84.9736 97.4553C80.6988 98.0749 76.3363 97.4131 72.4377 95.5535C68.539 93.6938 65.2794 90.7199 63.0708 87.0078C60.8623 83.2957 59.804 79.012 60.0299 74.6985C60.2558 70.385 61.7556 66.2353 64.3398 62.7741C66.924 59.313 70.4764 56.6958 74.548 55.2535C78.6195 53.8112 83.0273 53.6086 87.214 54.6713C92.8278 56.0991 97.6449 59.6975 100.607 64.6756C103.568 69.6537 104.432 75.6041 103.009 81.2189Z" fill="#22CDB1"/>
<path d="M89.9022 64.0018C90.2893 64.1587 87.8102 71.4702 84.3584 80.3404C83.8459 81.627 83.3124 82.8612 82.8835 84.0746L82.622 84.7336L81.9631 84.4826C74.8816 81.7525 69.7039 79.5036 69.8294 79.1793C69.9549 78.855 75.3314 80.5496 82.4651 83.1332L81.5447 83.5516C82.0049 82.3382 82.4861 81.0935 82.9777 79.8069C86.419 70.9263 89.5257 63.8867 89.9022 64.0018Z" fill="white"/>
<path d="M161.882 281.425H205.678L223.021 232.974H220.594L203.398 279.061L161.882 279.301V281.425Z" fill="#455A64"/>
<path d="M101.255 281.425H287.476V289.103H101.255V281.425Z" fill="#263238"/>
<path d="M65.3981 174.167C65.0843 169.732 63.9232 165.412 63.3061 161.019C62.6889 156.626 62.5634 152.003 64.2998 147.913C65.3626 145.633 66.8651 143.585 68.7211 141.887C70.5771 140.189 72.7501 138.874 75.1155 138.017C79.8663 136.332 84.9392 135.752 89.9478 136.323C90.8533 136.35 91.7448 136.553 92.5733 136.919C92.9824 137.109 93.3352 137.401 93.5974 137.768C93.8596 138.134 94.0221 138.563 94.0691 139.011C94.0793 139.234 94.0434 139.456 93.9638 139.664C93.8843 139.872 93.7626 140.062 93.6066 140.221C93.4505 140.38 93.2634 140.505 93.0568 140.588C92.8502 140.672 92.6287 140.712 92.406 140.706C94.3165 140.901 96.2001 141.304 98.023 141.909C98.7638 142.118 99.4078 142.581 99.8431 143.216C100.02 143.614 100.089 144.051 100.045 144.484C100.001 144.917 99.8451 145.331 99.592 145.685C99.072 146.385 98.4308 146.988 97.6988 147.463C97.9227 147.419 98.1531 147.419 98.3768 147.464C98.6006 147.509 98.8132 147.598 99.0027 147.725C99.1921 147.852 99.3546 148.016 99.4809 148.206C99.6071 148.396 99.6947 148.609 99.7385 148.833C99.8054 149.29 99.7758 149.756 99.6515 150.201C99.5272 150.646 99.3109 151.061 99.0167 151.417C98.4833 152.17 97.7929 152.787 97.2385 153.509C94.9791 156.511 95.4185 160.684 95.9624 164.408" fill="#263238"/>
<path d="M65.8059 200.15L86.9457 199.774C87.2282 197.326 87.6361 187.807 87.6361 187.807C87.6361 187.807 96.4748 186.992 97.1234 178.247C97.7719 169.502 97.4999 149.314 97.4999 149.314C92.6575 146.87 87.2504 145.762 81.8368 146.106C76.4233 146.45 71.1997 148.233 66.7055 151.271L65.3457 152.191L65.8059 200.15Z" fill="#B78876"/>
<path d="M94.571 164.481C94.3933 164.303 94.2724 164.075 94.2237 163.828C94.175 163.581 94.2007 163.324 94.2975 163.092C94.3943 162.859 94.5579 162.66 94.7676 162.52C94.9773 162.38 95.2237 162.305 95.4758 162.305C95.7279 162.305 95.9744 162.38 96.1841 162.52C96.3938 162.66 96.5574 162.859 96.6542 163.092C96.7509 163.324 96.7766 163.581 96.7279 163.828C96.6793 164.075 96.5584 164.303 96.3806 164.481C96.2628 164.602 96.122 164.698 95.9666 164.763C95.8113 164.828 95.6444 164.862 95.4758 164.862C95.3073 164.862 95.1404 164.828 94.985 164.763C94.8297 164.698 94.6889 164.602 94.571 164.481Z" fill="#263238"/>
<path d="M96.7989 162.358C96.6524 162.505 95.8365 161.793 94.6336 161.71C93.4307 161.626 92.5416 162.201 92.3847 162.034C92.2278 161.866 92.4789 161.699 92.8763 161.427C93.4165 161.094 94.0482 160.94 94.6812 160.987C95.3143 161.033 95.9163 161.279 96.4014 161.689C96.757 162.013 96.8721 162.295 96.7989 162.358Z" fill="#263238"/>
<path d="M82.8448 162.557C83.0524 162.702 83.2121 162.905 83.3039 163.141C83.3956 163.377 83.4151 163.634 83.36 163.881C83.3048 164.128 83.1775 164.353 82.9941 164.528C82.8108 164.702 82.5798 164.818 82.3303 164.861C82.0809 164.904 81.8244 164.872 81.5934 164.768C81.3624 164.665 81.1673 164.495 81.033 164.281C80.8987 164.066 80.8311 163.817 80.839 163.564C80.8468 163.311 80.9297 163.066 81.0771 162.86C81.173 162.724 81.2949 162.608 81.4358 162.519C81.5766 162.43 81.7337 162.37 81.898 162.341C82.0622 162.313 82.2304 162.318 82.3929 162.355C82.5554 162.392 82.709 162.46 82.8448 162.557Z" fill="#263238"/>
<path d="M83.6404 162.619C83.4939 162.755 82.678 162.044 81.4751 161.96C80.2722 161.877 79.3831 162.452 79.2367 162.295C79.0902 162.138 79.3204 161.95 79.7283 161.689C80.2648 161.35 80.896 161.192 81.5288 161.239C82.1616 161.286 82.7625 161.535 83.2429 161.95C83.5985 162.264 83.7136 162.557 83.6404 162.619Z" fill="#263238"/>
<path d="M87.866 172.86C88.5 172.651 89.1651 172.552 89.8325 172.567C90.1568 172.567 90.4078 172.494 90.4392 172.326C90.4661 172.01 90.4083 171.693 90.2719 171.406C90.0104 170.59 89.7384 169.764 89.4664 168.896C88.3681 165.329 87.615 162.389 87.8033 162.337C87.9916 162.285 89.0167 165.13 90.1254 168.697C90.3869 169.565 90.6275 170.402 90.8785 171.218C91.0503 171.64 91.0797 172.106 90.9622 172.546C90.9098 172.664 90.8304 172.768 90.7305 172.85C90.6306 172.932 90.5129 172.989 90.3869 173.017C90.2096 173.036 90.0308 173.036 89.8535 173.017C89.1869 173.077 88.5148 173.024 87.866 172.86Z" fill="#263238"/>
<path d="M83.8599 173.948C82.657 173.121 87.2071 176.04 89.6652 176.04C89.2152 176.643 88.5735 177.075 87.8454 177.265C87.1174 177.455 86.3464 177.392 85.659 177.086C83.0649 175.987 83.8599 173.948 83.8599 173.948Z" fill="white"/>
<path d="M87.6673 187.682C83.6203 187.513 79.7159 186.14 76.4541 183.738C76.4541 183.738 78.7658 190.203 87.5418 189.952L87.6673 187.682Z" fill="#A36957"/>
<path d="M65.0633 158.781L65.5131 170.13C65.5131 170.13 69.4983 168.917 69.7598 168.801C70.0213 168.686 69.6866 154.9 69.6866 154.9C69.6866 154.9 69.1322 149.67 72.5213 148.467C76.0882 147.18 77.6363 149.764 82.6885 150.559C99.3514 153.373 98.2112 148.258 98.2112 148.258C98.2112 148.258 100.303 146.009 96.0251 143.54C91.7469 141.072 81.0463 140.235 75.1886 142.254C63.6826 146.218 62.9922 150.162 62.9922 153.645C62.9922 158.613 65.0633 158.781 65.0633 158.781Z" fill="#263238"/>
<path d="M67.0192 159.952C66.8309 159.879 60.5339 159.063 61.1301 166.5C61.7264 173.937 69.0379 170.883 69.0379 170.684C69.0379 170.485 67.0192 159.952 67.0192 159.952Z" fill="#B78876"/>
<path d="M66.5481 168.195C66.5481 168.195 66.4226 168.299 66.2134 168.414C65.9134 168.57 65.5648 168.604 65.2406 168.509C64.7332 168.248 64.3064 167.854 64.006 167.37C63.7056 166.885 63.543 166.328 63.5356 165.758C63.4632 165.119 63.5347 164.472 63.7448 163.864C63.8006 163.631 63.9113 163.414 64.0678 163.232C64.2242 163.05 64.4219 162.908 64.6443 162.818C64.7903 162.768 64.9492 162.77 65.0941 162.823C65.2389 162.876 65.3609 162.978 65.4393 163.111C65.5544 163.31 65.5125 163.467 65.5544 163.477C65.5962 163.488 65.7008 163.331 65.6171 163.038C65.5657 162.854 65.4508 162.695 65.2929 162.588C65.0724 162.458 64.8119 162.413 64.5607 162.463C64.2598 162.546 63.9853 162.705 63.7636 162.925C63.542 163.144 63.3806 163.418 63.295 163.718C63.0314 164.382 62.9344 165.1 63.0126 165.81C63.1799 167.306 64.0586 168.644 65.1046 168.875C65.3093 168.916 65.5208 168.911 65.7235 168.861C65.9262 168.81 66.115 168.715 66.2761 168.582C66.5481 168.425 66.569 168.247 66.5481 168.195Z" fill="#A36957"/>
<path d="M150.093 260.243C150.093 260.243 160.553 259.741 162.645 260.693C166.265 262.272 177.038 279.165 176.494 279.165C174.863 279.165 171.505 279.165 171.505 279.165L154.769 272.816L150.825 273.81L150.093 260.243Z" fill="#B78876"/>
<path d="M74.6969 333.715C46.0573 332.732 49.3208 295.473 49.0593 301.215L90.2615 292.324C90.2615 292.324 167.802 293.067 180.27 295.4C200.197 299.113 196.536 328.234 196.536 328.234L161.85 334.269C161.85 334.269 103.337 334.698 74.6969 333.715Z" fill="#263238"/>
<path d="M99.0371 256.164C99.0371 256.164 95.5329 218.623 89.3092 202.19L90.5435 201.259L88.6921 194.784L65.4079 191.96L65.7636 197.012C62.3275 198.56 59.5203 201.23 57.8035 204.585C49.4354 222.304 53.6195 242.994 49.1321 281.331C49.1321 281.331 43.9021 299.311 49.2995 304.939L100.104 293.098L97.7086 281.508C119.884 281.09 156.348 277.011 156.348 277.011L155.302 256.028C155.302 256.028 100.815 256.352 99.0371 256.164Z" fill="#01ABFF"/>
<path d="M88.6505 194.753C89.3892 196.069 89.9552 197.476 90.3346 198.937C90.5621 199.508 90.7167 200.105 90.7949 200.715C90.8101 201.031 90.7055 201.341 90.502 201.583C90.3341 201.781 90.1179 201.933 89.8744 202.023C88.9957 202.295 88.4937 202.106 88.4937 202.023C88.4937 201.939 89.0376 201.928 89.6966 201.615C89.8731 201.536 90.0221 201.406 90.1245 201.242C90.227 201.078 90.2783 200.887 90.2719 200.694C90.1531 200.142 89.9922 199.6 89.7907 199.073C89.232 197.686 88.849 196.235 88.6505 194.753Z" fill="#E0E0E0"/>
<path d="M94.4771 260.839C95.4237 258.514 97.146 256.589 99.3514 255.39C98.5838 256.338 97.7557 257.236 96.8724 258.078C96.1322 259.047 95.3322 259.97 94.4771 260.839Z" fill="#263238"/>
<path d="M97.4786 261.091C97.2597 260.04 97.3397 258.949 97.7095 257.941C98.0792 256.933 98.724 256.05 99.5706 255.39C99.6961 255.505 98.8175 256.572 98.2526 258.141C97.6878 259.71 97.7087 261.091 97.4786 261.091Z" fill="#263238"/>
<path d="M151.055 276.896C150.469 273.577 150.071 270.228 149.862 266.865C149.465 263.514 149.255 260.144 149.235 256.771C149.834 260.091 150.236 263.444 150.438 266.812C150.835 270.159 151.042 273.526 151.055 276.896Z" fill="#263238"/>
<path d="M151.714 260.724C151.714 260.798 151.421 261.007 151.38 261.53C151.37 261.668 151.389 261.807 151.434 261.938C151.479 262.069 151.549 262.19 151.641 262.293C151.759 262.399 151.906 262.466 152.063 262.487C152.219 262.507 152.379 262.48 152.52 262.408C152.667 262.352 152.796 262.253 152.888 262.125C152.981 261.997 153.035 261.845 153.043 261.687C153.029 261.548 152.987 261.414 152.921 261.292C152.854 261.17 152.764 261.062 152.656 260.975C152.248 260.651 151.861 260.756 151.84 260.672C151.819 260.588 152.227 260.295 152.886 260.672C153.079 260.775 153.243 260.925 153.363 261.108C153.484 261.29 153.557 261.5 153.576 261.718C153.591 261.989 153.52 262.259 153.374 262.488C153.227 262.717 153.013 262.894 152.76 262.994C152.512 263.111 152.234 263.148 151.964 263.099C151.694 263.051 151.446 262.919 151.254 262.722C151.117 262.557 151.022 262.362 150.977 262.153C150.931 261.943 150.937 261.726 150.993 261.519C151.181 260.756 151.725 260.651 151.714 260.724Z" fill="#263238"/>
<path d="M98.9748 256.059H99.2363L99.9999 256.122C100.68 256.195 101.684 256.258 103.002 256.3C105.638 256.404 109.508 256.457 114.435 256.415C124.278 256.352 138.346 255.986 155.229 255.369H155.47V255.609C155.804 262.126 156.16 269.207 156.516 276.718V276.958H156.296C153.618 277.46 150.909 277.67 148.137 277.952L139.685 278.684C133.943 279.155 128.033 279.594 122.018 280.023L99.9058 281.508C93.4937 281.101 87.27 278.799 82.9186 274.573C80.7796 272.535 79.0999 270.064 77.9919 267.325C76.952 264.739 76.1229 262.073 75.5129 259.354C72.9293 248.894 71.3289 239.365 70.0214 231.457C69.3938 227.503 68.8603 223.936 68.4105 220.819C67.934 218.167 67.6231 215.487 67.4796 212.796C67.3942 211.088 67.7547 209.386 68.5256 207.859C68.7899 207.338 69.1439 206.867 69.5716 206.468C69.2051 206.919 68.8796 207.402 68.5988 207.912C67.8853 209.436 67.5686 211.117 67.6783 212.796C67.8673 215.475 68.2166 218.14 68.7243 220.777C69.2159 223.915 69.7703 227.451 70.4188 231.405C71.7368 239.292 73.4104 248.758 76.015 259.229C76.6323 261.922 77.4612 264.563 78.494 267.126C79.5831 269.797 81.2307 272.204 83.3266 274.186C87.5106 278.297 93.6716 280.546 99.9685 280.954L122.071 279.448L139.727 278.119L148.179 277.398C150.93 277.115 153.691 276.906 156.254 276.425L156.045 276.707C155.689 269.228 155.355 262.116 154.999 255.588L155.26 255.829C138.388 256.446 124.32 256.739 114.466 256.718C109.539 256.718 105.669 256.624 103.033 256.467C101.715 256.394 100.701 256.31 100.021 256.206L99.2572 256.111C99.1611 256.107 99.0661 256.09 98.9748 256.059Z" fill="#263238"/>
<path d="M98.9747 256.059C98.744 255.529 98.562 254.98 98.4307 254.417C98.1274 253.371 97.709 251.802 97.2069 249.877C96.1609 246.038 94.958 240.693 93.6191 234.794C92.2802 228.894 91.0564 223.549 90.1359 219.69L89.0899 215.118C88.9265 214.566 88.8179 213.998 88.7656 213.424C88.9903 213.956 89.1722 214.505 89.3096 215.066C89.6338 216.112 90.0522 217.671 90.5648 219.595C91.6108 223.424 92.8869 228.758 94.2258 234.668C95.5647 240.578 96.663 245.819 97.6044 249.783C98.0228 251.645 98.3784 253.183 98.6504 254.365C98.8007 254.921 98.9091 255.487 98.9747 256.059Z" fill="#263238"/>
<path d="M88.7239 195.192C88.7332 195.579 88.6946 195.965 88.6089 196.343C88.5043 197.085 88.3369 198.142 88.1068 199.481C88.0066 200.211 87.8599 200.934 87.6674 201.646C87.6036 201.882 87.4851 202.1 87.3215 202.281C87.158 202.463 86.954 202.604 86.726 202.692C86.2667 202.813 85.7838 202.813 85.3244 202.692C83.5985 202.336 81.7157 201.876 79.7492 201.343C75.8267 200.297 72.333 199.136 69.7912 198.351L66.7892 197.41C66.4249 197.318 66.0735 197.181 65.7432 197.002C66.1299 197.013 66.5134 197.076 66.8833 197.19C67.6155 197.357 68.6615 197.608 69.9481 197.964C72.5213 198.644 76.0359 199.711 79.9479 200.788C81.904 201.322 83.7658 201.834 85.4813 202.179C85.8491 202.299 86.2413 202.325 86.6214 202.253C86.7774 202.196 86.9176 202.102 87.0303 201.981C87.1431 201.859 87.2253 201.712 87.27 201.552C87.5001 200.882 87.5942 200.108 87.7511 199.46C88.0231 198.163 88.2637 197.117 88.431 196.385C88.4705 195.975 88.5692 195.573 88.7239 195.192Z" fill="#263238"/>
<path d="M339 318.044C339 318.201 263.111 318.326 169.5 318.326C75.889 318.326 0 318.211 0 318.044C0 317.876 75.8806 317.751 169.5 317.751C263.119 317.751 339 317.897 339 318.044Z" fill="#263238"/>
</g>
</svg>
