<svg width="343" height="343" viewBox="0 0 343 343" fill="none" xmlns="http://www.w3.org/2000/svg">
<path d="M223.911 135.548C223.499 129.073 220.774 122.895 216.956 117.66C215.036 115.018 212.773 112.451 212.085 109.259C211.177 105.007 213.192 100.129 210.867 96.4485C209.236 93.8547 205.92 92.7815 204.063 90.3459C202.061 87.7315 202.109 84.1195 200.925 81.0511C199.742 77.9826 195.752 75.3407 193.309 77.556C192.841 71.7699 193.777 68.5226 188.844 65.4747C183.911 62.4269 174.183 63.8992 172.291 69.3826C168.094 65.8738 160.423 62.5026 155.6 65.0757C152.628 66.6719 150.351 69.2863 147.585 71.2264C143.299 74.2261 138.063 75.4714 133.267 77.5835C128.472 79.6957 123.732 83.1976 122.617 88.3163C121.799 92.0935 123.119 96.0632 122.425 99.861C121.833 103.06 119.879 105.805 118.379 108.688C117.12 111.104 116.159 113.664 115.517 116.311C114.265 121.471 114.96 128.124 119.776 130.36C118.039 130.856 116.532 131.947 115.519 133.442C114.506 134.938 114.051 136.742 114.235 138.539C114.419 140.336 115.229 142.011 116.524 143.27C117.819 144.53 119.516 145.293 121.317 145.427L113.205 160.13C112.455 161.506 111.678 162.992 111.933 164.526C112.29 166.666 114.609 168.014 116.749 168.035C118.888 168.056 120.952 167.085 122.892 166.136C123.576 167.412 124.602 168.474 125.854 169.201C127.106 169.928 128.536 170.293 129.983 170.254C131.431 170.216 132.839 169.775 134.051 168.982C135.263 168.19 136.23 167.075 136.845 165.765C137.664 167.274 138.873 168.536 140.346 169.418C141.819 170.301 143.502 170.771 145.219 170.78C146.936 170.789 148.624 170.337 150.107 169.47C151.589 168.604 152.812 167.355 153.646 165.854L186.587 158.286L211.424 155.995C215.029 155.658 219.047 155.101 221.256 152.238C222.687 150.374 223.017 147.911 223.32 145.579C223.821 142.26 224.019 138.902 223.911 135.548Z" fill="#263238"/>
<path d="M166.394 226.68L150.488 184.478L158.744 176.222L158.42 173.566C157.519 166.927 157.189 164.203 157.189 164.265C157.189 164.327 142.879 163.666 137.719 145.73C135.152 136.786 133.769 121.829 133.033 109.541C132.345 98.4781 137.987 84.0851 149.064 83.9269L184.282 88.3507C185.906 88.3214 187.481 88.9026 188.696 89.9791C189.912 91.0557 190.679 92.5493 190.846 94.1643L196.948 168.2L201.62 172.197L207.248 223.474L166.394 226.68Z" fill="#B47266"/>
<path d="M141.131 123.81C141.206 124.418 141.513 124.974 141.99 125.359C142.466 125.744 143.074 125.929 143.684 125.874C143.985 125.862 144.281 125.79 144.554 125.661C144.827 125.533 145.071 125.351 145.272 125.126C145.474 124.902 145.628 124.639 145.726 124.354C145.824 124.069 145.865 123.767 145.844 123.466C145.768 122.859 145.46 122.305 144.984 121.92C144.508 121.535 143.901 121.349 143.292 121.402C142.991 121.415 142.695 121.488 142.423 121.617C142.15 121.746 141.906 121.928 141.705 122.152C141.504 122.376 141.35 122.639 141.251 122.923C141.152 123.208 141.112 123.51 141.131 123.81Z" fill="#263238"/>
<path d="M164.592 121.815C164.666 122.423 164.974 122.978 165.451 123.364C165.927 123.749 166.534 123.934 167.145 123.879C167.446 123.866 167.742 123.793 168.014 123.663C168.287 123.534 168.531 123.352 168.731 123.126C168.932 122.901 169.086 122.638 169.183 122.353C169.28 122.067 169.319 121.765 169.298 121.464C169.227 120.856 168.921 120.3 168.445 119.914C167.97 119.528 167.362 119.344 166.752 119.4C166.45 119.412 166.154 119.485 165.881 119.614C165.607 119.743 165.363 119.925 165.161 120.15C164.96 120.376 164.806 120.639 164.708 120.925C164.61 121.211 164.571 121.514 164.592 121.815Z" fill="#263238"/>
<path d="M137.251 118.114C137.581 118.382 139.191 116.848 141.723 116.545C144.255 116.242 146.25 117.274 146.491 116.93C146.608 116.779 146.243 116.242 145.363 115.774C144.176 115.151 142.825 114.911 141.496 115.086C140.182 115.241 138.953 115.813 137.987 116.717C137.285 117.412 137.093 117.976 137.251 118.114Z" fill="#263238"/>
<path d="M162.342 116.05C162.673 116.318 164.289 114.784 166.814 114.481C169.339 114.178 171.341 115.21 171.582 114.866C171.699 114.715 171.335 114.178 170.454 113.71C169.267 113.087 167.916 112.847 166.587 113.022C165.275 113.181 164.046 113.752 163.079 114.653C162.377 115.348 162.184 115.912 162.342 116.05Z" fill="#263238"/>
<path d="M155.304 134.151C155.304 134.006 153.701 133.924 151.114 133.917C150.426 133.917 149.834 133.876 149.669 133.449C149.536 132.788 149.606 132.102 149.869 131.481L151.169 126.342C152.958 119.022 154.162 113.043 153.866 112.967C153.57 112.892 151.885 118.774 150.096 126.094C149.676 127.897 149.27 129.61 148.878 131.254C148.727 132.018 148.41 132.899 148.878 133.828C149 134.043 149.169 134.228 149.373 134.369C149.577 134.509 149.81 134.602 150.055 134.639C150.425 134.687 150.799 134.687 151.169 134.639C153.694 134.488 155.304 134.295 155.304 134.151Z" fill="#263238"/>
<path d="M157.21 164.244C165.843 163.313 174.048 160.005 180.912 154.688C180.912 154.688 176.323 168.2 157.795 168.744L157.21 164.244Z" fill="#89544C"/>
<path d="M156.157 140.639C157.533 139.077 161.338 136.593 162.59 136.284C163.842 135.974 163.767 137.508 164.654 138.595C165.104 139.189 165.382 139.895 165.459 140.637C165.535 141.378 165.407 142.126 165.088 142.799C164.31 144.333 162.673 145.661 161.18 145.496C159.687 145.331 158.283 143.838 157.052 142.978C156.681 142.765 156.366 142.468 156.13 142.111C156.009 141.912 155.941 141.686 155.931 141.454C155.922 141.222 155.971 140.991 156.075 140.783" fill="white"/>
<path d="M159.645 106.748C159.976 107.401 162.459 106.748 165.466 106.748C168.472 106.748 170.97 107.257 171.279 106.59C171.424 106.273 170.929 105.681 169.903 105.138C168.521 104.464 166.997 104.132 165.459 104.168C163.92 104.173 162.404 104.543 161.035 105.248C159.976 105.826 159.494 106.431 159.645 106.748Z" fill="#263238"/>
<path d="M136.9 109.266C137.416 109.782 139.081 108.977 141.173 108.688C143.264 108.399 145.081 108.599 145.411 107.952C145.555 107.635 145.204 107.092 144.365 106.645C143.242 106.119 141.988 105.939 140.762 106.129C139.537 106.319 138.396 106.87 137.485 107.711C136.838 108.392 136.673 109.032 136.9 109.266Z" fill="#263238"/>
<path d="M188.844 117.033C189.078 116.882 198.593 112.438 199.852 122.654C201.111 132.871 190.557 132.004 190.502 131.736C190.447 131.468 188.844 117.033 188.844 117.033Z" fill="#B47266"/>
<path d="M193.144 127.47C193.185 127.429 193.337 127.574 193.653 127.67C194.098 127.802 194.577 127.755 194.988 127.539C196.02 127.009 196.722 125.186 196.543 123.342C196.466 122.462 196.191 121.611 195.738 120.852C195.604 120.545 195.398 120.274 195.137 120.065C194.875 119.855 194.567 119.712 194.238 119.648C194.026 119.62 193.811 119.667 193.629 119.78C193.447 119.893 193.31 120.065 193.24 120.267C193.144 120.57 193.24 120.762 193.179 120.79C193.117 120.817 192.938 120.645 192.972 120.212C192.994 119.951 193.108 119.707 193.295 119.524C193.42 119.401 193.569 119.304 193.732 119.239C193.895 119.174 194.069 119.142 194.245 119.146C194.679 119.175 195.098 119.318 195.46 119.559C195.822 119.801 196.115 120.132 196.309 120.522C196.851 121.346 197.182 122.291 197.272 123.274C197.458 125.338 196.639 127.402 195.208 128C194.943 128.114 194.655 128.166 194.367 128.152C194.079 128.139 193.797 128.061 193.543 127.925C193.206 127.711 193.144 127.491 193.144 127.47Z" fill="#89544C"/>
<path d="M197.905 130.401C197.905 130.443 198.187 130.491 198.627 130.738C199.24 131.1 199.721 131.647 200.003 132.3C200.223 132.765 200.316 133.28 200.273 133.792C200.229 134.305 200.051 134.796 199.756 135.217C199.395 135.732 198.901 136.138 198.326 136.391C197.751 136.645 197.118 136.736 196.494 136.655C195.929 136.545 195.397 136.304 194.941 135.952C194.485 135.6 194.117 135.147 193.868 134.628C193.618 134.108 193.492 133.538 193.502 132.962C193.511 132.386 193.655 131.82 193.921 131.309C194.248 130.669 194.719 130.113 195.297 129.686C195.538 129.552 195.768 129.4 195.985 129.232C195.712 129.275 195.451 129.379 195.222 129.534C194.57 129.93 194.034 130.49 193.667 131.158C193.379 131.656 193.203 132.211 193.152 132.783C193.101 133.356 193.176 133.933 193.371 134.474C193.61 135.145 194.02 135.742 194.561 136.205C195.101 136.668 195.754 136.982 196.453 137.116C197.162 137.212 197.884 137.107 198.537 136.814C199.19 136.521 199.748 136.051 200.148 135.458C200.502 134.941 200.696 134.331 200.705 133.704C200.704 133.166 200.577 132.636 200.334 132.156C200 131.459 199.433 130.902 198.73 130.58C198.479 130.441 198.192 130.379 197.905 130.401Z" fill="#455A64"/>
<path d="M197.685 148.867C197.732 148.858 197.781 148.858 197.829 148.867L198.228 148.909C198.753 148.943 199.281 148.931 199.804 148.874C201.786 148.639 203.654 147.825 205.177 146.535C207.475 144.489 209.085 141.783 209.787 138.788C210.282 136.982 210.513 135.115 210.475 133.243C210.445 131.18 209.898 129.158 208.885 127.36L208.844 127.292L208.878 127.216C209.597 125.661 209.995 123.977 210.05 122.265C210.105 120.552 209.815 118.846 209.198 117.248C208.58 115.65 207.648 114.193 206.456 112.962C205.264 111.731 203.837 110.753 202.26 110.085L201.992 109.968L202.219 109.775C202.68 109.401 203.056 108.932 203.319 108.399C203.942 107.057 204.024 105.527 203.546 104.127C203.067 102.756 202.321 101.493 201.352 100.411C200.462 99.3181 199.377 98.3991 198.153 97.7007C196.994 96.9981 195.616 96.7527 194.286 97.0127L193.887 97.109L194.1 96.7581C194.758 95.6955 195.082 94.4607 195.033 93.2121C194.983 91.9636 194.562 90.7584 193.822 89.7512C193.083 88.744 192.059 87.9809 190.883 87.5597C189.706 87.1385 188.431 87.0786 187.22 87.3875L186.986 87.4495L187.055 87.2155C187.417 85.9442 187.469 84.6045 187.205 83.309C186.942 82.0136 186.371 80.8004 185.541 79.7714C185.176 79.3438 184.758 78.9646 184.296 78.6431C183.871 78.3527 183.408 78.1213 182.92 77.9551C182.052 77.6556 181.13 77.5453 180.216 77.6317C179.481 77.6981 178.762 77.8888 178.09 78.1959C177.604 78.428 177.153 78.7267 176.749 79.0834C176.428 79.3973 176.131 79.7354 175.861 80.0948C175.913 79.9939 175.973 79.8973 176.04 79.8058C176.225 79.5207 176.445 79.2596 176.694 79.0284C177.103 78.6471 177.567 78.3294 178.07 78.0858C178.748 77.7625 179.476 77.5577 180.223 77.4804C181.162 77.3737 182.114 77.4747 183.01 77.7762C183.521 77.938 184.007 78.1695 184.454 78.4642C184.934 78.7942 185.371 79.1824 185.755 79.62C186.618 80.675 187.214 81.922 187.495 83.2558C187.775 84.5897 187.73 85.9713 187.365 87.2844L187.193 87.1124C188.46 86.7937 189.794 86.8599 191.024 87.3026C192.254 87.7453 193.324 88.5444 194.098 89.5979C194.871 90.6514 195.313 91.9115 195.368 93.2174C195.422 94.5234 195.086 95.8159 194.403 96.9301L194.217 96.6755C195.631 96.3885 197.101 96.6335 198.345 97.3635C199.609 98.0823 200.729 99.0294 201.648 100.157C202.648 101.272 203.418 102.574 203.911 103.989C204.422 105.477 204.334 107.106 203.663 108.53C203.383 109.114 202.976 109.628 202.473 110.037L202.432 109.734C204.054 110.417 205.521 111.421 206.746 112.685C207.97 113.949 208.927 115.447 209.559 117.09C210.19 118.733 210.484 120.486 210.421 122.245C210.359 124.004 209.942 125.732 209.195 127.326V127.181C210.235 129.023 210.789 131.1 210.805 133.215C210.836 135.115 210.588 137.009 210.069 138.836C209.343 141.878 207.683 144.616 205.321 146.666C203.759 147.965 201.841 148.763 199.817 148.957C199.289 149.008 198.757 149.008 198.228 148.957L197.822 148.888L197.685 148.867Z" fill="#455A64"/>
<path d="M194.279 112.094C194.011 105.165 193.715 98.0929 191.231 91.6188C190.755 90.1185 189.905 88.7642 188.761 87.6834C187.739 86.9187 186.567 86.3773 185.321 86.0941C183.402 85.5506 182.879 84.2503 180.891 84.1058C173.323 77.673 162.459 75.4714 152.868 78.0583C143.278 80.6452 135.111 87.8348 130.969 96.8682C126.893 106.062 126.596 116.491 130.144 125.902C129.504 118.54 134.169 111.64 139.886 106.954C145.603 102.269 152.442 99.1592 158.462 94.9143C158.408 95.9388 158.135 96.9397 157.66 97.849C157.185 98.7584 156.52 99.5549 155.71 100.184C160.485 98.9047 165.342 97.5975 169.642 95.217C170.611 94.6888 171.546 94.1006 172.442 93.4557C172.538 94.5798 172.849 95.6751 173.357 96.6825C174.974 99.8541 178.441 101.547 181.083 103.934C181.427 104.204 181.703 104.55 181.888 104.945C182.054 105.599 182.008 106.287 181.758 106.913C181.082 108.972 180.847 111.149 181.07 113.305C181.393 115.437 182.59 117.536 184.51 118.465C183.794 119.59 183.448 120.912 183.519 122.244C183.591 123.576 184.077 124.852 184.909 125.895C185.132 126.213 185.461 126.442 185.837 126.542C186.463 126.631 186.986 126.088 187.344 125.565C188.4 124.042 189.124 122.315 189.47 120.494C189.522 119.718 189.758 118.966 190.158 118.299C190.846 117.426 192.126 117.247 192.972 116.511C194.307 115.472 194.341 113.669 194.279 112.094Z" fill="#263238"/>
<path d="M140.471 96.0839C140.502 95.9083 140.548 95.7357 140.608 95.5679C140.786 95.0851 141.017 94.6236 141.296 94.1919C142.301 92.5776 143.883 91.4065 145.72 90.917L145.617 91.0408C145.724 90.0461 145.929 89.0643 146.229 88.1099C146.58 87.0419 147.041 86.0135 147.605 85.0415C148.915 82.8569 150.748 81.0318 152.937 79.7301C153.917 79.1337 154.972 78.671 156.075 78.3541C156.62 78.2137 157.186 78.1718 157.746 78.2303C158.313 78.2893 158.836 78.5595 159.212 78.9871H158.944C160.183 77.3872 161.774 76.0947 163.594 75.21C165.218 74.405 166.911 74.0679 168.225 74.46C168.738 74.6004 169.211 74.8607 169.605 75.2195C169.998 75.5783 170.301 76.0254 170.488 76.524C170.581 76.7892 170.625 77.0688 170.619 77.3496C170.623 77.4454 170.609 77.541 170.578 77.6317C170.576 77.2671 170.509 76.9057 170.378 76.5653C170.178 76.104 169.875 75.6948 169.492 75.3691C169.11 75.0434 168.657 74.8101 168.17 74.6871C166.917 74.3431 165.301 74.6871 163.725 75.492C161.959 76.3758 160.416 77.6484 159.212 79.2141L159.081 79.3792L158.95 79.221C158.331 78.478 157.168 78.4573 156.157 78.7119C155.09 79.017 154.068 79.4612 153.116 80.0328C150.98 81.3092 149.187 83.0875 147.894 85.2135C147.332 86.1601 146.871 87.1632 146.518 88.2063C146.213 89.1375 145.999 90.0959 145.878 91.0683V91.144H145.789C144.001 91.5985 142.445 92.699 141.42 94.2332C141.051 94.8214 140.733 95.4406 140.471 96.0839Z" fill="#455A64"/>
<path d="M128.052 157.625L127.88 157.887L127.33 158.664L127.289 158.719V158.651C126.556 156.431 126.187 154.108 126.195 151.771C126.194 147.621 127.321 143.55 129.456 139.992L129.518 140.185C128.171 139.548 127.03 138.545 126.225 137.291C125.421 136.037 124.986 134.581 124.97 133.091C124.95 132.281 125.071 131.473 125.328 130.704C125.472 130.339 125.582 129.961 125.658 129.576C125.682 129.394 125.666 129.209 125.613 129.033C125.56 128.858 125.469 128.696 125.349 128.557C125.074 128.258 124.778 127.979 124.461 127.725C124.141 127.442 123.838 127.141 123.553 126.824C122.975 126.175 122.468 125.467 122.039 124.712C120.901 122.682 120.394 120.36 120.583 118.041C120.772 115.723 121.648 113.513 123.099 111.695C123.398 111.314 123.722 110.953 124.069 110.614C124.413 110.284 124.757 109.961 124.757 109.555C124.685 109.099 124.558 108.653 124.378 108.227C124.216 107.762 124.085 107.286 123.986 106.803C123.775 105.829 123.674 104.834 123.684 103.838C123.679 101.735 124.132 99.6559 125.011 97.7455C125.89 95.8352 127.175 94.1389 128.775 92.7746C129.545 92.121 130.412 91.605 130.791 90.7106C130.975 90.2667 131.116 89.8058 131.21 89.3346C131.334 88.8598 131.492 88.392 131.63 87.9242C132.27 86.1224 133.248 84.4597 134.513 83.0256C136.846 80.3429 139.983 78.4849 143.457 77.728C145.021 77.4164 146.623 77.3376 148.211 77.4941C148.564 77.5243 148.918 77.4577 149.236 77.3015C149.525 77.1007 149.793 76.8701 150.034 76.6135L150.832 75.8635L151.665 75.1755C152.731 74.3731 153.885 73.6946 155.105 73.1528C156.197 72.6806 157.333 72.3165 158.496 72.0658C160.356 71.6521 162.272 71.5475 164.166 71.7562C165.366 71.8971 166.547 72.1693 167.688 72.568L168.555 72.912L168.851 73.0427L168.541 72.9464L167.667 72.6368C166.526 72.2923 165.353 72.0618 164.166 71.9488C162.287 71.7684 160.391 71.8915 158.551 72.3135C157.407 72.5739 156.29 72.9425 155.215 73.4142C154.015 73.9582 152.879 74.6343 151.83 75.4301L151.018 76.1181L150.234 76.8611C149.98 77.1439 149.693 77.3956 149.38 77.6111C149.022 77.796 148.619 77.877 148.218 77.845C147.826 77.845 147.447 77.7899 147.062 77.7899C146.677 77.7658 146.291 77.7658 145.906 77.7899C145.108 77.8306 144.315 77.9318 143.532 78.0927C140.134 78.854 137.07 80.6841 134.788 83.3146C133.552 84.725 132.599 86.3601 131.981 88.1306C131.85 88.5847 131.692 89.0387 131.575 89.5066C131.473 89.9964 131.326 90.4755 131.135 90.9376C130.701 91.9283 129.759 92.4787 129.022 93.1117C127.466 94.4448 126.217 96.0996 125.362 97.962C124.507 99.8244 124.066 101.85 124.069 103.9C124.06 104.871 124.159 105.84 124.365 106.789C124.463 107.256 124.592 107.715 124.75 108.165C124.947 108.629 125.079 109.117 125.142 109.617C125.098 109.877 125.003 110.126 124.863 110.349C124.722 110.572 124.539 110.765 124.323 110.917C123.99 111.247 123.675 111.597 123.381 111.963C121.707 114.068 120.831 116.697 120.91 119.385C120.988 122.074 122.014 124.647 123.807 126.652C124.081 126.962 124.373 127.256 124.681 127.532C125.013 127.796 125.322 128.089 125.603 128.406C125.751 128.578 125.861 128.778 125.927 128.995C125.992 129.212 126.011 129.44 125.982 129.665C125.905 130.073 125.787 130.471 125.631 130.855C125.386 131.589 125.268 132.359 125.28 133.133C125.287 134.572 125.698 135.98 126.467 137.196C127.236 138.413 128.331 139.389 129.628 140.013L129.766 140.075L129.69 140.205C128.509 142.125 127.627 144.212 127.075 146.397C126.036 150.461 126.129 154.732 127.344 158.747H127.282L127.853 157.99C127.911 157.864 127.978 157.742 128.052 157.625Z" fill="#455A64"/>
<path d="M189.388 66.7407C188.308 66.603 187.222 66.5272 186.134 66.5136C184.966 66.5329 183.817 66.8101 182.769 67.3255C181.488 67.9481 180.5 69.0467 180.017 70.3871C179.941 70.6297 179.886 70.8783 179.852 71.1301V71.2952H179.694C178.355 71.2431 177.022 71.4924 175.793 72.0245C174.804 72.464 173.952 73.1601 173.323 74.0404C172.9 74.63 172.6 75.2994 172.442 76.0081C172.339 76.5103 172.332 76.7992 172.305 76.7992C172.277 76.7992 172.305 76.7305 172.305 76.5929C172.299 76.3904 172.31 76.1878 172.339 75.9874C172.453 75.2475 172.73 74.5423 173.151 73.9234C173.781 72.9832 174.657 72.2336 175.683 71.7562C176.953 71.1777 178.341 70.9044 179.735 70.9581L179.549 71.1164C179.583 70.843 179.643 70.5735 179.728 70.3114C180.228 68.8915 181.266 67.725 182.618 67.064C183.716 66.5433 184.918 66.2798 186.134 66.2935C186.94 66.2959 187.744 66.3789 188.535 66.5412C188.826 66.5724 189.113 66.6394 189.388 66.7407Z" fill="#455A64"/>
<path d="M160.959 219.428L212.147 217.674L216.894 287.575L172.105 288.201L160.959 219.428Z" fill="#FBE2C1"/>
<path d="M200.794 167.512C201.482 166.638 239.66 192.535 241.386 195.631C243.113 198.727 252.312 288.208 252.312 288.208H202.439C202.439 288.208 197.857 214.509 198.098 207.712C198.338 200.914 200.794 167.512 200.794 167.512Z" fill="#01ABFF"/>
<path d="M85.6783 288.6C85.6783 288.6 80.0505 277.021 80.6765 271.4C81.3026 265.779 85.6783 254.503 85.6783 254.503L96.9409 234.482C96.9409 234.482 99.1975 217.798 100.443 214.668C101.688 211.537 108.286 190.374 116.088 185.4C123.89 180.426 147.612 177.013 147.612 177.013L158.118 169.211C158.118 169.211 168.569 200.068 170.13 208.517C171.692 216.966 180.45 288.6 180.45 288.6H85.6783Z" fill="#01ABFF"/>
<path d="M173.501 234.778C173.456 234.733 173.416 234.682 173.384 234.626L173.061 234.179L171.864 232.418L167.516 225.923C165.686 223.171 163.519 219.889 161.104 216.291L157.333 210.581C156.04 208.606 154.636 206.453 154.162 203.921C153.911 202.4 153.997 200.843 154.416 199.36C154.802 197.952 155.285 196.573 155.861 195.232L156.074 195.459L149.194 197.853L149.002 197.915V197.708C148.541 191.716 148.156 186.666 147.88 183.081C147.757 181.32 147.66 179.924 147.591 178.953C147.591 178.493 147.543 178.135 147.529 177.86C147.519 177.734 147.519 177.607 147.529 177.481C147.558 177.603 147.577 177.728 147.584 177.853C147.584 178.128 147.653 178.486 147.701 178.947C147.791 179.93 147.915 181.327 148.08 183.075C148.383 186.652 148.816 191.702 149.325 197.695L149.112 197.557L155.992 195.135L156.35 195.011L156.212 195.369C155.643 196.694 155.167 198.058 154.788 199.449C154.382 200.883 154.298 202.389 154.54 203.859C154.994 206.308 156.37 208.414 157.65 210.388C158.93 212.363 160.209 214.282 161.406 216.112L167.757 225.813L172.008 232.377L173.151 234.172L173.44 234.64C173.474 234.716 173.508 234.771 173.501 234.778Z" fill="#263238"/>
<path d="M137.519 287.093C137.485 287.026 137.462 286.954 137.451 286.88L137.285 286.247C137.148 285.662 136.955 284.871 136.701 283.798C136.212 281.651 135.51 278.576 134.637 274.785C132.958 267.141 130.646 256.622 128.087 245.002L121.592 215.197C120.753 211.4 120.079 208.317 119.604 206.171C119.379 205.12 119.2 204.302 119.067 203.715C119.012 203.446 118.971 203.233 118.936 203.075C118.925 202.999 118.925 202.923 118.936 202.848C118.936 202.848 118.936 202.923 118.998 203.061C119.06 203.199 119.102 203.433 119.164 203.694C119.308 204.279 119.514 205.07 119.769 206.136C120.278 208.262 121 211.338 121.833 215.142C123.567 222.752 125.892 233.285 128.424 244.926C130.956 256.567 133.24 267.086 134.871 274.73C135.682 278.535 136.35 281.61 136.811 283.77C137.031 284.823 137.21 285.642 137.334 286.226C137.382 286.495 137.423 286.708 137.457 286.873C137.492 287.038 137.519 287.093 137.519 287.093Z" fill="#263238"/>
<g opacity="0.3">
<path opacity="0.3" d="M132.992 287.575C138.051 284.576 143.735 282.786 149.6 282.346C154.107 282.016 158.758 282.477 163.058 281.08C167.874 279.518 171.665 275.831 175.263 272.253C176.322 271.352 177.155 270.213 177.691 268.93C178.125 267.616 177.76 265.93 176.529 265.297C175.579 264.809 174.43 265.063 173.398 265.352C158.22 269.549 144.149 277.03 132.18 287.265" fill="black"/>
</g>
<path d="M119.659 261.768C119.659 261.768 119.384 261.383 118.909 260.674C118.232 259.685 117.49 258.743 116.687 257.853C114.055 254.884 110.752 252.586 107.053 251.151C103.355 249.715 99.3665 249.182 95.4206 249.597C94.2275 249.714 93.0437 249.912 91.8774 250.189C91.4519 250.313 91.0201 250.414 90.584 250.492C90.6841 250.431 90.7933 250.387 90.9073 250.361C91.1206 250.285 91.4302 250.168 91.843 250.058C93.0051 249.73 94.1926 249.5 95.3931 249.37C99.3825 248.881 103.431 249.385 107.179 250.836C110.927 252.287 114.259 254.64 116.879 257.688C117.673 258.601 118.39 259.577 119.026 260.605C119.26 260.97 119.404 261.293 119.514 261.458C119.624 261.624 119.673 261.768 119.659 261.768Z" fill="#263238"/>
<path d="M125.135 259.05C125.135 259.05 125.066 258.947 124.97 258.734L124.578 257.798C124.413 257.392 124.213 256.897 123.931 256.34C123.649 255.782 123.381 255.129 122.982 254.448L122.39 253.368C122.184 252.996 121.936 252.624 121.702 252.232C121.234 251.434 120.643 250.643 120.051 249.797C117.367 246.18 114.058 243.072 110.281 240.619C109.401 240.068 108.575 239.532 107.756 239.119C107.35 238.899 106.965 238.672 106.58 238.486L105.465 237.963C104.777 237.612 104.089 237.372 103.518 237.138C103.029 236.925 102.528 236.739 102.018 236.58L101.062 236.243C100.948 236.211 100.839 236.163 100.739 236.099C100.856 236.111 100.971 236.136 101.083 236.174L102.06 236.443C102.577 236.584 103.087 236.751 103.587 236.945C104.172 237.172 104.853 237.392 105.569 237.736L106.697 238.238C107.089 238.417 107.481 238.644 107.894 238.851C108.733 239.264 109.566 239.8 110.46 240.337C112.364 241.571 114.157 242.969 115.82 244.513C117.463 246.076 118.966 247.779 120.312 249.604C120.911 250.464 121.489 251.269 121.957 252.074C122.191 252.473 122.438 252.852 122.645 253.23L123.223 254.331C123.608 255.019 123.869 255.707 124.124 256.257C124.351 256.743 124.55 257.242 124.722 257.75L125.053 258.706C125.092 258.818 125.12 258.933 125.135 259.05Z" fill="#263238"/>
<path d="M229.161 225.854C229.17 225.904 229.17 225.956 229.161 226.006L229.065 226.467C228.969 226.893 228.838 227.471 228.666 228.207C228.315 229.714 227.799 231.902 227.214 234.613C225.628 241.658 224.723 248.839 224.51 256.058C224.406 260.027 224.69 263.997 225.357 267.912C225.89 271.111 226.745 274.248 227.909 277.276C228.695 279.314 229.636 281.29 230.723 283.185C231.101 283.873 231.445 284.362 231.645 284.713L231.886 285.112C231.914 285.157 231.937 285.206 231.954 285.256C231.954 285.256 231.913 285.222 231.851 285.132L231.583 284.754C231.363 284.41 230.998 283.929 230.606 283.254C229.465 281.377 228.484 279.407 227.675 277.365C226.463 274.331 225.571 271.179 225.013 267.96C224.315 264.03 224.011 260.041 224.104 256.051C224.313 248.81 225.256 241.608 226.918 234.558C227.531 231.847 228.088 229.673 228.48 228.173C228.68 227.444 228.838 226.873 228.948 226.446C229.003 226.267 229.044 226.123 229.079 225.999L229.161 225.854Z" fill="#263238"/>
<path d="M224.338 255.012C224.321 254.838 224.321 254.663 224.338 254.489C224.375 254.117 224.416 253.622 224.462 253.003C224.531 252.363 224.586 251.572 224.654 250.657C224.723 249.742 224.799 248.696 224.868 247.54C225.157 242.924 225.356 236.532 225.308 229.473C225.26 222.414 224.978 216.023 224.682 211.406C224.544 209.095 224.4 207.23 224.297 205.937C224.255 205.318 224.221 204.829 224.193 204.451C224.172 204.277 224.172 204.102 224.193 203.928C224.233 204.098 224.261 204.27 224.276 204.444C224.317 204.815 224.379 205.311 224.455 205.923C224.592 207.21 224.778 209.081 224.95 211.386C225.308 216.002 225.638 222.394 225.679 229.473C225.721 236.553 225.487 242.937 225.129 247.554C225.053 248.71 224.964 249.755 224.868 250.671C224.771 251.586 224.703 252.377 224.62 253.017C224.537 253.656 224.476 254.124 224.427 254.496C224.409 254.67 224.379 254.842 224.338 255.012Z" fill="#263238"/>
<path d="M210.048 190.409C210.028 190.607 209.98 190.802 209.904 190.987C209.689 191.518 209.349 191.99 208.913 192.363C208.225 192.962 207.389 193.366 206.491 193.532C205.312 193.736 204.113 193.789 202.921 193.69L202.955 193.443L207.571 194.585H207.702V194.709C207.255 199.236 206.594 204.657 205.638 210.443C204.352 218.39 202.762 225.51 201.51 230.629C200.863 233.182 200.306 235.246 199.9 236.663C199.701 237.351 199.543 237.888 199.419 238.287C199.368 238.478 199.306 238.667 199.233 238.851C199.253 238.655 199.293 238.461 199.35 238.273C199.453 237.86 199.591 237.317 199.77 236.622C200.127 235.197 200.65 233.127 201.269 230.567C202.48 225.442 204.021 218.321 205.315 210.388C206.216 204.664 206.904 199.229 207.386 194.716L207.503 194.874L202.893 193.684L202.934 193.436C204.106 193.546 205.286 193.514 206.45 193.34C207.322 193.192 208.14 192.82 208.824 192.259C209.257 191.91 209.603 191.465 209.835 190.959C209.993 190.608 210.028 190.409 210.048 190.409Z" fill="#263238"/>
<g opacity="0.3">
<path opacity="0.3" d="M120.78 211.42C120.083 210.419 119.223 209.542 118.234 208.826C117.896 208.532 117.471 208.355 117.024 208.323C116.577 208.292 116.131 208.406 115.755 208.651C115.378 208.895 115.092 209.255 114.938 209.676C114.785 210.098 114.773 210.558 114.905 210.987C115.083 211.752 115.387 212.482 115.806 213.147C120.203 221.235 123.116 230.045 124.406 239.16C124.956 243.054 125.204 247.004 126.043 250.856C126.883 254.709 127.749 257.619 130.426 260.488L131.527 260.021C131.403 258.987 131.224 257.96 130.99 256.945C127.405 241.995 124.268 227.079 120.78 211.42Z" fill="black"/>
</g>
<g opacity="0.3">
<path opacity="0.3" d="M120.12 261.919C119.645 258.342 117.368 255.184 114.485 252.975C111.603 250.767 108.163 249.535 104.709 248.462C102.865 247.82 100.924 247.499 98.9709 247.513C97.0238 247.623 93.3774 248.455 92.2354 250.038C105.122 246.997 114.485 252.975 119.632 262.188" fill="black"/>
</g>
<g opacity="0.3">
<path opacity="0.3" d="M224.792 215.713C223.815 226.309 220.967 236.649 219.701 247.21C218.435 257.771 218.923 269.006 224.104 278.28C225.852 281.397 228.321 284.383 231.748 285.421C227.668 280.523 225.659 274.18 224.923 267.843C224.187 261.507 224.613 255.115 224.923 248.744C225.404 237.736 225.423 226.728 224.978 215.72" fill="black"/>
</g>
<path d="M122.376 218.837C122.106 218.984 121.823 219.106 121.53 219.201C120.744 219.496 119.942 219.749 119.129 219.958C117.924 220.262 116.702 220.491 115.469 220.646C113.954 220.839 112.428 220.927 110.901 220.908C109.374 220.867 107.853 220.722 106.346 220.474C105.117 220.268 103.904 219.981 102.713 219.614C101.909 219.377 101.119 219.094 100.347 218.768C100.058 218.662 99.7796 218.531 99.5142 218.376C99.817 218.428 100.113 218.516 100.395 218.637C100.952 218.837 101.771 219.098 102.782 219.373C103.974 219.696 105.182 219.955 106.401 220.151C109.388 220.616 112.425 220.674 115.428 220.323C116.652 220.177 117.867 219.964 119.067 219.683C120.092 219.442 120.918 219.215 121.482 219.036C121.771 218.934 122.071 218.867 122.376 218.837Z" fill="white"/>
<path d="M157.485 211.441C156.637 212.155 155.714 212.775 154.733 213.292C150.174 215.763 144.864 216.469 139.817 215.273C137.472 214.699 135.249 213.709 133.254 212.349C131.043 210.851 129.128 208.957 127.605 206.762C126.808 205.599 126.128 204.359 125.576 203.061C124.985 201.729 124.584 200.321 124.385 198.878C124.166 197.421 124.286 195.933 124.736 194.53C124.958 193.84 125.316 193.201 125.789 192.652C126.261 192.102 126.839 191.653 127.488 191.331C128.771 190.76 130.216 190.667 131.561 191.069C132.853 191.425 133.997 192.187 134.822 193.243C135.568 194.253 136.042 195.438 136.198 196.683C136.351 197.86 136.264 199.056 135.944 200.199C135.317 202.23 134.097 204.027 132.442 205.359C131.1 206.459 129.587 207.333 127.963 207.946C126.744 208.403 125.493 208.771 124.22 209.047C123.174 209.274 122.349 209.411 121.798 209.494L121.159 209.59C121.088 209.598 121.016 209.598 120.945 209.59L121.159 209.535L121.785 209.411C122.335 209.301 123.161 209.143 124.186 208.895C125.446 208.599 126.683 208.213 127.887 207.739C129.482 207.123 130.965 206.249 132.277 205.152C133.879 203.842 135.055 202.084 135.655 200.103C135.959 199.001 136.036 197.85 135.882 196.718C135.732 195.518 135.27 194.379 134.54 193.415C133.76 192.409 132.673 191.685 131.444 191.351C130.181 190.973 128.823 191.061 127.619 191.599C127.013 191.902 126.473 192.324 126.032 192.839C125.592 193.354 125.258 193.953 125.053 194.599C124.619 195.948 124.504 197.38 124.716 198.782C124.91 200.206 125.304 201.595 125.885 202.91C127.467 206.629 130.096 209.809 133.453 212.06C135.414 213.407 137.599 214.393 139.907 214.97C141.92 215.46 143.995 215.648 146.064 215.528C149.073 215.353 152.011 214.544 154.685 213.154C155.108 212.948 155.519 212.718 155.916 212.466C156.267 212.26 156.563 212.074 156.79 211.909L157.32 211.551L157.485 211.441Z" fill="white"/>
<path d="M162.583 184.265C162.583 184.327 161.709 184.396 160.313 184.657C158.497 184.996 156.727 185.543 155.036 186.288C153.347 187.037 151.748 187.974 150.268 189.081C149.133 189.934 148.493 190.539 148.445 190.457C148.562 190.284 148.701 190.127 148.858 189.989C149.252 189.581 149.673 189.2 150.117 188.847C151.57 187.662 153.176 186.679 154.891 185.923C156.608 185.17 158.418 184.647 160.272 184.368C160.832 184.285 161.397 184.232 161.964 184.21C162.172 184.197 162.381 184.215 162.583 184.265Z" fill="white"/>
<path d="M173.88 237.867L173.639 237.771L172.951 237.468C172.059 237.096 171.139 236.795 170.199 236.567C166.763 235.755 163.172 235.886 159.804 236.945C157.48 237.651 155.305 238.774 153.385 240.261C151.175 241.959 149.276 244.026 147.771 246.371C146.097 248.953 144.873 251.8 144.152 254.792C143.734 256.349 143.751 257.991 144.2 259.539C144.485 260.305 144.952 260.991 145.561 261.536C146.17 262.081 146.902 262.47 147.695 262.669C149.294 263.112 150.988 263.073 152.566 262.559C154.103 262.067 155.494 261.199 156.611 260.034C157.695 258.921 158.39 257.488 158.593 255.948C158.674 255.206 158.623 254.456 158.442 253.732C158.247 253.027 157.953 252.352 157.568 251.73C156.786 250.544 155.773 249.528 154.589 248.744C153.471 247.994 152.253 247.405 150.97 246.997C149.771 246.611 148.539 246.337 147.289 246.178C146.134 246.046 144.969 246.01 143.808 246.068C140.284 246.235 136.859 247.291 133.852 249.136C133.035 249.639 132.256 250.2 131.52 250.815L130.949 251.297L130.75 251.448C130.803 251.385 130.86 251.325 130.922 251.269L131.472 250.76C132.192 250.118 132.962 249.536 133.777 249.019C136.788 247.109 140.24 246.005 143.801 245.813C144.975 245.745 146.154 245.775 147.323 245.903C148.592 246.055 149.842 246.327 151.059 246.715C152.371 247.124 153.618 247.719 154.761 248.483C155.989 249.284 157.04 250.328 157.85 251.551C158.256 252.202 158.564 252.909 158.765 253.65C158.96 254.413 159.018 255.205 158.937 255.989C158.727 257.602 158.004 259.105 156.873 260.275C155.716 261.486 154.276 262.389 152.683 262.903C151.036 263.439 149.267 263.477 147.599 263.013C146.752 262.796 145.971 262.377 145.322 261.793C144.672 261.208 144.174 260.475 143.87 259.656C143.398 258.046 143.379 256.336 143.815 254.716C144.549 251.685 145.796 248.802 147.502 246.192C149.032 243.812 150.965 241.717 153.213 240C155.164 238.5 157.375 237.374 159.735 236.677C163.145 235.622 166.781 235.529 170.241 236.408C171.186 236.647 172.107 236.972 172.993 237.378L173.681 237.716L173.88 237.867Z" fill="white"/>
<path d="M111.121 240.584C111.121 240.653 110.343 240.75 109.16 241.162C108.47 241.406 107.802 241.71 107.165 242.071C105.6 242.952 104.242 244.157 103.181 245.607C102.754 246.201 102.377 246.829 102.053 247.485C101.503 248.613 101.317 249.377 101.248 249.356C101.248 249.169 101.278 248.984 101.337 248.806C101.454 248.315 101.615 247.836 101.819 247.375C102.119 246.688 102.486 246.031 102.913 245.414C103.449 244.662 104.065 243.97 104.75 243.35C105.444 242.758 106.201 242.244 107.007 241.816C107.662 241.457 108.354 241.169 109.071 240.956C109.553 240.805 110.048 240.701 110.55 240.646C110.736 240.596 110.928 240.575 111.121 240.584Z" fill="white"/>
<path d="M134.313 275.858C134.313 275.858 134.251 275.81 134.141 275.7C134.031 275.59 133.866 275.404 133.666 275.198C133.254 274.757 132.641 274.104 131.83 273.299C129.578 270.971 127.034 268.945 124.262 267.272C122.346 266.134 120.27 265.29 118.104 264.768C115.62 264.186 113.043 264.128 110.536 264.596C107.755 265.108 105.216 266.508 103.298 268.586C102.306 269.679 101.666 271.046 101.461 272.508C101.355 273.251 101.407 274.008 101.613 274.73C101.82 275.452 102.176 276.122 102.658 276.698C103.157 277.252 103.793 277.665 104.502 277.894C105.211 278.124 105.968 278.162 106.697 278.005C107.4 277.83 108.028 277.432 108.486 276.87C108.938 276.31 109.25 275.649 109.394 274.943C109.671 273.547 109.426 272.098 108.706 270.87C108.026 269.683 107.061 268.682 105.899 267.96C103.694 266.662 101.127 266.116 98.5853 266.405C96.3649 266.613 94.1775 267.086 92.07 267.816C88.9956 268.834 86.0762 270.272 83.3943 272.088C82.4449 272.735 81.7431 273.278 81.2615 273.65L80.7249 274.076C80.601 274.173 80.5391 274.221 80.5322 274.214C81.3903 273.398 82.3104 272.651 83.2842 271.978C85.9658 270.099 88.9039 268.616 92.0081 267.575C94.1314 266.824 96.3374 266.332 98.5785 266.109C101.187 265.803 103.824 266.353 106.091 267.678C107.303 268.427 108.31 269.465 109.022 270.698C109.789 272 110.048 273.538 109.752 275.019C109.602 275.776 109.268 276.484 108.782 277.083C108.273 277.703 107.578 278.142 106.8 278.335C106.009 278.51 105.186 278.471 104.415 278.223C103.644 277.975 102.952 277.527 102.411 276.925C101.896 276.31 101.517 275.595 101.296 274.824C101.076 274.054 101.019 273.246 101.131 272.453C101.341 270.914 102.013 269.474 103.057 268.325C105.024 266.192 107.633 264.76 110.488 264.245C113.047 263.775 115.676 263.845 118.207 264.451C120.388 264.995 122.475 265.862 124.399 267.024C127.184 268.727 129.729 270.793 131.967 273.168C132.765 274.001 133.343 274.668 133.756 275.122L134.203 275.645L134.313 275.858Z" fill="white"/>
<path d="M224.503 256.429C224.364 256.551 224.211 256.657 224.049 256.746C223.898 256.842 223.712 256.966 223.485 257.097L222.673 257.502C222.364 257.654 221.985 257.778 221.614 257.936C221.242 258.094 220.781 258.19 220.313 258.321C219.234 258.567 218.132 258.696 217.025 258.706C214.116 258.711 211.277 257.819 208.893 256.154C207.44 255.211 206.296 253.861 205.604 252.274C205.286 251.384 205.286 250.411 205.604 249.522C205.776 249.068 206.053 248.66 206.411 248.333C206.77 248.005 207.2 247.767 207.668 247.636C208.582 247.425 209.533 247.433 210.443 247.66C211.353 247.887 212.197 248.327 212.904 248.944C213.593 249.499 214.146 250.205 214.52 251.008C214.876 251.796 214.986 252.674 214.837 253.526C214.68 254.324 214.335 255.074 213.832 255.714C213.367 256.308 212.825 256.84 212.223 257.296C211.153 258.094 210 258.772 208.783 259.319C207.019 260.117 205.149 260.657 203.23 260.922C202.542 261.011 202.02 261.053 201.662 261.066C201.479 261.085 201.294 261.085 201.111 261.066C201.29 261.027 201.472 261.004 201.655 260.997C202.013 260.956 202.535 260.894 203.203 260.784C205.106 260.473 206.958 259.903 208.707 259.092C209.906 258.54 211.041 257.86 212.092 257.062C213.326 256.205 214.206 254.929 214.569 253.471C214.671 252.659 214.556 251.835 214.234 251.083C213.913 250.331 213.396 249.678 212.739 249.191C212.074 248.614 211.283 248.202 210.43 247.988C209.576 247.774 208.684 247.764 207.826 247.96C207.408 248.073 207.022 248.284 206.701 248.574C206.379 248.865 206.131 249.227 205.975 249.632C205.683 250.439 205.683 251.322 205.975 252.129C206.547 253.746 207.874 254.916 209.127 255.858C211.449 257.5 214.216 258.395 217.059 258.424C218.148 258.429 219.234 258.321 220.3 258.101C220.767 257.977 221.201 257.874 221.593 257.743C221.985 257.613 222.343 257.489 222.653 257.351L223.471 256.973C223.705 256.856 223.891 256.739 224.049 256.656C224.196 256.571 224.347 256.496 224.503 256.429Z" fill="white"/>
<path d="M204.641 209.074C203.429 209.397 202.241 209.802 201.084 210.285C199.979 210.87 198.917 211.533 197.905 212.266C198.699 211.25 199.742 210.457 200.932 209.962C202.074 209.359 203.35 209.053 204.641 209.074Z" fill="white"/>
<path d="M170.02 209.232C169.926 209.788 169.742 210.324 169.477 210.822C168.897 212.053 168.118 213.18 167.172 214.158C166.226 215.137 165.127 215.955 163.918 216.58C163.427 216.859 162.895 217.059 162.342 217.172C164.021 216.318 165.563 215.219 166.917 213.911C168.181 212.516 169.227 210.939 170.02 209.232Z" fill="white"/>
<path d="M214.919 176.772C214.919 176.772 214.431 176.862 213.543 177.082C212.316 177.396 211.125 177.834 209.986 178.389C209.2 178.763 208.441 179.193 207.716 179.676C206.885 180.217 206.16 180.905 205.576 181.705C204.947 182.589 204.628 183.656 204.668 184.74C204.699 185.301 204.862 185.848 205.143 186.336C205.451 186.822 205.893 187.209 206.416 187.45C206.932 187.703 207.513 187.792 208.081 187.705C208.631 187.62 209.126 187.321 209.457 186.872C209.742 186.428 209.902 185.915 209.92 185.387C209.938 184.859 209.814 184.336 209.56 183.873C209.318 183.455 208.991 183.092 208.6 182.809C208.209 182.525 207.762 182.328 207.289 182.228C206.453 182.032 205.581 182.044 204.751 182.263C203.543 182.627 202.419 183.226 201.441 184.024C200.753 184.568 200.354 184.898 200.334 184.877C200.313 184.856 200.409 184.774 200.581 184.609C200.753 184.444 201.008 184.203 201.352 183.921C202.316 183.061 203.451 182.417 204.682 182.029C205.553 181.779 206.473 181.75 207.358 181.946C207.877 182.049 208.368 182.261 208.799 182.568C209.23 182.875 209.59 183.271 209.856 183.728C210.141 184.246 210.281 184.832 210.261 185.423C210.24 186.014 210.06 186.589 209.739 187.086C209.363 187.607 208.797 187.958 208.163 188.063C207.523 188.163 206.868 188.064 206.285 187.781C205.698 187.511 205.203 187.076 204.861 186.528C204.549 185.991 204.37 185.387 204.338 184.767C204.299 183.605 204.647 182.462 205.329 181.52C205.942 180.699 206.703 179.999 207.572 179.456C208.317 178.975 209.096 178.549 209.904 178.183C211.065 177.643 212.284 177.236 213.536 176.972C213.977 176.883 214.328 176.841 214.562 176.814C214.678 176.784 214.799 176.77 214.919 176.772Z" fill="white"/>
<path d="M223.898 218.947C223.788 219.11 223.668 219.266 223.54 219.415C223.416 219.559 223.237 219.711 223.038 219.91C222.786 220.111 222.519 220.293 222.24 220.454C221.33 220.949 220.326 221.247 219.294 221.328C218.261 221.408 217.223 221.27 216.247 220.921C214.885 220.458 213.675 219.633 212.745 218.534C211.685 217.28 210.91 215.811 210.475 214.227C209.978 212.487 209.794 210.672 209.931 208.868C210.018 206.905 210.702 205.016 211.892 203.453C212.519 202.684 213.326 202.081 214.242 201.698C215.158 201.315 216.154 201.164 217.142 201.258C218.092 201.371 218.976 201.8 219.653 202.476C220.315 203.125 220.697 204.006 220.719 204.932C220.698 205.814 220.338 206.654 219.715 207.278C219.153 207.862 218.463 208.307 217.699 208.579C216.339 209.05 214.877 209.145 213.468 208.854C212.316 208.624 211.205 208.223 210.172 207.664C209.396 207.253 208.647 206.793 207.929 206.288C207.338 205.868 206.89 205.531 206.595 205.297C206.436 205.185 206.286 205.061 206.147 204.925C206.32 205.015 206.484 205.121 206.636 205.242L208.012 206.171C208.738 206.654 209.492 207.095 210.269 207.492C211.291 208.022 212.385 208.399 213.516 208.613C214.881 208.879 216.292 208.774 217.603 208.31C218.319 208.05 218.964 207.626 219.488 207.072C220.051 206.503 220.376 205.74 220.396 204.939C220.369 204.1 220.019 203.304 219.419 202.717C218.791 202.1 217.975 201.71 217.1 201.609C216.174 201.527 215.242 201.672 214.385 202.032C213.528 202.391 212.771 202.955 212.181 203.673C211.034 205.178 210.374 206.998 210.289 208.888C210.148 210.652 210.32 212.427 210.798 214.131C211.219 215.671 211.963 217.104 212.979 218.335C213.865 219.405 215.026 220.213 216.337 220.674C217.282 221.022 218.288 221.171 219.293 221.111C220.298 221.052 221.28 220.786 222.178 220.33C222.824 219.967 223.405 219.5 223.898 218.947Z" fill="white"/>
<path d="M243.21 213.993C243.21 214.069 242.033 213.649 240.086 213.505C237.544 213.31 234.995 213.792 232.699 214.902C230.404 216.011 228.442 217.708 227.014 219.821C226.443 220.707 225.924 221.626 225.459 222.573C225.507 222.289 225.595 222.013 225.721 221.754C226.016 221.034 226.377 220.343 226.801 219.69C228.2 217.489 230.185 215.72 232.533 214.584C234.881 213.448 237.499 212.988 240.093 213.257C240.872 213.332 241.641 213.482 242.391 213.704C242.674 213.769 242.949 213.866 243.21 213.993Z" fill="white"/>
<g opacity="0.3">
<path opacity="0.3" d="M200.148 175.142C207.908 178.926 217.348 179.146 224.262 184.279C228.283 187.263 231.054 191.631 232.042 196.54C233.029 201.449 232.162 206.549 229.608 210.856C229.106 206.48 228.232 201.513 224.531 199.16C222.907 198.135 220.967 197.784 219.164 197.096C217.135 196.353 215.263 195.211 213.206 194.557C210.454 193.677 207.413 193.711 204.647 192.796C201.882 191.881 199.191 189.521 199.398 186.604L200.148 175.142Z" fill="black"/>
</g>
<path d="M229.526 209.659L228.425 195.823C228.425 195.823 220.919 194.372 218.256 192.679C215.593 190.987 210.722 187.464 210.722 187.464C210.722 187.464 209.546 191.688 207.124 191.929L204.943 192.177L204.84 183.659C204.84 183.659 204.427 187.485 201.283 188.076C200.595 188.214 200.561 188.076 200.561 188.076L198.435 176.924C198.435 176.924 195.917 180.185 191.314 178.011C191.314 178.011 198.772 165.008 200.224 164.526C201.675 164.045 209.518 163.838 209.518 163.838C209.518 163.838 220.41 163.15 221.62 163.618C222.831 164.086 224.524 166.012 224.524 166.012C224.524 166.012 237.355 178.362 241.469 182.476C244.714 185.9 246.9 190.188 247.764 194.826C248.012 197 249.828 206.074 249.828 206.074" fill="#B47266"/>
<path d="M249.87 206.109L249.808 205.882L249.663 205.194C249.539 204.588 249.354 203.715 249.12 202.573C248.886 201.43 248.617 200.013 248.294 198.355C248.143 197.529 247.978 196.635 247.819 195.679C247.737 195.204 247.696 194.702 247.599 194.206C247.503 193.711 247.365 193.202 247.214 192.686C246.527 190.411 245.539 188.239 244.276 186.226C243.564 185.089 242.746 184.023 241.834 183.04C240.877 182.036 239.804 181.052 238.745 180.006L224.441 166.136C224.011 165.65 223.551 165.191 223.065 164.76C222.606 164.315 222.057 163.972 221.455 163.756C220.801 163.664 220.141 163.624 219.481 163.639C218.793 163.639 218.105 163.639 217.417 163.639C214.665 163.701 211.865 163.873 208.982 164.01C207.544 164.051 206.092 164.106 204.634 164.189C203.904 164.23 203.168 164.278 202.432 164.34C201.708 164.383 200.99 164.491 200.285 164.664C200.003 164.852 199.752 165.084 199.542 165.352C199.309 165.641 199.075 165.93 198.854 166.232C198.414 166.838 197.988 167.457 197.568 168.09C196.735 169.342 195.924 170.636 195.119 171.943C193.873 174.007 192.662 176.016 191.5 178.032L191.417 177.784C192.561 178.359 193.845 178.598 195.119 178.472C196.357 178.305 197.495 177.7 198.325 176.766L198.572 176.484L198.634 176.841C199.364 180.66 200.072 184.409 200.753 187.994C200.753 187.891 200.719 187.918 200.705 187.897H200.788C200.854 187.904 200.921 187.904 200.987 187.897C201.124 187.882 201.26 187.857 201.393 187.822L201.792 187.712L202.171 187.553C202.665 187.318 203.101 186.977 203.45 186.556C204.129 185.694 204.562 184.665 204.702 183.577H205.033C205.033 186.521 205.056 189.365 205.101 192.108L204.929 191.957L207.049 191.723C207.705 191.637 208.307 191.314 208.741 190.815C209.599 189.816 210.228 188.642 210.585 187.375L210.64 187.189L210.805 187.299L215.442 190.505L217.623 192.019C218.299 192.52 219.037 192.931 219.818 193.243C221.282 193.824 222.783 194.309 224.31 194.695C225.762 195.073 227.145 195.383 228.438 195.658H228.514V195.734C228.837 200.109 229.099 203.57 229.278 205.944C229.36 207.12 229.422 208.008 229.47 208.648C229.47 208.943 229.47 209.177 229.512 209.336C229.516 209.413 229.516 209.492 229.512 209.569C229.512 209.569 229.512 209.494 229.512 209.336C229.512 209.177 229.47 208.943 229.443 208.648C229.388 208.021 229.305 207.12 229.202 205.944C229.003 203.57 228.714 200.116 228.342 195.748L228.425 195.83C227.111 195.576 225.728 195.266 224.297 194.888C222.756 194.507 221.241 194.027 219.763 193.45C218.967 193.136 218.215 192.72 217.527 192.211L215.332 190.705C213.839 189.679 212.284 188.641 210.681 187.512L210.901 187.437C210.536 188.753 209.888 189.974 209.002 191.014C208.519 191.57 207.848 191.928 207.117 192.019L205.005 192.259H204.833V192.087C204.806 189.335 204.776 186.489 204.744 183.549H205.074C204.926 184.702 204.469 185.793 203.753 186.707C203.377 187.165 202.908 187.538 202.377 187.801L201.964 187.973L201.531 188.09C201.384 188.128 201.234 188.156 201.084 188.173H200.843H200.705H200.623C200.599 188.167 200.578 188.155 200.561 188.138C200.561 188.138 200.513 188.138 200.478 188.001L198.352 176.848L198.669 176.924C197.783 177.935 196.561 178.59 195.229 178.768C193.892 178.913 192.541 178.675 191.335 178.08L191.163 177.997L191.259 177.832C192.429 175.805 193.637 173.771 194.885 171.729C195.69 170.422 196.501 169.129 197.341 167.863C197.761 167.23 198.187 166.604 198.641 165.992C198.861 165.689 199.095 165.393 199.329 165.097C199.571 164.773 199.872 164.497 200.217 164.285C200.954 164.102 201.707 163.989 202.466 163.948C203.203 163.879 203.946 163.838 204.675 163.79C206.14 163.714 207.599 163.659 209.037 163.618C211.899 163.487 214.72 163.315 217.472 163.26C218.16 163.26 218.848 163.26 219.536 163.26C220.226 163.249 220.916 163.293 221.6 163.391C222.252 163.62 222.846 163.989 223.34 164.471C223.84 164.899 224.311 165.358 224.751 165.847L239.013 179.745C240.079 180.797 241.139 181.809 242.102 182.793C243.02 183.794 243.843 184.878 244.558 186.033C245.825 188.067 246.811 190.264 247.489 192.562C247.634 193.085 247.771 193.594 247.861 194.103C247.95 194.612 247.998 195.108 248.081 195.582C248.225 196.539 248.377 197.426 248.528 198.259C248.831 199.917 249.092 201.334 249.305 202.49C249.519 203.646 249.684 204.506 249.801 205.118C249.849 205.407 249.89 205.627 249.918 205.806C249.945 205.985 249.87 206.109 249.87 206.109Z" fill="#89544C"/>
<path d="M211.39 164.526C211.39 164.588 210.248 164.794 208.473 165.407C206.171 166.234 203.942 167.249 201.806 168.441C201.196 168.749 200.64 169.156 200.162 169.645C199.734 170.111 199.391 170.649 199.15 171.234C198.708 172.227 198.491 173.305 198.517 174.392C198.517 175.328 198.586 176.091 198.593 176.614C198.618 176.89 198.607 177.167 198.559 177.44C198.495 177.174 198.458 176.902 198.449 176.628C198.401 176.098 198.297 175.348 198.263 174.399C198.199 173.27 198.4 172.142 198.848 171.103C199.093 170.477 199.452 169.9 199.907 169.404C200.409 168.885 200.992 168.453 201.634 168.124C203.785 166.916 206.05 165.925 208.397 165.166C209.111 164.944 209.837 164.763 210.571 164.622C210.839 164.554 211.114 164.522 211.39 164.526Z" fill="#89544C"/>
<path d="M219.564 166.962C219.219 167.097 218.865 167.205 218.504 167.285C217.816 167.491 216.832 167.767 215.649 168.221C214.263 168.754 212.927 169.41 211.658 170.181C210.929 170.601 210.159 171.048 209.34 171.475C208.521 171.901 207.634 172.273 206.842 172.775C206.45 173.015 206.104 173.325 205.824 173.69C205.57 174.056 205.381 174.464 205.267 174.894C205.051 175.738 204.909 176.599 204.84 177.467C204.741 178.949 204.741 180.437 204.84 181.919C204.902 183.192 204.964 184.224 204.978 184.939C205.01 185.308 205.01 185.678 204.978 186.047C204.908 185.684 204.866 185.316 204.854 184.946C204.792 184.168 204.703 183.157 204.599 181.932C204.471 180.438 204.453 178.937 204.544 177.44C204.609 176.549 204.749 175.665 204.964 174.798C205.088 174.328 205.293 173.884 205.57 173.484C205.871 173.08 206.247 172.736 206.677 172.472C207.53 171.943 208.411 171.599 209.216 171.165C210.021 170.732 210.792 170.305 211.528 169.892C212.822 169.132 214.183 168.491 215.594 167.98C216.548 167.651 217.519 167.375 218.504 167.154C218.85 167.057 219.205 166.992 219.564 166.962Z" fill="#89544C"/>
<path d="M223.554 170.587C223.273 170.732 222.978 170.847 222.673 170.931C222.102 171.138 221.297 171.434 220.272 171.853C217.643 172.895 215.253 174.461 213.247 176.456C212.188 177.574 211.377 178.904 210.867 180.357C210.453 181.55 210.242 182.803 210.241 184.065C210.272 185.226 210.434 186.38 210.722 187.505C210.722 187.505 210.674 187.437 210.612 187.285C210.523 187.061 210.447 186.831 210.385 186.597C210.138 185.764 210.003 184.9 209.986 184.031C209.909 181.117 210.99 178.292 212.993 176.174C215.03 174.16 217.481 172.613 220.176 171.64C221.201 171.248 222.04 170.952 222.632 170.821C222.93 170.711 223.239 170.633 223.554 170.587Z" fill="#89544C"/>
<path d="M227.702 179.208C227.702 179.208 227.661 179.27 227.537 179.346C227.357 179.452 227.159 179.525 226.952 179.559C226.189 179.646 225.418 179.527 224.716 179.215C224.247 179.027 223.761 178.884 223.264 178.788C222.702 178.708 222.129 178.774 221.6 178.981C220.382 179.542 219.228 180.235 218.16 181.045C217.052 181.779 216.091 182.712 215.325 183.797C214.832 184.797 214.225 185.737 213.516 186.597C213.213 186.913 212.865 187.182 212.484 187.395C212.186 187.554 211.851 187.63 211.513 187.615C211.305 187.608 211.099 187.571 210.901 187.505C210.77 187.457 210.702 187.43 210.708 187.416C210.715 187.402 210.997 187.485 211.513 187.478C211.822 187.464 212.122 187.374 212.387 187.216C212.74 187 213.06 186.733 213.337 186.425C213.999 185.549 214.573 184.608 215.05 183.618C215.815 182.469 216.802 181.484 217.953 180.722C218.545 180.295 219.13 179.91 219.701 179.538C220.253 179.162 220.849 178.855 221.476 178.623C222.058 178.406 222.686 178.344 223.299 178.444C223.811 178.557 224.311 178.718 224.792 178.926C225.452 179.249 226.183 179.403 226.918 179.373C227.184 179.347 227.448 179.292 227.702 179.208Z" fill="#89544C"/>
<path d="M232.45 195.431C232.263 195.349 232.089 195.24 231.934 195.108C231.485 194.785 231.06 194.431 230.661 194.048C227.98 191.52 226.167 188.209 225.48 184.588C225.37 184.046 225.299 183.496 225.267 182.944C225.233 182.743 225.233 182.539 225.267 182.338C225.329 182.338 225.405 183.192 225.721 184.54C226.541 188.061 228.314 191.289 230.847 193.869C231.803 194.853 232.491 195.383 232.45 195.431Z" fill="#89544C"/>
<path d="M243.244 193.298C243.005 193.763 242.673 194.173 242.267 194.502C241.329 195.351 240.212 195.979 238.999 196.339C237.785 196.699 236.506 196.779 235.257 196.573C234.737 196.517 234.234 196.358 233.777 196.105C233.777 196.043 234.362 196.222 235.291 196.325C236.502 196.454 237.726 196.342 238.894 195.996C240.062 195.65 241.15 195.077 242.095 194.31C242.825 193.718 243.196 193.257 243.244 193.298Z" fill="#89544C"/>
<path d="M257.128 283.488C253.821 286.149 249.61 287.421 245.383 287.036C241.156 286.651 237.244 284.639 234.472 281.424C231.308 277.723 228.796 273.168 229.182 268.304C230.159 256.092 229.567 207.712 229.567 207.712L248.982 202.724C248.982 202.724 263.946 261.204 264.683 271.407C265.02 275.872 261.359 280.124 257.128 283.488Z" fill="#B47266"/>
<path d="M100.821 262.986H123.099L135.428 258.651L139.012 249.102C139.012 249.102 146.25 243.598 153.77 250.547C161.29 257.496 165.927 271.4 165.927 271.4L145.975 278.349C145.975 278.349 133.529 287.651 132.077 287.678L92.2488 288.215C92.2488 288.215 91.8497 270.513 100.821 262.986Z" fill="#B47266"/>
<path d="M151.789 258.5L149.181 216.415C149.161 216.042 149.218 215.668 149.348 215.317C149.477 214.967 149.677 214.646 149.934 214.375C150.192 214.104 150.502 213.888 150.845 213.741C151.189 213.594 151.559 213.518 151.933 213.519H174.878C175.586 213.518 176.266 213.79 176.779 214.278C177.291 214.766 177.596 215.433 177.63 216.14L179.281 258.218C179.293 258.587 179.231 258.954 179.098 259.299C178.965 259.643 178.764 259.957 178.507 260.222C178.251 260.487 177.943 260.698 177.603 260.842C177.263 260.985 176.898 261.06 176.529 261.059H154.513C153.82 261.054 153.155 260.788 152.65 260.313C152.145 259.839 151.837 259.191 151.789 258.5Z" fill="#263238"/>
<path d="M176.632 239.566C176.606 239.398 176.592 239.228 176.591 239.057C176.591 238.686 176.55 238.197 176.522 237.592C176.481 236.278 176.426 234.448 176.357 232.205C176.288 229.962 176.233 227.217 176.157 224.217C176.121 222.708 176.086 221.135 176.054 219.497C176.089 218.685 175.996 217.873 175.779 217.089C175.65 216.713 175.41 216.385 175.091 216.147C174.757 215.919 174.372 215.779 173.97 215.741C173.124 215.693 172.276 215.693 171.431 215.741L168.933 215.796L164.214 215.885L156.226 216.023L153.158 216.064C152.393 216.023 151.627 216.071 150.873 216.209C150.643 216.259 150.427 216.361 150.241 216.506C150.056 216.652 149.905 216.837 149.8 217.048C149.745 217.205 149.717 217.37 149.718 217.536C149.661 217.372 149.661 217.192 149.718 217.027C149.807 216.79 149.951 216.577 150.137 216.405C150.323 216.233 150.547 216.107 150.791 216.037C151.554 215.868 152.335 215.796 153.116 215.823L156.185 215.727L164.173 215.514L168.892 215.404L171.39 215.342C172.254 215.294 173.119 215.294 173.983 215.342C174.445 215.393 174.886 215.556 175.27 215.816C175.639 216.098 175.915 216.484 176.061 216.924C176.29 217.745 176.388 218.597 176.35 219.449C176.378 221.087 176.405 222.66 176.433 224.169C176.481 227.168 176.522 229.872 176.557 232.156C176.591 234.441 176.598 236.236 176.612 237.544C176.612 238.156 176.612 238.644 176.612 239.009C176.637 239.194 176.644 239.38 176.632 239.566Z" fill="#455A64"/>
<path d="M163.801 223.24C163.674 222.954 163.458 222.717 163.185 222.563C162.913 222.41 162.598 222.348 162.287 222.387C162.108 222.34 161.92 222.333 161.737 222.365C161.554 222.397 161.38 222.468 161.227 222.573C161.074 222.678 160.945 222.815 160.849 222.974C160.753 223.132 160.692 223.31 160.671 223.495C160.656 223.872 160.771 224.244 160.997 224.548C161.222 224.852 161.543 225.07 161.909 225.166C162.183 225.242 162.471 225.247 162.747 225.182C163.024 225.117 163.28 224.984 163.491 224.795C163.697 224.599 163.837 224.345 163.893 224.067C163.948 223.788 163.916 223.499 163.801 223.24Z" fill="#E0E0E0"/>
<path d="M138.572 250.272V245.985C138.572 245.985 142.782 236.078 142.658 236.443C142.535 236.807 150.123 231.592 150.123 231.592C150.382 233.773 150.298 235.98 149.876 238.135C149.381 239.756 148.525 241.243 147.371 242.483L146.78 247.107L156.315 239.339L167.688 233.36C168.363 233.306 169.04 233.428 169.654 233.714C170.268 234 170.797 234.44 171.19 234.991C172.642 236.924 170.584 238.858 169.621 239.463C168.658 240.068 159.989 246.343 159.989 246.343L155.173 251.895L156.198 253.065L164.702 247.671C164.702 247.671 175.455 239.821 177.87 239.332H178.001C178.446 239.259 178.903 239.322 179.312 239.513C179.721 239.703 180.062 240.013 180.293 240.4C180.523 240.788 180.631 241.236 180.603 241.687C180.574 242.137 180.411 242.568 180.134 242.924C177.175 246.77 172.084 253.312 171.83 253.085C171.465 252.769 160.423 260.378 160.423 260.378C160.423 260.378 171.465 256.752 172.435 255.906C173.405 255.06 183.306 244.554 183.306 244.554C183.306 244.554 184.633 244.795 184.874 247.815L184.276 250.836C184.276 250.836 184.516 251.558 184.874 253.127C185.232 254.695 179.68 265.456 179.68 265.456C179.68 265.456 157.932 277.413 155.882 277.537C153.832 277.661 146.215 277.537 146.215 277.537L138.572 250.272Z" fill="#B47266"/>
<path d="M184.042 250.444C183.946 250.766 183.807 251.074 183.629 251.359C183.179 252.16 182.676 252.93 182.123 253.663C181.435 254.606 180.581 255.679 179.715 256.938C178.757 258.31 177.667 259.584 176.46 260.743C174.201 262.771 171.678 264.486 168.961 265.841C167.936 266.378 167.097 266.79 166.505 267.073C166.212 267.234 165.903 267.366 165.583 267.465C165.852 267.265 166.14 267.093 166.443 266.949L168.844 265.621C171.498 264.21 173.972 262.485 176.213 260.482C177.405 259.34 178.488 258.089 179.446 256.746C180.327 255.494 181.214 254.427 181.916 253.512C182.618 252.597 183.161 251.833 183.505 251.29C183.667 250.997 183.846 250.715 184.042 250.444Z" fill="#89544C"/>
<path d="M105.335 260.523C103.909 261.195 102.566 262.028 101.331 263.006C98.4406 265.497 96.2575 268.706 95.001 272.308C93.7795 275.922 93.0055 279.672 92.6962 283.474C92.5586 284.892 92.4485 286.054 92.3659 286.914C92.3247 287.293 92.2971 287.602 92.2696 287.857C92.2673 287.967 92.2463 288.077 92.2077 288.18C92.197 288.071 92.197 287.96 92.2077 287.85C92.2077 287.596 92.2077 287.279 92.2421 286.908C92.2421 286.089 92.3384 284.899 92.4554 283.433C92.6846 279.598 93.4226 275.811 94.6501 272.171C95.9232 268.509 98.174 265.266 101.159 262.793C102.069 262.065 103.065 261.45 104.124 260.963C104.495 260.777 104.812 260.688 105.004 260.605C105.112 260.568 105.222 260.541 105.335 260.523Z" fill="#263238"/>
<path d="M331.143 288.304C331.143 288.4 259.44 288.483 171.011 288.483C82.5824 288.483 10.8652 288.4 10.8652 288.304C10.8652 288.208 82.5548 288.125 171.011 288.125C259.467 288.125 331.143 288.208 331.143 288.304Z" fill="#263238"/>
<path d="M253.997 289.405L160.636 290.038L220.505 302.945L242.301 297.51L253.997 289.405Z" fill="#FBE2C1"/>
<path d="M160.636 293.774L220.492 308.649L312.539 301.556L330.744 228.408C332.065 223.997 329.836 221.583 327.022 221.596L241.146 225.848C239.823 225.922 238.561 226.431 237.557 227.296C236.553 228.16 235.863 229.332 235.593 230.63L220.506 302.945L160.65 290.039L160.636 293.774Z" fill="#FEF5E9"/>
<path d="M160.636 293.774C160.636 293.774 160.636 293.478 160.636 292.859C160.636 292.239 160.636 291.297 160.636 290.038H160.677L220.567 302.848L220.416 302.945L227.578 268.545L231.617 249.171C232.309 245.827 233.016 242.435 233.736 238.995C234.094 237.275 234.454 235.541 234.816 233.794C235.002 232.92 235.181 232.046 235.366 231.166C235.503 230.253 235.824 229.378 236.309 228.593C236.81 227.798 237.487 227.128 238.287 226.636C239.088 226.143 239.99 225.841 240.925 225.751C242.762 225.634 244.599 225.559 246.429 225.462L257.678 224.905L280.933 223.742L305.075 222.545L317.459 221.933L323.706 221.623L326.843 221.465C327.948 221.394 329.039 221.748 329.891 222.456C330.604 223.083 331.088 223.93 331.267 224.864C331.425 225.777 331.402 226.712 331.198 227.616C330.767 229.359 330.336 231.095 329.904 232.824C329.047 236.268 328.194 239.708 327.345 243.144C325.643 249.964 323.969 256.688 322.323 263.316C319.02 276.567 315.828 289.391 312.773 301.679V301.796H312.649L220.595 308.841L176.604 297.833L164.695 294.792L161.654 294.021C160.966 293.849 160.636 293.753 160.636 293.753L161.682 294.001L164.75 294.751L176.577 297.654L220.533 308.552H220.499L312.539 301.417L312.388 301.541C315.443 289.254 318.635 276.422 321.924 263.171C323.575 256.548 325.247 249.822 326.939 242.992C327.792 239.585 328.648 236.145 329.505 232.672C329.932 230.952 330.359 229.232 330.792 227.492C330.983 226.638 331.006 225.754 330.861 224.891C330.702 224.04 330.27 223.265 329.629 222.683C328.047 221.259 325.728 221.96 323.685 221.94L317.438 222.249L305.054 222.862L280.912 224.052L257.658 225.201L246.409 225.758C244.558 225.854 242.707 225.923 240.905 226.04C240.021 226.127 239.168 226.413 238.411 226.878C237.654 227.343 237.013 227.974 236.536 228.723C236.076 229.479 235.769 230.319 235.635 231.193C235.456 232.067 235.27 232.948 235.091 233.815C234.72 235.562 234.362 237.296 233.997 239.016C233.282 242.46 232.573 245.852 231.871 249.191C230.495 255.865 229.145 262.323 227.819 268.565C225.205 281.025 222.79 292.556 220.609 302.965V303.082H220.485L160.629 290.093V290.059C160.629 291.311 160.629 292.246 160.629 292.866C160.629 293.485 160.636 293.774 160.636 293.774Z" fill="#263238"/>
<path d="M278.917 258.328C278.017 258.466 277.169 258.838 276.458 259.407C275.747 259.975 275.197 260.721 274.865 261.568C274.565 262.428 274.573 263.366 274.888 264.221C275.203 265.075 275.805 265.794 276.592 266.254C278.504 267.224 280.981 266.089 282.096 264.252C282.436 263.663 282.651 263.01 282.727 262.334C282.803 261.657 282.738 260.973 282.536 260.323C282.137 258.947 279.784 258.046 278.917 258.328Z" fill="white"/>
<path d="M278.917 258.328C279.241 258.198 279.601 258.183 279.935 258.287C280.329 258.37 280.711 258.504 281.07 258.686C281.564 258.911 281.998 259.251 282.336 259.676C282.534 259.933 282.671 260.232 282.735 260.55C282.82 260.877 282.873 261.211 282.893 261.548C282.943 262.304 282.821 263.061 282.535 263.763C282.182 264.556 281.632 265.247 280.939 265.77C280.246 266.293 279.432 266.632 278.573 266.756C277.658 266.873 276.734 266.626 275.999 266.068C275.329 265.548 274.846 264.823 274.623 264.004C274.424 263.27 274.424 262.495 274.623 261.761C274.81 261.131 275.132 260.549 275.566 260.055C276.195 259.354 276.997 258.83 277.891 258.534C278.132 258.454 278.378 258.392 278.628 258.349C278.8 258.349 278.889 258.349 278.889 258.349C278.889 258.349 278.538 258.438 277.94 258.679C277.097 259.012 276.348 259.546 275.759 260.234C275.363 260.708 275.074 261.262 274.912 261.857C274.729 262.533 274.729 263.246 274.912 263.921C275.113 264.668 275.55 265.329 276.158 265.806C276.822 266.304 277.654 266.521 278.476 266.412C279.273 266.295 280.027 265.982 280.673 265.502C281.319 265.022 281.836 264.389 282.178 263.66C282.453 263.008 282.577 262.303 282.542 261.596C282.549 260.985 282.389 260.383 282.081 259.855C281.773 259.45 281.378 259.119 280.926 258.885C280.583 258.7 280.221 258.555 279.845 258.452C279.545 258.359 279.231 258.317 278.917 258.328Z" fill="#263238"/>
<path d="M97.1613 126.032H49.8475C48.6998 126.032 47.5991 126.488 46.7875 127.3C45.976 128.112 45.52 129.212 45.52 130.36V177.674C45.52 178.821 45.976 179.922 46.7875 180.734C47.5991 181.545 48.6998 182.001 49.8475 182.001H82.5826L95.7509 192.844V182.001H97.1613C98.309 182.001 99.4097 181.545 100.221 180.734C101.033 179.922 101.489 178.821 101.489 177.674V130.36C101.489 129.212 101.033 128.112 100.221 127.3C99.4097 126.488 98.309 126.032 97.1613 126.032Z" fill="white"/>
<path d="M50.3705 126.032H97.3609C98.4557 126.032 99.5057 126.467 100.28 127.242C101.054 128.016 101.489 129.066 101.489 130.16V143.542C101.489 143.584 101.472 143.624 101.443 143.654C101.413 143.684 101.373 143.7 101.331 143.7H45.6783C45.6364 143.7 45.5961 143.684 45.5664 143.654C45.5368 143.624 45.5201 143.584 45.5201 143.542V130.876C45.5164 130.238 45.6394 129.606 45.882 129.017C46.1245 128.427 46.4818 127.891 46.933 127.441C47.3842 126.99 47.9204 126.633 48.5105 126.392C49.1006 126.15 49.7328 126.028 50.3705 126.032Z" fill="#01ABFF"/>
<path d="M81.3234 136.057C81.3234 136.16 77.4775 136.236 72.7372 136.236C67.9968 136.236 64.144 136.16 64.144 136.057C64.144 135.953 67.99 135.864 72.744 135.864C77.4981 135.864 81.3234 135.96 81.3234 136.057Z" fill="#263238"/>
<path d="M97.1614 126.032H97.4572C97.7455 126.045 98.0316 126.089 98.3104 126.163C99.4174 126.455 100.364 127.172 100.945 128.158C101.367 128.879 101.577 129.704 101.551 130.539C101.551 131.447 101.551 132.431 101.551 133.49C101.551 135.623 101.551 138.066 101.551 140.804C101.551 146.273 101.551 152.906 101.585 160.481C101.585 164.272 101.585 168.303 101.585 172.548C101.585 173.608 101.585 174.681 101.585 175.768V177.405C101.605 177.976 101.528 178.546 101.358 179.091C101.081 179.931 100.559 180.669 99.8611 181.212C99.1628 181.754 98.3189 182.077 97.4366 182.139C96.838 182.173 96.2808 182.139 95.696 182.139L95.8542 181.981C95.8542 185.421 95.8542 189.06 95.8542 192.824V193.174L95.579 192.947L82.4107 182.118L82.5208 182.153H49.7926C49.2827 182.142 48.7782 182.047 48.2996 181.871C47.3356 181.522 46.5215 180.851 45.9948 179.972C45.7343 179.547 45.546 179.082 45.4375 178.596C45.3548 178.107 45.3225 177.612 45.3412 177.116V168.544C45.3412 161.017 45.3412 153.759 45.3412 146.844C45.3412 143.404 45.3412 140.013 45.3412 136.738C45.3412 135.1 45.3412 133.495 45.3412 131.922C45.3105 131.125 45.3381 130.327 45.4238 129.534C45.5735 128.744 45.9318 128.009 46.4617 127.404C46.9916 126.799 47.6737 126.347 48.4372 126.094C49.1761 125.893 49.9438 125.819 50.7076 125.874H55.0764H63.2843L88.0523 125.929H94.7878H96.5353C96.9344 125.929 97.1339 125.929 97.1339 125.929H96.5353H94.7878L88.0523 125.964L63.2843 126.026H50.7283C49.9971 125.972 49.2622 126.042 48.5542 126.232C47.8327 126.516 47.2023 126.992 46.731 127.608C46.2312 128.171 45.8915 128.858 45.7471 129.596C45.6684 130.371 45.6454 131.151 45.6783 131.929V136.745C45.6783 140.02 45.6783 143.398 45.6783 146.851C45.6783 153.731 45.6783 161.024 45.6783 168.551V177.144C45.6592 177.616 45.6892 178.089 45.7678 178.554C45.9122 179.243 46.23 179.883 46.6912 180.414C47.1523 180.945 47.7415 181.349 48.4028 181.588C49.3286 181.847 50.2937 181.936 51.2512 181.85H82.624L82.6721 181.884L95.8336 192.734L95.5584 192.865C95.5584 189.101 95.5584 185.441 95.5584 182.022V181.864H95.7235C96.2945 181.864 96.8862 181.864 97.4435 181.864C97.9925 181.822 98.5279 181.672 99.019 181.423C99.5035 181.179 99.9351 180.842 100.289 180.432C100.643 180.021 100.913 179.544 101.083 179.029C101.249 178.516 101.324 177.978 101.303 177.44V175.768C101.303 174.681 101.303 173.608 101.303 172.548C101.303 168.303 101.303 164.292 101.303 160.481C101.303 152.913 101.303 146.273 101.303 140.804C101.303 138.052 101.303 135.623 101.303 133.49C101.303 131.358 101.578 129.479 100.739 128.213C100.183 127.236 99.263 126.519 98.1796 126.218C97.8456 126.13 97.5052 126.068 97.1614 126.032Z" fill="#263238"/>
<path d="M81.8533 120.549H81.7364C80.7636 120.549 79.9751 121.338 79.9751 122.31V131.426C79.9751 132.399 80.7636 133.188 81.7364 133.188H81.8533C82.8261 133.188 83.6146 132.399 83.6146 131.426V122.31C83.6146 121.338 82.8261 120.549 81.8533 120.549Z" fill="#E0E0E0"/>
<path d="M81.8598 133.188C82.2344 133.135 82.5895 132.988 82.8918 132.761C83.2312 132.486 83.4487 132.088 83.4973 131.653C83.4973 131.151 83.4973 130.525 83.4973 129.865C83.4973 128.489 83.4973 126.927 83.4629 125.172C83.4629 124.285 83.4629 123.356 83.4629 122.42C83.4741 122.195 83.4374 121.97 83.3552 121.759C83.273 121.549 83.1471 121.359 82.9858 121.201C82.8246 121.043 82.6316 120.921 82.4197 120.843C82.2079 120.765 81.9819 120.733 81.7566 120.749C81.53 120.749 81.3062 120.798 81.0998 120.892C80.8935 120.986 80.7093 121.122 80.5595 121.292C80.4159 121.464 80.3078 121.662 80.2416 121.876C80.1755 122.09 80.1526 122.315 80.1743 122.537C80.1743 123.501 80.1743 124.429 80.1743 125.289C80.1743 127.044 80.1743 128.633 80.1743 129.988C80.1743 130.319 80.1743 130.635 80.1743 130.938C80.1493 131.215 80.1493 131.493 80.1743 131.77C80.2602 132.198 80.5063 132.577 80.8623 132.83C81.1822 133.036 81.5489 133.159 81.9286 133.188C81.8288 133.208 81.7258 133.208 81.6259 133.188C81.3275 133.173 81.038 133.081 80.7866 132.919C80.3818 132.659 80.0934 132.252 79.9816 131.784C79.9376 131.495 79.9215 131.203 79.9335 130.91C79.9335 130.608 79.9335 130.291 79.9335 129.961C79.9335 128.585 79.9335 127.016 79.8922 125.262C79.8922 124.381 79.8922 123.452 79.8922 122.51C79.8678 122.245 79.8967 121.977 79.977 121.723C80.0573 121.469 80.1875 121.234 80.36 121.031C80.54 120.817 80.7643 120.645 81.0172 120.526C81.2702 120.407 81.546 120.345 81.8254 120.343C82.1012 120.324 82.3777 120.365 82.6364 120.463C82.8951 120.56 83.13 120.711 83.3254 120.907C83.5208 121.102 83.6723 121.337 83.7695 121.596C83.8668 121.854 83.9077 122.131 83.8894 122.407C83.8894 123.363 83.8894 124.292 83.8894 125.159C83.8894 126.913 83.8894 128.496 83.8482 129.851C83.8482 130.539 83.8482 131.11 83.8 131.667C83.7706 131.901 83.6946 132.127 83.5764 132.332C83.4583 132.536 83.3004 132.715 83.112 132.857C82.8759 133.037 82.5952 133.149 82.3002 133.181C82.1595 133.238 82.0023 133.241 81.8598 133.188Z" fill="#263238"/>
<path d="M64.7703 120.549H64.6534C63.6806 120.549 62.8921 121.338 62.8921 122.31V131.426C62.8921 132.399 63.6806 133.188 64.6534 133.188H64.7703C65.7431 133.188 66.5316 132.399 66.5316 131.426V122.31C66.5316 121.338 65.7431 120.549 64.7703 120.549Z" fill="#E0E0E0"/>
<path d="M64.77 133.188C65.1471 133.137 65.5048 132.99 65.8089 132.761C66.1483 132.486 66.3657 132.088 66.4143 131.653C66.4143 131.151 66.4143 130.525 66.4143 129.865C66.4143 128.489 66.4143 126.927 66.373 125.173C66.373 124.285 66.373 123.356 66.373 122.421C66.3843 122.195 66.3476 121.97 66.2654 121.759C66.1831 121.549 66.0572 121.359 65.896 121.201C65.7347 121.043 65.5418 120.921 65.3299 120.843C65.118 120.765 64.892 120.733 64.6668 120.749C64.4401 120.749 64.2161 120.798 64.0097 120.891C63.8033 120.985 63.6192 121.122 63.4697 121.292C63.3248 121.463 63.2155 121.661 63.1481 121.875C63.0808 122.089 63.0568 122.314 63.0775 122.537C63.0775 123.501 63.0775 124.429 63.0775 125.289C63.0775 127.044 63.0775 128.633 63.0362 129.989C63.0362 130.319 63.0362 130.635 63.0362 130.938C63.011 131.215 63.011 131.494 63.0362 131.77C63.1196 132.199 63.3662 132.579 63.7242 132.83C64.0415 133.037 64.406 133.16 64.7838 133.188C64.7838 133.188 64.6874 133.188 64.481 133.188C64.1848 133.173 63.8976 133.081 63.6486 132.919C63.2417 132.661 62.9527 132.254 62.8436 131.784C62.8006 131.495 62.7822 131.203 62.7886 130.91C62.7886 130.608 62.7886 130.291 62.7886 129.961C62.7886 128.585 62.7886 127.016 62.7886 125.262C62.7886 124.381 62.7886 123.452 62.7886 122.51C62.7481 121.974 62.9184 121.443 63.2633 121.031C63.443 120.817 63.6672 120.644 63.9202 120.525C64.1733 120.407 64.4492 120.344 64.7287 120.343C65.0042 120.326 65.2802 120.367 65.5384 120.465C65.7966 120.563 66.031 120.714 66.2262 120.909C66.4214 121.104 66.5728 121.339 66.6705 121.597C66.7682 121.855 66.8098 122.131 66.7927 122.407C66.7927 123.363 66.7927 124.292 66.7927 125.159C66.7927 126.913 66.7927 128.496 66.7927 129.851C66.7927 130.539 66.7927 131.11 66.7446 131.667C66.68 132.139 66.433 132.566 66.0566 132.857C65.8197 133.036 65.5394 133.148 65.2447 133.181C65.0935 133.245 64.923 133.248 64.77 133.188Z" fill="#263238"/>
<g opacity="0.3">
<path opacity="0.3" d="M60.8071 126.562C61.0365 128.803 60.8221 131.067 60.1761 133.225C59.5301 135.383 58.4653 137.392 57.0424 139.139C55.6195 140.885 53.8665 142.333 51.8834 143.402C49.9004 144.47 47.7263 145.137 45.4854 145.365L46.1734 135.96L54.6977 126.693L60.8071 126.562Z" fill="black"/>
</g>
<path d="M45.8163 141.453C54.4084 139.287 59.6176 130.566 57.4515 121.974C55.2853 113.382 46.564 108.172 37.9719 110.339C29.3798 112.505 24.1706 121.226 26.3367 129.818C28.5029 138.41 37.2242 143.619 45.8163 141.453Z" fill="white"/>
<path d="M41.8736 143.673C38.4659 143.671 35.1307 142.689 32.2654 140.844C29.4002 139 27.1256 136.37 25.7129 133.269C24.3002 130.168 23.8088 126.726 24.2974 123.354C24.7859 119.981 26.2338 116.821 28.4685 114.248C30.7032 111.675 33.6304 109.799 36.9014 108.844C40.1723 107.888 43.649 107.893 46.9172 108.858C50.1854 109.823 53.1072 111.707 55.3345 114.286C57.5618 116.865 59.0006 120.03 59.4795 123.404C60.1356 128.07 58.9152 132.805 56.0856 136.572C53.2561 140.339 49.0483 142.831 44.3848 143.501C43.5526 143.616 42.7136 143.673 41.8736 143.673ZM41.9149 111.591C41.2243 111.591 40.5346 111.639 39.8509 111.736C37.0503 112.138 34.4318 113.361 32.3262 115.251C30.2206 117.14 28.7224 119.612 28.0209 122.353C27.3194 125.094 27.4461 127.981 28.385 130.65C29.3239 133.319 31.0328 135.65 33.2959 137.348C35.5589 139.046 38.2745 140.035 41.0995 140.19C43.9245 140.345 46.7321 139.659 49.1675 138.22C51.6029 136.78 53.5569 134.65 54.7825 132.1C56.0081 129.55 56.4503 126.694 56.0533 123.893C55.57 120.485 53.8746 117.365 51.2779 115.106C48.6811 112.846 45.3569 111.599 41.9149 111.591Z" fill="#455A64"/>
<path d="M41.9149 111.591C41.9925 111.581 42.0713 111.581 42.1489 111.591C42.3002 111.591 42.5273 111.591 42.8369 111.591C43.7142 111.631 44.5854 111.757 45.4375 111.97C46.7894 112.301 48.0853 112.83 49.2834 113.538C50.8796 114.479 52.2808 115.717 53.4114 117.185C54.7789 118.971 55.7053 121.055 56.1153 123.267C56.2207 123.87 56.2942 124.479 56.3354 125.09C56.3527 125.404 56.3527 125.719 56.3354 126.033C56.3354 126.349 56.3354 126.672 56.3354 126.996C56.2252 128.317 55.9478 129.618 55.5098 130.869C54.9971 132.173 54.3147 133.404 53.4802 134.529C52.6025 135.688 51.5674 136.718 50.4049 137.591C47.9192 139.413 44.9176 140.395 41.8358 140.395C38.754 140.395 35.7525 139.413 33.2668 137.591C30.9556 135.892 29.2043 133.542 28.2375 130.842C27.8098 129.573 27.5462 128.255 27.4532 126.92C27.3655 125.673 27.4395 124.419 27.6733 123.191C28.189 120.483 29.4753 117.981 31.3779 115.985C33.2805 113.99 35.7185 112.586 38.3993 111.942C38.9565 111.818 39.4588 111.729 39.8922 111.674L40.9999 111.612H41.6879H41.9218L41.6879 111.646L40.9999 111.708L39.8991 111.805C39.4657 111.873 38.9772 111.97 38.4268 112.107C37.0949 112.454 35.8187 112.986 34.6359 113.69C33.0826 114.626 31.7195 115.847 30.618 117.288C29.2824 119.043 28.3753 121.085 27.9692 123.253C27.7425 124.457 27.6754 125.685 27.7697 126.906C27.8756 128.197 28.1461 129.468 28.5746 130.69C29.0535 131.967 29.6989 133.174 30.4941 134.282C31.3646 135.413 32.3854 136.419 33.5282 137.274C35.955 139.047 38.8823 140.002 41.8874 140.002C44.8925 140.002 47.8199 139.047 50.2466 137.274C52.5085 135.624 54.23 133.34 55.1933 130.711C55.6323 129.491 55.9098 128.219 56.0189 126.927C56.0602 126.617 56.0189 126.301 56.0189 125.991C56.0361 125.684 56.0361 125.376 56.0189 125.069C55.957 124.464 55.9295 123.858 55.8125 123.274C55.4184 121.104 54.5232 119.057 53.1981 117.295C51.2552 114.73 48.5119 112.888 45.4031 112.059C44.5602 111.837 43.699 111.692 42.83 111.626C42.2314 111.605 41.9149 111.612 41.9149 111.591Z" fill="#263238"/>
<path d="M41.8737 143.673H42.1627L43.002 143.625C43.3736 143.625 43.8276 143.549 44.378 143.466L46.215 143.088C47.8643 142.641 49.4468 141.977 50.9209 141.113C52.8541 139.936 54.5505 138.407 55.9227 136.607C57.5739 134.416 58.6969 131.873 59.2044 129.177C59.284 128.814 59.3391 128.446 59.3696 128.076C59.3696 127.704 59.4521 127.333 59.4865 126.954C59.5209 126.576 59.4865 126.191 59.4865 125.805V125.221L59.4315 124.636C59.3251 123.026 58.9915 121.439 58.4408 119.923C57.2007 116.536 54.9539 113.61 52.0022 111.538C49.0505 109.466 45.5353 108.346 41.9288 108.33C38.3125 108.322 34.7816 109.428 31.817 111.499C28.8524 113.57 26.5983 116.504 25.3617 119.902C24.2721 122.853 24.0035 126.044 24.5843 129.135C24.8383 130.534 25.261 131.897 25.8433 133.195C26.1234 133.803 26.4357 134.395 26.779 134.97L27.2881 135.802L27.8592 136.566C29.2143 138.376 30.9055 139.909 32.8403 141.079C34.3096 141.953 35.8935 142.617 37.5462 143.054C38.1476 143.217 38.7589 143.341 39.3763 143.425C39.8311 143.509 40.2906 143.564 40.7523 143.59L41.5985 143.645H41.8875C41.7916 143.657 41.6945 143.657 41.5985 143.645H40.7523C40.2914 143.635 39.8317 143.593 39.3763 143.521C38.7542 143.448 38.138 143.331 37.5324 143.171C33.5948 142.217 30.1073 139.932 27.6596 136.703L27.0817 135.933L26.5588 135.093C26.2064 134.512 25.8849 133.913 25.5956 133.298C25.0013 131.978 24.5671 130.592 24.3022 129.17C23.6876 126.022 23.9397 122.767 25.0315 119.751C26.2827 116.281 28.5759 113.283 31.5971 111.167C34.6183 109.051 38.2197 107.921 41.9081 107.931C45.5939 107.934 49.1894 109.072 52.2054 111.19C55.2214 113.309 57.5115 116.305 58.7641 119.772C59.3246 121.321 59.6605 122.943 59.7617 124.588L59.8099 125.179V125.771C59.8099 126.163 59.8099 126.555 59.8099 126.941C59.8099 127.326 59.7273 127.711 59.686 128.09C59.6567 128.465 59.5992 128.838 59.514 129.204C58.9864 131.942 57.8326 134.52 56.1429 136.738C54.7414 138.55 53.0121 140.084 51.0448 141.258C49.5478 142.117 47.9417 142.769 46.27 143.198L44.4124 143.549C43.8758 143.618 43.4148 143.652 43.0364 143.666C42.658 143.68 42.3484 143.666 42.1902 143.666C42.032 143.666 41.8737 143.673 41.8737 143.673Z" fill="#263238"/>
<path d="M50.2852 103.736L48.8193 106.087L58.2463 111.965L59.7122 109.614L50.2852 103.736Z" fill="#455A64"/>
<path d="M57.9727 112.094C58.0806 111.857 58.2024 111.628 58.3374 111.406L59.3487 109.72V109.871C57.2159 108.585 53.769 106.466 49.9094 104.051L50.157 103.996V104.037L50.1089 104.113L50.0126 104.257L49.8268 104.56L49.4553 105.152C49.2168 105.542 48.9875 105.927 48.7673 106.308L48.7122 106.067C51.361 107.732 53.6659 109.211 55.3308 110.298L57.2985 111.584C57.5366 111.742 57.7663 111.912 57.9865 112.094C57.7484 111.982 57.5185 111.853 57.2985 111.708L55.3102 110.525C53.6177 109.507 51.2234 108.055 48.5058 106.397L48.3545 106.301L48.4508 106.156L49.1388 104.993L49.5103 104.402L49.6961 104.106L49.7924 103.955L49.8406 103.879V103.844L50.0814 103.789C53.9479 106.204 57.3604 108.372 59.4519 109.727L59.5414 109.789L59.4863 109.878C58.991 110.635 58.5988 111.213 58.3374 111.605C58.2279 111.777 58.106 111.94 57.9727 112.094Z" fill="#263238"/>
<path d="M27.3626 107.653L19.6553 116.423L21.7328 118.248L29.4401 109.479L27.3626 107.653Z" fill="#455A64"/>
<path d="M21.7426 118.244C21.7426 118.244 21.949 117.969 22.3205 117.515L23.896 115.623C25.272 114.034 27.1296 111.839 29.2899 109.362V109.61L27.2259 107.787H27.4805L27.4392 107.835L27.3635 107.917L27.2191 108.083L26.9232 108.42L26.3384 109.108L25.1963 110.408L23.0842 112.788L19.768 116.49V116.339C20.3666 116.896 20.8551 117.357 21.2403 117.715C21.6256 118.072 21.777 118.237 21.777 118.251C21.5779 118.13 21.3913 117.989 21.2197 117.832C20.8551 117.536 20.3115 117.088 19.6304 116.504L19.5479 116.435L19.6167 116.359L22.8778 112.561L24.9418 110.167C25.3064 109.741 25.6848 109.314 26.0701 108.874C26.2559 108.654 26.4554 108.433 26.648 108.186L26.9439 107.849L27.0883 107.684L27.164 107.594L27.2053 107.553H27.4599L29.5239 109.383L29.6546 109.5L29.5376 109.631C27.3085 112.149 25.3408 114.336 23.9373 115.878L22.293 117.673C22.1214 117.875 21.9376 118.065 21.7426 118.244Z" fill="#263238"/>
<path d="M34.8901 127.305L36.2593 124.705L41.1509 126.913L46.4141 117.329L48.8772 118.747L42.0591 130.835L34.8901 127.305Z" fill="#455A64"/>
<path d="M42.0664 130.855L34.9043 127.312L36.2803 124.691L41.1445 126.92L46.4077 117.288L48.8844 118.712L42.0664 130.855ZM34.9043 127.298L42.0457 130.807L48.85 118.753L46.4145 117.377L41.1582 126.92L36.2803 124.725L34.9043 127.298Z" fill="#263238"/>
<path d="M32.3308 145.709C32.0693 145.633 31.8176 145.527 31.5809 145.393C31.3036 145.26 31.0348 145.111 30.7759 144.946C30.4063 144.735 30.048 144.506 29.7026 144.258C28.7886 143.646 27.9299 142.955 27.1364 142.194C26.1675 141.259 25.2877 140.236 24.5082 139.139C23.744 138.032 23.0831 136.858 22.5337 135.63C22.097 134.622 21.7449 133.58 21.481 132.513C21.3746 132.105 21.2896 131.692 21.2265 131.275C21.1624 130.964 21.1187 130.649 21.0958 130.332C21.0545 130.066 21.0407 129.796 21.0545 129.527C21.1233 129.527 21.2334 130.67 21.7425 132.451C22.035 133.491 22.4052 134.508 22.8502 135.492C23.4062 136.693 24.0645 137.844 24.8178 138.932C25.5691 140.022 26.4114 141.047 27.3359 141.994C28.1108 142.743 28.941 143.433 29.8196 144.058C31.3194 145.152 32.3652 145.647 32.3308 145.709Z" fill="#263238"/>
<path d="M24.2126 142.056C23.7737 141.668 23.3875 141.223 23.0636 140.735C22.2282 139.593 21.4982 138.377 20.8826 137.102C20.2686 135.822 19.7779 134.486 19.4172 133.112C19.2262 132.557 19.1128 131.978 19.0801 131.392C19.2995 131.93 19.4856 132.482 19.6374 133.043C20.0637 134.374 20.5786 135.675 21.1785 136.937C21.7877 138.191 22.4771 139.405 23.2425 140.57C23.6013 141.041 23.9255 141.538 24.2126 142.056Z" fill="#263238"/>
<rect x="52" y="149" width="19" height="25" fill="#FBE2C1"/>
<rect x="76" y="149" width="19" height="25" fill="#FBE2C1"/>
<rect x="52" y="148" width="19" height="25" fill="#FEF5E9"/>
<rect x="76" y="148" width="19" height="25" fill="#FEF5E9"/>
<path d="M235.91 130.945L243.65 117.288C238.87 109.521 237.168 100.247 238.879 91.289C240.589 82.3308 245.589 74.3364 252.894 68.877C260.199 63.4175 269.283 60.888 278.359 61.7855C287.434 62.683 295.846 66.9427 301.941 73.7273C308.035 80.5119 311.372 89.3307 311.295 98.4504C311.217 107.57 307.732 116.331 301.523 123.011C295.315 129.692 286.832 133.808 277.742 134.552C268.653 135.296 259.613 132.613 252.402 127.03L235.91 130.945Z" fill="#FAFAFA"/>
<path d="M235.91 130.945L252.422 126.975L252.374 127.113C252.365 127.105 252.358 127.095 252.353 127.085C252.349 127.074 252.346 127.062 252.346 127.051C252.346 127.039 252.349 127.027 252.353 127.017C252.358 127.006 252.365 126.997 252.374 126.989C252.389 126.975 252.409 126.968 252.429 126.968C252.449 126.968 252.469 126.975 252.484 126.989C254.797 128.762 257.309 130.258 259.97 131.447C263.133 132.849 266.481 133.792 269.911 134.247C271.812 134.503 273.732 134.595 275.649 134.522C276.633 134.46 277.637 134.433 278.649 134.344L281.703 133.876C290.785 132.064 298.84 126.873 304.242 119.352C307.245 115.186 309.323 110.427 310.338 105.392C311.373 100.07 311.223 94.5852 309.898 89.3277C309.719 88.6397 309.567 87.9517 309.368 87.3187L308.68 85.3579C308.191 84.042 307.621 82.7576 306.974 81.512C306.663 80.8789 306.314 80.2655 305.928 79.675C305.556 79.0696 305.199 78.4573 304.813 77.8587L303.534 76.1456L302.894 75.2856C302.681 74.9966 302.419 74.7489 302.206 74.4806L300.734 72.8569C300.245 72.3134 299.667 71.8662 299.144 71.364L298.339 70.6347C298.078 70.3869 297.799 70.1571 297.507 69.9467L295.773 68.6533C295.484 68.4469 295.209 68.2061 294.899 68.0272L293.977 67.463L292.147 66.3553L290.235 65.4197C289.606 65.0937 288.958 64.8065 288.294 64.5597C283.156 62.5235 277.626 61.67 272.113 62.0622C266.884 62.3848 261.791 63.8578 257.197 66.376C248.976 70.9444 242.82 78.4917 239.997 87.4632C238.867 91.2829 238.324 95.2521 238.387 99.2349C238.475 102.694 239.058 106.124 240.121 109.417C241.009 112.172 242.217 114.814 243.719 117.288C243.728 117.301 243.734 117.317 243.734 117.333C243.734 117.349 243.728 117.364 243.719 117.377L235.91 130.972C236.206 130.436 238.662 126.081 243.574 117.288V117.377C242.057 114.902 240.833 112.258 239.928 109.5C238.842 106.189 238.242 102.738 238.146 99.2555C238.069 95.244 238.605 91.2442 239.735 87.3944C242.559 78.3293 248.755 70.6945 257.046 66.0664C261.661 63.5102 266.781 61.9978 272.044 61.6357C277.612 61.2376 283.199 62.0959 288.391 64.1469C289.059 64.3983 289.712 64.6901 290.345 65.0206C290.985 65.3302 291.638 65.6329 292.278 65.9563L294.129 67.0778L295.058 67.6419C295.367 67.8277 295.642 68.0685 295.938 68.2818L297.693 69.5889C297.987 69.7993 298.268 70.0291 298.532 70.2769L299.344 71.0131C299.874 71.5222 300.458 71.9763 300.947 72.5267L302.433 74.1642C302.674 74.4394 302.935 74.687 303.121 74.976L303.768 75.8429L305.061 77.5766C305.453 78.1752 305.811 78.7944 306.189 79.4067C306.576 80.005 306.927 80.6252 307.242 81.2643C307.897 82.5201 308.471 83.8161 308.962 85.1446C309.205 85.8143 309.446 86.4748 309.684 87.1261C309.884 87.8141 310.042 88.5021 310.221 89.1901C311.558 94.4975 311.706 100.035 310.654 105.406C309.618 110.491 307.507 115.295 304.462 119.496C299.009 127.095 290.862 132.326 281.683 134.123L278.601 134.591C277.582 134.681 276.571 134.701 275.58 134.756C273.649 134.835 271.715 134.738 269.801 134.467C266.376 133.999 263.036 133.044 259.88 131.633C257.21 130.425 254.691 128.908 252.374 127.113L252.498 126.989C252.514 127.007 252.523 127.03 252.523 127.054C252.523 127.078 252.514 127.102 252.498 127.12H252.463L235.91 130.945Z" fill="#263238"/>
<path d="M275.996 124.131C290.353 124.131 301.992 112.461 301.992 98.0653C301.992 83.6698 290.353 72 275.996 72C261.639 72 250 83.6698 250 98.0653C250 112.461 261.639 124.131 275.996 124.131Z" fill="#22CDB1"/>
<path d="M268.403 111.853C268.813 112.333 269.429 112.607 270.113 112.607C270.797 112.607 271.413 112.264 271.824 111.716L288.926 89.4231C289.679 88.4628 289.473 87.0223 288.516 86.2678C287.558 85.5133 286.121 85.719 285.369 86.6793L269.908 106.777L261.972 97.4484C261.288 96.4195 259.92 96.1451 258.894 96.7625C257.868 97.4484 257.594 98.8203 258.21 99.8492C258.347 99.9863 258.484 100.192 258.62 100.329L268.403 111.853Z" fill="white"/>
</svg>
