<svg width="343" height="343" viewBox="0 0 343 343" fill="none" xmlns="http://www.w3.org/2000/svg">
<path d="M330.33 304.241C330.33 304.358 259.295 304.443 171.665 304.443C84.0354 304.443 13 304.358 13 304.241C13 304.125 84.0203 304.04 171.665 304.04C259.31 304.04 330.33 304.133 330.33 304.241Z" fill="#263238"/>
<path d="M146.934 22.4019L109 34.5447L117.186 60.1165L155.12 47.9738L146.934 22.4019Z" fill="#FAD5A3"/>
<path d="M147.159 22.6499C147.09 22.8105 147.006 22.9644 146.909 23.1099C146.719 23.4299 146.469 23.8499 146.149 24.3699L143.299 28.9899L133.749 44.1799L133.669 44.2999H133.529L133.199 44.1699L116.199 37.6499L111.069 35.6499L109.679 35.0899C109.513 35.0311 109.352 34.9575 109.199 34.8699C109.37 34.9038 109.538 34.954 109.699 35.0199L111.119 35.5199L116.289 37.4299L133.289 43.8599L133.629 43.9799L133.409 44.0599L143.059 28.9199C144.289 27.0199 145.289 25.4699 146.009 24.3699L146.819 23.1399C146.917 22.9666 147.031 22.8026 147.159 22.6499Z" fill="#263238"/>
<path d="M117.379 60.3699C117.289 60.3699 119.019 55.9099 121.239 50.4999C123.459 45.0899 125.349 40.7299 125.439 40.7699C125.529 40.8099 123.809 45.2299 121.579 50.6399C119.349 56.0499 117.499 60.4099 117.379 60.3699Z" fill="#263238"/>
<path d="M137.979 36.4099C138.039 36.3299 141.979 38.9099 146.759 42.1699C151.539 45.4299 155.399 48.1699 155.339 48.1699C155.279 48.1699 151.339 45.6799 146.559 42.4199C141.779 39.1599 137.919 36.4999 137.979 36.4099Z" fill="#263238"/>
<path d="M314.539 77.8399L286.309 65.9099C285.386 65.5053 284.66 64.7545 284.285 63.8192C283.911 62.8839 283.92 61.839 284.309 60.9099L300.869 21.8299C301.271 20.9055 302.022 20.1772 302.958 19.8027C303.894 19.4283 304.94 19.4381 305.869 19.8299L323.779 27.4099L331.579 47.5699L319.579 75.8999C319.163 76.8216 318.401 77.5423 317.457 77.9055C316.514 78.2687 315.465 78.2451 314.539 77.8399Z" fill="#FBE2C1"/>
<path d="M323.769 27.3098L319.109 38.3098C318.925 38.7411 318.827 39.2045 318.822 39.6735C318.818 40.1424 318.906 40.6078 319.081 41.0426C319.257 41.4775 319.517 41.8734 319.846 42.2076C320.175 42.5417 320.567 42.8076 320.999 42.9898L331.569 47.4698L323.769 27.3098Z" fill="#FAD5A3"/>
<g opacity="0.2">
<path opacity="0.2" d="M318.839 39.3398C318.5 40.1763 318.454 41.1028 318.708 41.9687C318.962 42.8347 319.502 43.5893 320.239 44.1098C320.338 44.1921 320.441 44.2689 320.549 44.3398C321.829 45.1698 330.229 50.6398 330.319 50.4298L331.569 47.4298L320.999 42.9498C320.999 42.9498 318.379 41.7798 318.839 39.3398Z" fill="black"/>
</g>
<g opacity="0.3">
<path opacity="0.3" d="M323.769 27.3098L319.109 38.3098C318.925 38.7411 318.827 39.2045 318.822 39.6735C318.818 40.1424 318.906 40.6078 319.081 41.0426C319.257 41.4775 319.517 41.8734 319.846 42.2076C320.175 42.5417 320.567 42.8076 320.999 42.9898L331.569 47.4698L323.769 27.3098Z" fill="white"/>
</g>
<path d="M316.929 36.9099C314.654 36.2475 312.433 35.4083 310.289 34.3999C308.073 33.5633 305.924 32.5605 303.859 31.3999C306.14 32.0559 308.364 32.8953 310.509 33.9099C312.724 34.7401 314.871 35.7432 316.929 36.9099Z" fill="#FAFAFA"/>
<path d="M322.729 46.6499C322.669 46.7899 317.809 44.8699 311.869 42.3499C305.929 39.8299 301.169 37.6899 301.229 37.5399C301.289 37.3899 306.149 39.3299 312.089 41.8399C318.029 44.3499 322.789 46.5099 322.729 46.6499Z" fill="#FAFAFA"/>
<path d="M322.469 52.6698C322.409 52.8098 317.109 50.6698 310.639 47.9598C304.169 45.2498 298.969 42.9098 299.029 42.7398C299.089 42.5698 304.379 44.7398 310.859 47.4498C317.339 50.1598 322.529 52.5198 322.469 52.6698Z" fill="#FAFAFA"/>
<path d="M320.379 57.5698C320.319 57.7098 315.029 55.5698 308.559 52.8598C302.089 50.1498 296.889 47.7798 296.939 47.6398C296.989 47.4998 302.299 49.6398 308.769 52.3498C315.239 55.0598 320.449 57.4198 320.379 57.5698Z" fill="#FAFAFA"/>
<path d="M318.319 62.4598C318.259 62.6098 312.959 60.4598 306.489 57.7598C300.019 55.0598 294.819 52.6798 294.879 52.5398C294.939 52.3998 300.229 54.5398 306.709 57.2498C313.189 59.9598 318.379 62.3198 318.319 62.4598Z" fill="#FAFAFA"/>
<path d="M316.239 67.3598C316.179 67.5098 310.879 65.3598 304.409 62.6598C297.939 59.9598 292.739 57.5798 292.799 57.4398C292.859 57.2998 298.159 59.4399 304.629 62.1399C311.099 64.8399 316.299 67.2198 316.239 67.3598Z" fill="#FAFAFA"/>
<path d="M219.599 86.1301C240.226 86.1301 256.949 69.4079 256.949 48.7801C256.949 28.1522 240.226 11.4301 219.599 11.4301C198.971 11.4301 182.249 28.1522 182.249 48.7801C182.249 69.4079 198.971 86.1301 219.599 86.1301Z" fill="white"/>
<path d="M256.949 48.78C256.949 48.78 256.949 48.58 256.889 48.18C256.829 47.78 256.819 47.18 256.769 46.4C256.769 46.01 256.719 45.58 256.689 45.1C256.659 44.62 256.539 44.1 256.459 43.54C256.291 42.2396 256.031 40.953 255.679 39.69C254.806 36.1968 253.411 32.8556 251.539 29.78C248.827 25.2617 245.189 21.3689 240.865 18.3578C236.54 15.3467 231.627 13.2856 226.449 12.31C224.9 12.022 223.333 11.8416 221.759 11.77C220.959 11.77 220.149 11.66 219.339 11.67L216.879 11.8C216.469 11.8 216.049 11.8 215.639 11.88L214.399 12.07C213.579 12.21 212.739 12.31 211.909 12.48C208.504 13.2447 205.214 14.448 202.119 16.06C201.339 16.48 200.589 16.98 199.809 17.44C199.429 17.68 199.029 17.89 198.659 18.16L197.569 18.98C194.541 21.1788 191.893 23.8574 189.729 26.91L188.879 28.05L188.129 29.27L187.379 30.45C187.114 30.8519 186.88 31.2731 186.679 31.71C186.269 32.58 185.849 33.45 185.419 34.33L184.419 37.07C183.198 40.8557 182.551 44.8027 182.499 48.78C182.551 52.7539 183.199 56.6976 184.419 60.48C184.749 61.4 185.089 62.32 185.419 63.23C185.749 64.14 186.259 64.98 186.679 65.84C186.878 66.2812 187.112 66.7059 187.379 67.11L188.129 68.34L188.869 69.56L189.729 70.7C190.838 72.2155 192.051 73.6522 193.359 75C194.682 76.285 196.088 77.481 197.569 78.58L198.659 79.4C199.029 79.67 199.429 79.88 199.809 80.12C200.589 80.58 201.339 81.12 202.119 81.5C205.214 83.1119 208.504 84.3153 211.909 85.08C212.739 85.26 213.579 85.35 214.409 85.49L215.639 85.68C216.059 85.68 216.469 85.68 216.879 85.76L219.379 85.91C220.189 85.91 220.999 85.84 221.799 85.82C223.373 85.7451 224.94 85.5613 226.489 85.27C231.669 84.298 236.583 82.2383 240.908 79.2269C245.233 76.2154 248.87 72.3207 251.579 67.8C253.435 64.7281 254.817 61.394 255.679 57.91C256.031 56.647 256.291 55.3603 256.459 54.06C256.539 53.5 256.639 52.98 256.689 52.5C256.739 52.02 256.749 51.59 256.769 51.2C256.822 50.4266 256.862 49.8366 256.889 49.43C256.889 49.03 256.949 48.82 256.949 48.82C256.949 48.82 256.949 49.03 256.949 49.43C256.949 49.83 256.949 50.43 256.889 51.2C256.889 51.6 256.889 52.03 256.829 52.52C256.769 53.01 256.699 53.52 256.619 54.08C256.465 55.3728 256.218 56.6528 255.879 57.91C255.031 61.4317 253.652 64.8038 251.789 67.91C249.079 72.493 245.426 76.4469 241.071 79.509C236.715 82.5711 231.758 84.6713 226.529 85.67C224.963 85.9641 223.38 86.1512 221.789 86.23C220.979 86.23 220.159 86.34 219.339 86.33L216.849 86.21C216.429 86.21 216.009 86.21 215.589 86.13L214.379 85.91C213.539 85.77 212.689 85.68 211.849 85.5C210.151 85.1281 208.48 84.6403 206.849 84.04C205.165 83.4393 203.525 82.7243 201.939 81.9C201.149 81.47 200.379 80.97 199.599 80.5C199.209 80.25 198.799 80.04 198.429 79.77L197.329 78.94C195.828 77.8278 194.402 76.6185 193.059 75.32C191.731 73.9524 190.498 72.4956 189.369 70.96L188.499 69.81L187.739 68.57L186.989 67.32C186.717 66.9136 186.48 66.4855 186.279 66.04C185.859 65.16 185.429 64.28 185.009 63.39L184.009 60.6C182.776 56.7651 182.122 52.7678 182.069 48.74C182.1 44.7255 182.73 40.7382 183.939 36.91L184.939 34.13L186.219 31.47C186.419 31.0258 186.653 30.5978 186.919 30.19L187.679 28.95L188.429 27.71L189.299 26.55C190.431 25.0195 191.663 23.5663 192.989 22.2C194.332 20.9014 195.758 19.6922 197.259 18.58L198.359 17.75C198.729 17.48 199.139 17.27 199.529 17.02C200.309 16.56 201.079 16.02 201.869 15.63C205.006 14.0042 208.34 12.7908 211.789 12.02C212.629 11.85 213.479 11.75 214.319 11.61L215.569 11.42C215.989 11.42 216.409 11.42 216.829 11.34L219.319 11.22C220.139 11.22 220.949 11.29 221.759 11.32C223.353 11.4032 224.939 11.5902 226.509 11.88C231.738 12.8787 236.695 14.9788 241.051 18.0409C245.406 21.1031 249.059 25.057 251.769 29.64C253.632 32.7462 255.011 36.1182 255.859 39.64C256.197 40.9138 256.441 42.2106 256.589 43.52C256.669 44.09 256.759 44.61 256.799 45.09L256.859 46.4C256.859 47.17 256.909 47.76 256.919 48.18C256.929 48.6 256.949 48.78 256.949 48.78Z" fill="#263238"/>
<path d="M237.309 47.73C236.82 47.9097 236.319 48.0535 235.809 48.16L231.639 49.16C228.109 49.98 223.209 51.09 217.729 52.29L217.419 52.36V50.91C217.419 45.06 217.419 39.76 217.489 35.91C217.489 34.07 217.559 32.54 217.579 31.37C217.564 30.8148 217.597 30.2593 217.679 29.71C217.754 30.26 217.788 30.8149 217.779 31.37C217.779 32.54 217.829 34.07 217.859 35.91C217.859 39.75 217.939 45.05 217.939 50.91V52L217.619 51.74C223.099 50.55 228.009 49.5 231.559 48.74L235.759 47.91C236.269 47.8021 236.788 47.7419 237.309 47.73Z" fill="#263238"/>
<path d="M259.619 64.18C259.655 63.9715 259.712 63.7671 259.789 63.57C259.899 63.18 260.129 62.57 260.329 61.87C260.972 59.7721 261.46 57.6296 261.789 55.46C262.932 48.2912 262.248 40.9499 259.801 34.1154C257.354 27.2809 253.222 21.1741 247.789 16.36C246.161 14.9038 244.429 13.567 242.609 12.36C241.969 11.91 241.439 11.61 241.109 11.36C240.926 11.2544 240.752 11.134 240.589 11C240.791 11.0605 240.984 11.1515 241.159 11.27C241.509 11.47 242.059 11.74 242.719 12.17C244.598 13.3263 246.378 14.6375 248.039 16.09C253.588 20.8913 257.801 27.0465 260.268 33.9574C262.735 40.8683 263.373 48.2999 262.119 55.53C261.764 57.6966 261.232 59.8304 260.529 61.91C260.289 62.65 260.029 63.21 259.889 63.59C259.822 63.7963 259.731 63.9943 259.619 64.18Z" fill="#263238"/>
<path d="M266.779 45.8C266.699 45.8 266.649 44.31 266.349 41.93C265.948 38.8353 265.245 35.7874 264.249 32.83C263.243 29.8851 261.947 27.0478 260.379 24.36C259.159 22.29 258.279 21.09 258.379 21.04C258.648 21.2653 258.884 21.528 259.079 21.82C259.489 22.36 260.079 23.15 260.719 24.16C262.42 26.8193 263.797 29.673 264.819 32.66C265.848 35.6467 266.52 38.7451 266.819 41.89C266.929 43.09 266.959 44.07 266.959 44.75C266.954 45.1073 266.893 45.4616 266.779 45.8Z" fill="#263238"/>
<path d="M182.309 27.15C182.249 27.3496 182.165 27.541 182.059 27.72C181.879 28.09 181.569 28.61 181.249 29.32C177.483 36.8013 175.964 45.2128 176.874 53.5388C177.784 61.8648 181.085 69.7492 186.379 76.24C187.757 77.944 189.254 79.548 190.859 81.04C191.419 81.58 191.859 81.96 192.189 82.24C192.349 82.3754 192.5 82.5224 192.639 82.68C192.451 82.5822 192.276 82.4612 192.119 82.32C191.799 82.07 191.309 81.71 190.729 81.19C189.059 79.7464 187.51 78.1678 186.099 76.47C181.38 70.849 178.196 64.1017 176.859 56.8851C175.522 49.6685 176.077 42.2287 178.469 35.29C179.174 33.1999 180.054 31.1728 181.099 29.23C181.449 28.53 181.789 28.02 181.989 27.67C182.081 27.4881 182.188 27.3142 182.309 27.15Z" fill="#263238"/>
<path d="M172.319 44.16C172.409 44.16 172.219 45.65 172.139 48.05C172.033 51.1667 172.244 54.2861 172.769 57.36C173.304 60.437 174.149 63.4523 175.289 66.36C176.159 68.59 176.839 69.92 176.759 69.96C176.534 69.6893 176.345 69.3901 176.199 69.07C175.869 68.48 175.429 67.61 174.949 66.5C173.693 63.6184 172.787 60.5969 172.249 57.5C171.718 54.3899 171.557 51.228 171.769 48.08C171.859 46.87 171.979 45.9 172.089 45.23C172.117 44.8646 172.194 44.5047 172.319 44.16Z" fill="#263238"/>
<path d="M250.519 54.9099C249.109 54.6199 247.969 54.3699 247.969 54.3599C247.969 54.3499 249.119 54.5699 250.529 54.8599C251.939 55.1499 253.079 55.3899 253.069 55.3999C253.059 55.4099 251.919 55.2399 250.519 54.9099Z" fill="#263238"/>
<path d="M246.899 64.36C245.659 63.63 244.659 63.03 244.659 63.02C244.659 63.01 245.659 63.59 246.919 64.32C248.179 65.05 249.159 65.65 249.149 65.66C249.139 65.67 248.129 65.09 246.899 64.36Z" fill="#263238"/>
<path d="M240.379 72.08C239.439 70.98 238.689 70.08 238.699 70.08C238.709 70.08 239.479 70.95 240.409 72.08C241.339 73.21 242.099 74.08 242.079 74.08C242.059 74.08 241.379 73.17 240.379 72.08Z" fill="#263238"/>
<path d="M231.769 77.28C231.239 75.94 230.819 74.85 230.829 74.85C230.839 74.85 231.279 75.92 231.829 77.26C232.379 78.6 232.779 79.68 232.759 79.69C232.739 79.7 232.299 78.61 231.769 77.28Z" fill="#263238"/>
<path d="M221.909 79.39C221.849 77.95 221.809 76.79 221.819 76.79C221.829 76.79 221.899 77.95 221.959 79.39C222.019 80.83 222.069 81.99 222.059 81.99C222.049 81.99 221.979 80.83 221.909 79.39Z" fill="#263238"/>
<path d="M211.899 78.1799C212.299 76.7999 212.629 75.6899 212.649 75.6899C212.669 75.6899 212.349 76.8199 211.949 78.1999C211.549 79.5799 211.209 80.6899 211.189 80.6899C211.169 80.6899 211.489 79.5599 211.899 78.1799Z" fill="#263238"/>
<path d="M202.809 73.8C203.639 72.62 204.319 71.68 204.339 71.69C204.359 71.7 203.679 72.69 202.849 73.83C202.019 74.97 201.379 75.91 201.379 75.91C201.379 75.91 201.979 74.97 202.809 73.8Z" fill="#263238"/>
<path d="M195.659 66.7001C196.819 65.8501 197.769 65.1801 197.779 65.1901C197.789 65.2001 196.849 65.8901 195.679 66.7401C194.509 67.5901 193.569 68.2501 193.559 68.2401C193.549 68.2301 194.489 67.5401 195.659 66.7001Z" fill="#263238"/>
<path d="M191.179 57.66C192.559 57.24 193.679 56.91 193.679 56.92C193.679 56.93 192.569 57.29 191.189 57.71C189.809 58.13 188.699 58.45 188.699 58.44C188.699 58.43 189.809 58.08 191.179 57.66Z" fill="#263238"/>
<path d="M189.889 47.66C191.329 47.66 192.489 47.76 192.489 47.78C192.489 47.8 191.319 47.78 189.889 47.71C188.459 47.64 187.279 47.6 187.289 47.59C187.299 47.58 188.449 47.6 189.889 47.66Z" fill="#263238"/>
<path d="M191.909 37.77C193.259 38.29 194.339 38.71 194.339 38.77C194.339 38.83 193.239 38.37 191.889 37.86C190.539 37.35 189.469 36.92 189.469 36.91C189.469 36.9 190.569 37.26 191.909 37.77Z" fill="#263238"/>
<path d="M197.039 29.08C198.139 30.01 199.039 30.77 199.039 30.78C199.039 30.79 198.129 30.05 197.039 29.12C195.949 28.19 195.039 27.44 195.039 27.43C195.039 27.42 195.929 28.16 197.039 29.08Z" fill="#263238"/>
<path d="M204.699 22.54C205.439 23.77 206.039 24.77 206.029 24.78C206.019 24.79 205.399 23.78 204.659 22.56C203.919 21.34 203.319 20.33 203.329 20.32C203.339 20.31 203.959 21.31 204.699 22.54Z" fill="#263238"/>
<path d="M214.069 18.82C214.369 20.23 214.609 21.37 214.599 21.37C214.589 21.37 214.329 20.24 214.019 18.83C213.709 17.42 213.479 16.29 213.499 16.28C213.519 16.27 213.769 17.42 214.069 18.82Z" fill="#263238"/>
<path d="M224.139 18.36C223.969 19.79 223.819 20.94 223.809 20.94C223.799 20.94 223.919 19.78 224.099 18.35C224.279 16.92 224.419 15.77 224.429 15.77C224.439 15.77 224.319 16.91 224.139 18.36Z" fill="#263238"/>
<path d="M233.829 21.19C233.209 22.48 232.689 23.53 232.679 23.52C232.669 23.51 233.159 22.46 233.779 21.16C234.399 19.86 234.919 18.82 234.939 18.83C234.959 18.84 234.449 19.91 233.829 21.19Z" fill="#263238"/>
<path d="M242.059 27.01C241.059 28.01 240.219 28.85 240.209 28.84C240.199 28.83 241.019 27.99 242.029 26.97C243.039 25.95 243.869 25.13 243.879 25.14C243.889 25.15 243.079 25.99 242.059 27.01Z" fill="#263238"/>
<path d="M247.959 35.18C246.669 35.82 245.619 36.33 245.619 36.32C245.619 36.31 246.619 35.78 247.939 35.14C249.259 34.5 250.279 33.99 250.279 34C250.279 34.01 249.249 34.54 247.959 35.18Z" fill="#263238"/>
<path d="M250.899 44.8299L248.309 45.1399C248.309 45.1399 249.459 44.9599 250.889 44.7799C252.319 44.5999 253.469 44.4499 253.469 44.4599C253.469 44.4699 252.319 44.6399 250.899 44.8299Z" fill="#263238"/>
<path d="M269.378 41.38C268.824 43.0685 268.107 44.6994 267.238 46.25L267.178 46.36L266.978 46.77L266.728 46.39C265.722 44.9857 264.858 43.485 264.148 41.91C265.302 43.2005 266.327 44.6005 267.208 46.09H266.758L266.818 45.97C267.521 44.3608 268.379 42.8236 269.378 41.38Z" fill="#263238"/>
<path d="M235.757 116.988C233.799 117.514 231.794 117.843 229.77 117.97C227.768 118.299 225.738 118.421 223.711 118.333C225.668 117.8 227.674 117.467 229.698 117.34C231.699 117.01 233.73 116.892 235.757 116.988Z" fill="#01ABFF"/>
<path d="M229.976 110.238C227.824 110.793 225.625 111.146 223.408 111.292C221.212 111.643 218.989 111.789 216.767 111.729C218.916 111.16 221.116 110.807 223.335 110.674C225.53 110.323 227.754 110.177 229.976 110.238Z" fill="#01ABFF"/>
<path d="M223.48 103.779C221.331 104.347 219.131 104.701 216.912 104.833C214.717 105.184 212.493 105.33 210.271 105.269C212.42 104.701 214.62 104.348 216.839 104.215C219.035 103.864 221.258 103.718 223.48 103.779Z" fill="#01ABFF"/>
<path d="M216.997 97.3193C214.848 97.8879 212.648 98.241 210.429 98.3736C208.233 98.7244 206.01 98.8705 203.788 98.8098C205.94 98.2553 208.139 97.9023 210.356 97.7555C212.551 97.4047 214.775 97.2586 216.997 97.3193Z" fill="#01ABFF"/>
<path d="M210.514 90.86C208.364 91.4294 206.164 91.7866 203.945 91.9265C201.749 92.27 199.526 92.412 197.304 92.3506C199.456 91.7961 201.655 91.4431 203.873 91.2963C206.068 90.9455 208.291 90.7994 210.514 90.86Z" fill="#01ABFF"/>
<path d="M204.03 84.4008C201.881 84.9702 199.681 85.3274 197.462 85.4673C195.266 85.8108 193.043 85.9528 190.821 85.8914C192.973 85.3368 195.172 84.9839 197.389 84.8371C199.585 84.4862 201.808 84.3402 204.03 84.4008Z" fill="#01ABFF"/>
<path d="M197.546 77.9536C195.394 78.5081 193.195 78.8611 190.978 79.0079C188.783 79.359 186.559 79.5011 184.337 79.4321C186.489 78.8775 188.688 78.5246 190.905 78.3778C193.1 78.0197 195.324 77.8776 197.546 77.9536Z" fill="#01ABFF"/>
<path d="M157.385 99.8402H54.376V154.314H130.118C132.36 157.756 137.099 165.597 137.099 165.597L142.552 154.314H157.385V99.8402Z" fill="#FAFAFA"/>
<path d="M70.5921 126.342C71.3137 125.903 72.0916 125.565 72.9044 125.335L73.3805 123.068L77.2478 123L77.8055 125.267C78.6232 125.465 79.4113 125.77 80.1494 126.174L82.1035 124.896L84.8873 127.58L83.6631 129.575C84.0986 130.298 84.4356 131.076 84.6651 131.888L86.932 132.341L87 136.21L84.7331 136.767C84.5357 137.585 84.2308 138.374 83.8263 139.112L85.1049 141.066L82.4209 143.851L80.4214 142.64C79.6987 143.075 78.9211 143.412 78.1092 143.642L77.6558 145.932L73.7885 146L73.2308 143.733C72.4127 143.536 71.6245 143.231 70.8869 142.826L68.9328 144.104L66.149 141.42L67.3595 139.42C66.9241 138.697 66.5871 137.92 66.3576 137.107L64.068 136.631L64 132.763L66.2669 132.205C66.4657 131.388 66.7706 130.6 67.1737 129.861L65.8951 127.907L68.5791 125.122L70.5786 126.338L70.5921 126.342ZM72.655 131.493C72.0854 132.084 71.7036 132.83 71.558 133.638C71.4123 134.445 71.5094 135.278 71.8368 136.03C72.1643 136.783 72.7074 137.421 73.3976 137.865C74.0878 138.309 74.894 138.538 75.7143 138.523C76.5346 138.508 77.3321 138.251 78.0061 137.783C78.68 137.315 79.2002 136.658 79.5007 135.894C79.8012 135.131 79.8686 134.295 79.6943 133.493C79.5201 132.691 79.112 131.959 78.5218 131.389C77.7295 130.626 76.6668 130.208 75.5669 130.228C74.4669 130.247 73.4197 130.702 72.655 131.493Z" fill="#FAD5A3"/>
<path d="M72.2968 131.429C72.5277 131.145 72.8041 130.901 73.1146 130.707C73.969 130.153 74.9893 129.913 76.001 130.028C76.7506 130.108 77.4676 130.377 78.0851 130.81C78.7026 131.243 79.2004 131.825 79.532 132.503C79.7279 132.892 79.8626 133.309 79.9313 133.74C80.014 134.186 80.0221 134.644 79.9553 135.093C79.8296 136.048 79.401 136.938 78.7325 137.631C78.064 138.324 77.1909 138.784 76.2415 138.944C75.7924 139.019 75.334 139.019 74.8849 138.944C74.4521 138.891 74.0301 138.771 73.6342 138.588C72.8986 138.256 72.2656 137.732 71.8013 137.071C71.3127 136.371 71.0356 135.545 71.0032 134.691C70.9708 133.838 71.1844 132.993 71.6185 132.257C71.8014 131.94 72.0354 131.655 72.3112 131.415C72.0936 131.701 71.8913 131.998 71.7051 132.305C71.234 133.165 71.0647 134.159 71.224 135.126C71.3289 135.789 71.5876 136.417 71.9793 136.961C72.4256 137.59 73.0318 138.089 73.7352 138.405C74.5096 138.748 75.3686 138.854 76.203 138.708C77.1008 138.558 77.9266 138.123 78.5588 137.468C79.1911 136.813 79.5963 135.972 79.7148 135.069C79.7846 134.643 79.7846 134.209 79.7148 133.783C79.6505 133.375 79.524 132.979 79.3395 132.609C79.0041 131.919 78.4931 131.329 77.8579 130.9C77.3014 130.528 76.6653 130.292 76.001 130.211C75.0289 130.087 74.0433 130.292 73.2012 130.794C72.8887 130.989 72.5868 131.202 72.2968 131.429Z" fill="#E0E0E0"/>
<path d="M70.5817 126.414C70.5369 126.397 70.4946 126.374 70.4558 126.347L70.0737 126.131L68.5811 125.234H68.6261L65.9781 128.002V127.93L67.2549 129.859L67.2774 129.891V129.931C66.8751 130.656 66.5727 131.431 66.3782 132.237V132.282H66.3332L64.0854 132.838L64.1528 132.757C64.1753 133.959 64.2023 135.238 64.2293 136.584L64.1528 136.494L66.4232 136.943H66.4816V136.996C66.7077 137.793 67.0404 138.555 67.4707 139.262L67.5021 139.311L67.4707 139.365L66.2703 141.343V141.213L69.0352 143.869H68.8958L70.8334 142.6L70.8919 142.564L70.9503 142.595C71.6737 142.993 72.446 143.294 73.2476 143.492H73.3151V143.56C73.4904 144.264 73.6792 145.031 73.868 145.803L73.7557 145.713L77.5905 145.646L77.4781 145.74C77.6265 145.022 77.7838 144.25 77.9277 143.474V143.407L77.9951 143.385C78.7844 143.159 79.5402 142.83 80.2429 142.407L80.3014 142.371L80.3643 142.407L82.3425 143.609H82.1986L84.8645 140.854V141.003C84.415 140.348 84.0104 139.706 83.5923 139.065L83.5563 139.006L83.5877 138.948C83.9874 138.227 84.2897 137.456 84.4869 136.656V136.588H84.5543L86.8022 136.041L86.7168 136.149C86.6943 134.843 86.6763 133.569 86.6538 132.327L86.7392 132.43L84.4914 131.954H84.4284V131.896C84.2033 131.1 83.8722 130.338 83.4439 129.63L83.4124 129.577L83.4439 129.523L84.6488 127.549V127.67L81.8929 125.005H82.0053L80.0676 126.266L80.0227 126.293H79.9777C79.2536 125.893 78.4796 125.592 77.6759 125.396H77.6265V125.351C77.4287 124.534 77.2488 123.799 77.0825 123.108L77.1499 123.162L73.3151 123.211L73.369 123.166C73.1712 124.063 73.0139 124.812 72.879 125.431H72.8565C72.2515 125.598 71.6643 125.824 71.1032 126.104L70.6941 126.32L70.5547 126.387L70.6806 126.302C70.7705 126.248 70.9009 126.167 71.0852 126.068C71.6439 125.773 72.2314 125.536 72.8385 125.36L72.8116 125.387L73.2611 123.121V123.081H73.3061L77.1409 123H77.2488V123.054C77.4197 123.749 77.604 124.485 77.8063 125.297L77.7523 125.239C78.571 125.432 79.3602 125.734 80.0991 126.136H80.0137L81.9468 124.862L82.0098 124.821L82.0592 124.871L84.8241 127.526L84.8825 127.58L84.8421 127.648L83.6417 129.626V129.518C84.0798 130.242 84.4199 131.02 84.6532 131.833L84.5723 131.757L86.8427 132.228H86.9281V132.318C86.9506 133.56 86.9775 134.834 87 136.144V136.234H86.9146L84.6667 136.786L84.7521 136.705C84.5502 137.526 84.2387 138.317 83.826 139.056V139.011C84.2486 139.648 84.6727 140.292 85.0983 140.944L85.1478 141.02L85.0848 141.088L82.4234 143.842L82.3559 143.91L82.275 143.86L80.2969 142.662H80.3958C79.6703 143.098 78.8903 143.436 78.076 143.667L78.1615 143.578C77.9996 144.354 77.8378 145.125 77.7119 145.843V145.933H77.6175L73.7871 146H73.6523V145.91L73.1038 143.667L73.1847 143.752C72.3638 143.548 71.5733 143.238 70.8334 142.828H70.9548L69.0127 144.093L68.9408 144.138L68.8778 144.08L66.122 141.42L66.0635 141.361L66.104 141.29L67.3088 139.316V139.419C66.8727 138.695 66.5355 137.917 66.3063 137.104L66.3782 137.171L64.1304 136.696H64.0584V136.62C64.0584 135.274 64.018 134 64 132.798V132.73H64.0674L66.3153 132.187L66.2568 132.241C66.4617 131.426 66.7747 130.641 67.1874 129.909V129.976L65.9286 128.038L65.9017 127.997L65.9331 127.966C67.0256 126.849 67.9292 125.929 68.6306 125.225H68.6575L70.1141 126.122L70.4918 126.36L70.5817 126.414Z" fill="#E0E0E0"/>
<path d="M80.346 113.339C80.7985 113.255 81.2601 113.231 81.719 113.268L82.4145 112.188L84.4237 112.916L84.2643 114.201C84.6485 114.467 84.9951 114.784 85.2948 115.142L86.5573 114.867L87.4637 116.802L86.4424 117.595C86.5249 118.055 86.5464 118.523 86.5064 118.988L87.5861 119.683L86.8565 121.696L85.5733 121.533C85.3078 121.918 84.9911 122.265 84.6319 122.564L84.9071 123.826L82.9726 124.732L82.2079 123.718C81.7556 123.8 81.2945 123.823 80.8364 123.785L80.1408 124.865L78.1277 124.135L78.2911 122.852C77.9076 122.585 77.5611 122.269 77.2605 121.911L75.998 122.186L75.0892 120.246L76.1105 119.453C76.0277 119 76.005 118.539 76.0429 118.081L74.9633 117.386L75.6913 115.376L76.976 115.536C77.2437 115.153 77.5601 114.806 77.9174 114.505L77.6422 113.243L79.5806 112.338L80.3743 113.359L80.346 113.339ZM80.3926 116.407C79.981 116.6 79.6357 116.91 79.4005 117.298C79.1652 117.687 79.0505 118.137 79.0709 118.591C79.0913 119.044 79.2459 119.482 79.5151 119.848C79.7843 120.214 80.1561 120.492 80.5833 120.646C81.0105 120.801 81.4739 120.825 81.915 120.716C82.356 120.607 82.7548 120.37 83.061 120.034C83.3671 119.699 83.5667 119.28 83.6346 118.831C83.7025 118.381 83.6356 117.922 83.4424 117.511C83.1827 116.963 82.7168 116.539 82.1464 116.333C81.5759 116.126 80.947 116.154 80.3965 116.409L80.3926 116.407Z" fill="#FBE2C1"/>
<path d="M80.3965 116.409C80.5589 116.314 80.7362 116.246 80.921 116.21C81.4371 116.099 81.9759 116.17 82.4452 116.412C82.7958 116.59 83.0951 116.854 83.3151 117.18C83.535 117.506 83.6682 117.882 83.7022 118.274C83.7467 118.738 83.6511 119.205 83.4276 119.613C83.1871 120.054 82.8134 120.407 82.3599 120.623C81.9052 120.834 81.3947 120.895 80.9029 120.796C80.6704 120.748 80.4471 120.662 80.2415 120.544C80.0409 120.438 79.8588 120.3 79.7023 120.135C79.4703 119.905 79.2899 119.627 79.1729 119.321C79.0559 119.015 79.005 118.688 79.0236 118.362C79.0423 118.035 79.13 117.716 79.2809 117.425C79.4319 117.135 79.6427 116.879 79.8995 116.676C80.0467 116.555 80.2137 116.459 80.3932 116.394C80.3932 116.394 80.2101 116.486 79.9296 116.715C79.5414 117.047 79.2741 117.498 79.1695 117.998C79.0964 118.34 79.1055 118.694 79.1961 119.031C79.2992 119.418 79.5036 119.77 79.7882 120.052C79.938 120.205 80.1115 120.334 80.3021 120.432C80.4968 120.545 80.7081 120.625 80.9282 120.672C81.3935 120.764 81.8762 120.705 82.3058 120.504C82.7354 120.303 83.0895 119.97 83.3162 119.553C83.4292 119.358 83.51 119.147 83.5557 118.927C83.5989 118.716 83.6106 118.5 83.5903 118.285C83.5576 117.887 83.4185 117.506 83.1875 117.18C82.985 116.896 82.7197 116.663 82.4123 116.498C81.9608 116.257 81.4416 116.174 80.9373 116.261C80.5843 116.328 80.3998 116.424 80.3965 116.409Z" fill="#F5F5F5"/>
<path d="M80.3459 113.339L80.2929 113.279L80.1367 113.089L79.5307 112.328L79.5541 112.337L77.6229 113.258L77.6379 113.219L77.9185 114.479L77.911 114.498C77.5574 114.798 77.2445 115.143 76.9805 115.524L76.9715 115.547L76.948 115.539L75.6633 115.379L75.715 115.35C75.474 115.98 75.2416 116.658 74.9893 117.364L74.9682 117.302L76.0494 117.994L76.0806 118.006L76.0702 118.033C76.031 118.491 76.0538 118.953 76.1377 119.405L76.1272 119.432L76.1168 119.459C75.8023 119.707 75.468 119.983 75.0955 120.253L75.121 120.187L76.0312 122.123L75.9608 122.096L77.2248 121.817L77.2597 121.808L77.2835 121.839C77.5803 122.192 77.9225 122.504 78.3014 122.767L78.3366 122.78L78.3231 122.815C78.2725 123.218 78.2156 123.671 78.1637 124.1L78.123 124.031L80.1322 124.759L80.0555 124.783C80.276 124.441 80.5192 124.063 80.751 123.703L80.7645 123.668L80.7997 123.682C81.2572 123.724 81.7182 123.703 82.1698 123.618L82.2085 123.61L82.2324 123.642L83.026 124.663L82.9477 124.633L84.8877 123.725L84.8577 123.803L84.5825 122.54L84.5945 122.509L84.6065 122.478C84.9587 122.18 85.2705 121.838 85.534 121.46L85.5475 121.425L85.5827 121.438L86.8675 121.598L86.8019 121.64C87.0624 120.959 87.3051 120.289 87.53 119.631L87.5575 119.699L86.4778 119.004L86.4426 118.99L86.4546 118.959C86.4961 118.502 86.4746 118.041 86.391 117.589L86.4014 117.562L86.4119 117.534L87.4356 116.746L87.4116 116.809L86.5083 114.866L86.567 114.889L85.3059 115.16L85.2824 115.151L85.259 115.142C84.9634 114.785 84.6207 114.47 84.2402 114.205L84.2167 114.196L84.2257 114.173C84.2832 113.706 84.3398 113.288 84.389 112.89L84.4138 112.93L82.4076 112.195L82.4424 112.185C82.1611 112.616 81.9307 112.972 81.7391 113.262C81.391 113.229 81.0405 113.231 80.6926 113.266L80.434 113.297L80.3501 113.305L80.4346 113.283C80.4881 113.273 80.575 113.256 80.6884 113.242C81.0393 113.198 81.3938 113.19 81.7462 113.22C81.9355 112.925 82.1619 112.567 82.4339 112.137L82.4429 112.114L82.4664 112.123L84.4786 112.843L84.5099 112.855L84.4994 112.882C84.4502 113.281 84.4014 113.702 84.3439 114.169L84.3231 114.129C84.7112 114.397 85.0617 114.715 85.3653 115.075L85.3184 115.057L86.5809 114.782L86.6212 114.77L86.6381 114.808L87.5484 116.744L87.5653 116.782L87.5518 116.817L86.5345 117.613L86.5554 117.558C86.64 118.023 86.6609 118.497 86.6174 118.968L86.5932 118.913L87.6744 119.605L87.7174 119.621L87.7009 119.665C87.4525 120.314 87.2255 120.99 86.9753 121.679L86.9573 121.726L86.9104 121.708L85.6257 121.549L85.6852 121.522C85.4143 121.91 85.0946 122.261 84.7339 122.567L84.7579 122.504L85.0331 123.767L85.0455 123.816L84.9968 123.838L83.0623 124.744L83.0136 124.766L82.9795 124.726L82.1898 123.706L82.2524 123.73C81.7873 123.814 81.3132 123.835 80.8427 123.792L80.9037 123.762C80.6679 124.12 80.4256 124.508 80.2081 124.842L80.1902 124.888L80.1432 124.871L78.1301 124.141L78.0832 124.123L78.1011 124.076L78.2644 122.793L78.291 122.852C77.904 122.583 77.5541 122.263 77.2503 121.903L77.309 121.925L76.0464 122.2L75.9983 122.209L75.979 122.165L75.0032 120.272L74.9839 120.228L75.0208 120.202C75.3738 119.924 75.7237 119.655 76.0421 119.409L76.0211 119.463C75.9386 118.999 75.9173 118.527 75.9577 118.057L75.9834 118.108L74.9052 117.408L74.8661 117.393L74.881 117.354C75.1489 116.654 75.4034 115.988 75.613 115.346L75.6265 115.311L75.6617 115.325L76.9449 115.488L76.9016 115.507C77.1724 115.122 77.4925 114.774 77.8538 114.472L77.8389 114.511L77.5637 113.249L77.5726 113.225L79.5159 112.331L80.1175 113.104C80.1802 113.186 80.2263 113.253 80.2667 113.3L80.3459 113.339Z" fill="#F5F5F5"/>
<path d="M157.385 99.8401C157.385 99.8401 157.385 100.155 157.385 100.785C157.385 101.416 157.385 102.373 157.385 103.585C157.385 106.081 157.385 109.729 157.385 114.419C157.385 123.872 157.458 137.505 157.506 154.314V154.544H157.276H142.443L142.673 154.399C140.964 157.937 139.134 161.755 137.232 165.681L137.014 166.13L136.759 165.706L129.779 154.447L130.009 154.568H60.9319H54V154.253C54 135.021 54 116.685 54 99.7795V99.4886H54.2909L128.543 99.6098L149.811 99.7068H155.446H156.888H155.41H149.738L128.494 99.8037L54.3272 99.9249L54.6181 99.6341C54.6181 116.503 54.6181 134.875 54.6181 154.108L54.303 153.793H60.9925H130.069H130.227L130.312 153.926C132.736 157.853 135.159 161.67 137.28 165.221H136.808C138.71 161.294 140.552 157.477 142.273 153.938L142.346 153.793H142.503H157.337L157.094 154.035C157.094 137.287 157.191 123.738 157.228 114.274C157.228 109.571 157.228 105.912 157.228 103.367C157.228 102.155 157.228 101.185 157.228 100.531C157.228 99.8765 157.385 99.8401 157.385 99.8401Z" fill="#263238"/>
<path d="M143.012 118.964C143.012 119.061 132.505 119.145 119.55 119.145C106.595 119.145 96.0884 119.061 96.0884 118.964C96.0884 118.867 106.595 118.77 119.55 118.77C132.505 118.77 143.012 118.854 143.012 118.964Z" fill="#263238"/>
<path d="M143.012 124.575C143.012 124.684 132.505 124.769 119.55 124.769C106.595 124.769 96.0884 124.684 96.0884 124.575C96.0884 124.466 106.595 124.393 119.55 124.393C132.505 124.393 143.012 124.478 143.012 124.575Z" fill="#263238"/>
<path d="M143.012 130.198C143.012 130.295 132.505 130.379 119.55 130.379C106.595 130.379 96.0884 130.295 96.0884 130.198C96.0884 130.101 106.595 130.004 119.55 130.004C132.505 130.004 143.012 130.089 143.012 130.198Z" fill="#263238"/>
<path d="M124.143 137.299C124.143 137.408 117.866 137.493 110.122 137.493C102.378 137.493 96.0884 137.408 96.0884 137.299C96.0884 137.19 102.366 137.105 110.122 137.105C117.878 137.105 124.143 137.19 124.143 137.299Z" fill="#263238"/>
<path d="M137.874 278.022L111.613 292.771L87.4963 298.455C87.0848 298.552 86.6978 298.733 86.359 298.986C86.0202 299.239 85.737 299.559 85.5269 299.926C85.3167 300.293 85.1841 300.699 85.1372 301.119C85.0903 301.539 85.1302 301.965 85.2543 302.369C85.4009 302.84 85.6576 303.269 86.0032 303.621C86.3489 303.973 86.7735 304.238 87.2418 304.393C93.3012 306.368 115.563 313.058 117.03 312.391C119.357 311.337 146.115 298.648 146.115 298.648L137.874 278.022Z" fill="#01ABFF"/>
<g opacity="0.6">
<path opacity="0.6" d="M85.2542 302.369L119.187 311.422L118.072 312.015C117.093 312.515 115.975 312.673 114.897 312.464C112.012 311.834 104.099 309.907 87.2538 304.465C86.7695 304.31 86.3313 304.038 85.9781 303.672C85.6249 303.306 85.3679 302.858 85.23 302.369H85.2542Z" fill="white"/>
</g>
<g opacity="0.6">
<path opacity="0.6" d="M124.883 301.399C124.466 301.191 123.985 301.146 123.537 301.274C123.088 301.402 122.704 301.693 122.459 302.09C122.23 302.501 122.172 302.985 122.297 303.438C122.421 303.892 122.719 304.278 123.126 304.514C123.565 304.72 124.064 304.757 124.529 304.619C124.994 304.48 125.392 304.175 125.646 303.763C125.834 303.313 125.839 302.809 125.661 302.356C125.482 301.903 125.133 301.538 124.689 301.339" fill="white"/>
</g>
<path d="M108.595 301.036C108.684 299.801 108.684 298.562 108.595 297.328C108.316 296.089 107.944 294.874 107.48 293.692C108.42 294.685 108.996 295.966 109.116 297.328C109.403 298.586 109.218 299.906 108.595 301.036Z" fill="#263238"/>
<path d="M114.849 299.533C114.655 299.533 114.485 297.764 113.54 295.813C112.595 293.861 111.322 292.601 111.455 292.456C112.611 293.216 113.537 294.276 114.135 295.523C114.733 296.77 114.979 298.156 114.849 299.533Z" fill="#263238"/>
<path d="M120.253 297.012C120.032 295.658 119.624 294.341 119.041 293.098C118.27 291.954 117.34 290.926 116.278 290.044C116.278 289.971 116.799 290.044 117.49 290.505C118.369 291.082 119.1 291.858 119.623 292.771C120.155 293.675 120.463 294.693 120.52 295.74C120.484 296.54 120.338 297.025 120.253 297.012Z" fill="#263238"/>
<path d="M120.338 291.329C120.338 291.329 120.641 291.05 121.32 290.759C122.288 290.359 123.326 290.153 124.374 290.153C125.145 290.089 125.916 290.281 126.568 290.699C126.77 290.853 126.919 291.067 126.993 291.311C127.067 291.554 127.062 291.815 126.98 292.056C126.792 292.519 126.444 292.897 125.998 293.122C125.072 293.537 124.031 293.616 123.054 293.346C122.076 293.076 121.223 292.474 120.641 291.644C120.084 290.812 119.787 289.833 119.787 288.832C119.787 287.831 120.084 286.853 120.641 286.021C120.778 285.815 120.957 285.641 121.165 285.509C121.374 285.377 121.609 285.292 121.853 285.257C122.118 285.243 122.379 285.317 122.598 285.465C122.817 285.614 122.981 285.83 123.065 286.081C123.259 286.812 123.259 287.581 123.065 288.311C122.872 289.338 122.498 290.323 121.962 291.22C121.575 291.85 121.296 292.141 121.259 292.116C121.894 290.897 122.343 289.59 122.593 288.238C122.756 287.598 122.756 286.927 122.593 286.287C122.55 286.154 122.466 286.039 122.353 285.958C122.239 285.877 122.102 285.835 121.962 285.839C121.799 285.87 121.643 285.934 121.506 286.028C121.368 286.122 121.251 286.243 121.163 286.384C120.704 287.109 120.46 287.95 120.46 288.808C120.46 289.666 120.704 290.507 121.163 291.232C121.657 291.95 122.384 292.475 123.22 292.72C124.057 292.965 124.952 292.915 125.756 292.577C126.067 292.435 126.317 292.186 126.458 291.874C126.508 291.741 126.515 291.596 126.478 291.459C126.441 291.322 126.362 291.2 126.252 291.111C125.701 290.768 125.059 290.599 124.41 290.626C123.022 290.615 121.643 290.853 120.338 291.329Z" fill="#263238"/>
<path d="M152.102 284.712L169.722 300.188C169.722 300.188 159.906 323.286 162.887 326.461L194.105 293.377L167.65 268.146L152.102 284.712Z" fill="#01ABFF"/>
<path d="M177.938 288.602C178.336 288.374 178.803 288.302 179.25 288.398C179.698 288.494 180.094 288.752 180.362 289.123C180.613 289.512 180.701 289.983 180.608 290.436C180.515 290.889 180.248 291.288 179.865 291.547C179.446 291.79 178.952 291.868 178.479 291.765C178.005 291.661 177.588 291.385 177.308 290.989C177.105 290.561 177.073 290.071 177.22 289.621C177.366 289.17 177.68 288.792 178.096 288.566" fill="#E0E0E0"/>
<g opacity="0.6">
<path opacity="0.6" d="M194.105 293.377L191.342 290.953L162.439 323.577C162.439 323.577 161.7 325.661 162.887 326.473L194.105 293.377Z" fill="white"/>
</g>
<path d="M169.044 300.563C169.213 300.709 170.049 299.969 171.322 299.666C172.594 299.363 173.661 299.582 173.746 299.363C173.831 299.145 172.655 298.515 171.128 298.915C169.601 299.315 168.862 300.406 169.044 300.563Z" fill="#263238"/>
<path d="M167.202 305.387C167.323 305.568 168.268 305.132 169.468 305.229C170.668 305.326 171.54 305.847 171.686 305.677C171.831 305.508 171.007 304.538 169.517 304.466C168.026 304.393 167.056 305.253 167.202 305.387Z" fill="#263238"/>
<path d="M169.504 311.313C169.674 311.191 169.08 310.21 167.796 309.786C166.511 309.361 165.457 309.786 165.529 309.992C165.602 310.198 166.511 310.161 167.553 310.525C168.595 310.888 169.383 311.422 169.504 311.313Z" fill="#263238"/>
<path d="M165.42 296.588C165.638 296.661 166.111 295.704 167.032 294.855C167.953 294.007 168.91 293.559 168.862 293.34C168.813 293.122 167.577 293.268 166.498 294.286C165.42 295.304 165.214 296.552 165.42 296.588Z" fill="#263238"/>
<path d="M161.93 293.401C161.99 293.401 162.693 292.928 163.481 291.741C163.92 291.038 164.274 290.285 164.535 289.499C164.7 289.032 164.83 288.554 164.923 288.069C164.999 287.789 165.027 287.498 165.008 287.208C164.995 286.994 164.91 286.79 164.767 286.63C164.624 286.469 164.432 286.361 164.22 286.324C164.031 286.296 163.838 286.313 163.657 286.374C163.476 286.435 163.312 286.538 163.178 286.675C162.986 286.89 162.819 287.126 162.681 287.378C162.437 287.816 162.231 288.275 162.063 288.747C161.797 289.529 161.65 290.346 161.627 291.171C161.535 291.944 161.683 292.727 162.051 293.413C162.172 293.413 162.051 292.541 162.172 291.208C162.261 290.431 162.448 289.67 162.73 288.941C162.903 288.524 163.105 288.119 163.335 287.729C163.578 287.293 163.857 286.99 164.099 287.051C164.341 287.111 164.208 287.051 164.244 287.257C164.277 287.47 164.277 287.686 164.244 287.899C164.164 288.354 164.055 288.803 163.917 289.244C163.688 289.998 163.387 290.728 163.02 291.426C162.378 292.662 161.833 293.316 161.93 293.401Z" fill="#263238"/>
<path d="M162.354 293.413C162.439 293.413 162.16 292.504 161.143 291.462C160.555 290.857 159.871 290.353 159.119 289.971C158.667 289.754 158.197 289.58 157.713 289.45C157.411 289.331 157.083 289.292 156.762 289.339C156.441 289.386 156.138 289.516 155.883 289.717C155.744 289.865 155.652 290.051 155.618 290.251C155.583 290.452 155.608 290.658 155.689 290.844C155.8 291.112 155.951 291.361 156.137 291.583C156.451 291.992 156.827 292.348 157.252 292.638C157.97 293.142 158.804 293.455 159.676 293.546C160.059 293.636 160.455 293.648 160.843 293.581C161.23 293.515 161.6 293.371 161.93 293.159C161.209 293.147 160.489 293.099 159.773 293.013C159.026 292.851 158.323 292.528 157.713 292.068C157.362 291.804 157.052 291.489 156.792 291.135C156.489 290.747 156.331 290.347 156.489 290.25C156.655 290.161 156.839 290.109 157.027 290.098C157.216 290.088 157.405 290.119 157.58 290.19C158.02 290.295 158.451 290.441 158.864 290.626C159.569 290.935 160.226 291.343 160.815 291.838C161.809 292.734 162.245 293.474 162.354 293.413Z" fill="#263238"/>
<path d="M152.101 236.649L132.372 217.138L172.267 143.868C175.93 139.673 180.572 136.447 185.779 134.476L198.177 129.761L229.249 127.192L248.373 132.731C253.899 134.9 260.867 138.887 260.177 144.789L253.342 194.609L249.973 257.348L166.353 236.746L184.907 212.726L178.217 184.163L152.101 236.649Z" fill="#01ABFF"/>
<path d="M182.786 226.566L225.917 209.321C229.783 207.758 231.079 203.48 231.394 199.323L234.909 153.272C234.909 153.272 234.497 133.676 246.737 132.73L253.693 135.469C262.685 140.244 264.915 153.344 263.691 163.451C261.958 177.824 261.267 198.148 259.28 210.618C257.692 220.822 251.56 228.893 241.865 232.432L187.561 244.066L182.786 226.566Z" fill="#01ABFF"/>
<path d="M184.41 228.093H178.593C178.593 228.093 165.468 223.342 162.838 223.803C160.415 224.203 151.507 230.117 149.762 231.292C149.568 231.42 149.419 231.607 149.338 231.826C149.169 232.289 149.186 232.8 149.385 233.251C149.583 233.703 149.949 234.06 150.405 234.249L150.586 234.322L150.501 234.589C150.401 234.935 150.356 235.295 150.368 235.655C150.376 235.94 150.478 236.213 150.658 236.434C150.839 236.654 151.087 236.808 151.364 236.872C151.642 236.935 151.932 236.905 152.191 236.786C152.449 236.667 152.661 236.465 152.792 236.213L152.453 236.806C152.32 237.051 152.257 237.328 152.271 237.606V238.139C152.283 238.435 152.386 238.719 152.566 238.954C152.746 239.188 152.994 239.361 153.277 239.448C153.543 239.536 153.828 239.544 154.099 239.473C154.37 239.403 154.615 239.255 154.804 239.048C155.931 237.836 158.367 235.316 160.015 235.049C161.8 234.835 163.598 234.742 165.395 234.77C165.768 234.777 166.129 234.897 166.432 235.113C166.735 235.33 166.965 235.633 167.092 235.982C166.11 236.043 159.3 239.618 156.888 240.83C156.513 241.014 156.189 241.287 155.944 241.625C155.699 241.963 155.541 242.355 155.482 242.769C155.397 243.532 155.773 244.32 157.264 243.981C160.336 243.065 163.337 241.927 166.244 240.575C166.244 240.575 169.225 239.727 171.091 241.084C173.806 242.999 175.042 243.702 177.369 242.938C178.785 242.464 180.143 241.829 181.416 241.048L186.009 240.6C186.009 240.6 190.348 229.753 184.41 228.093Z" fill="#916B5C"/>
<path d="M167.08 230.299C167.08 230.359 166.147 230.056 164.657 229.959C162.655 229.839 160.653 230.179 158.803 230.953C156.968 231.75 155.342 232.961 154.053 234.492C153.059 235.704 152.635 236.528 152.586 236.503C152.663 236.292 152.761 236.089 152.877 235.898C153.178 235.365 153.522 234.858 153.907 234.383C155.178 232.783 156.827 231.525 158.706 230.723C160.585 229.921 162.635 229.6 164.669 229.79C165.278 229.842 165.882 229.943 166.475 230.093C166.684 230.138 166.887 230.207 167.08 230.299Z" fill="#6D5046"/>
<path d="M165.747 227.111C164.91 226.868 164.048 226.722 163.178 226.675C161.067 226.662 158.996 227.246 157.203 228.36C155.417 229.5 153.787 230.869 152.356 232.432L151.047 233.825C150.896 234.009 150.725 234.176 150.538 234.322C150.672 234.128 150.818 233.941 150.974 233.765C151.265 233.413 151.689 232.916 152.186 232.31C153.589 230.695 155.223 229.294 157.034 228.154C158.847 227.018 160.954 226.441 163.093 226.493C163.745 226.521 164.389 226.639 165.008 226.845C165.226 226.905 165.384 226.99 165.493 227.027L165.747 227.111Z" fill="#6D5046"/>
<path d="M238.363 160.289C238.285 160.635 238.236 160.988 238.218 161.343L237.927 164.385C237.696 167.075 237.369 170.88 236.981 175.546C236.594 180.212 236.145 185.896 235.648 192.125C235.527 193.676 235.394 195.275 235.273 196.972C235.187 198.627 234.993 200.275 234.691 201.904C234.393 203.532 233.617 205.034 232.461 206.219C231.243 207.36 229.842 208.29 228.317 208.97C215.931 214.702 204.515 219.44 196.226 222.761L186.349 226.566L183.671 227.62C183.353 227.732 183.045 227.87 182.75 228.032C183.078 227.972 183.399 227.879 183.707 227.754L186.422 226.808C188.773 225.972 192.166 224.724 196.335 223.173C204.673 219.961 216.101 215.296 228.535 209.539C230.118 208.828 231.572 207.857 232.837 206.667C234.088 205.395 234.932 203.779 235.261 202.026C235.555 200.367 235.745 198.691 235.83 197.008C235.951 195.384 236.073 193.785 236.182 192.222C236.642 185.992 237.042 180.369 237.393 175.631C237.745 170.892 237.963 167.148 238.145 164.445C238.218 163.233 238.278 162.155 238.327 161.403C238.362 161.033 238.374 160.661 238.363 160.289Z" fill="#263238"/>
<path d="M245.343 217.562C245.212 216.658 244.912 215.786 244.458 214.993C243.476 213.031 242.112 211.285 240.448 209.855C238.783 208.426 236.851 207.342 234.763 206.667C233.911 206.348 233.007 206.192 232.097 206.207C232.097 206.316 233.091 206.522 234.618 207.103C236.6 207.871 238.439 208.964 240.059 210.339C241.671 211.716 243.04 213.355 244.107 215.187C244.882 216.629 245.234 217.598 245.343 217.562Z" fill="#263238"/>
<g opacity="0.3">
<path opacity="0.3" d="M194.457 222.518C199.595 219.61 204.612 217.38 209.981 214.944C215.349 212.508 220.621 209.369 224.135 204.631C230.764 195.699 230.001 182.817 236.787 173.983C236.351 179.905 235.911 185.835 235.466 191.773C235.054 197.202 235.891 202.583 232.388 206.316C229.443 209.43 223.687 211.817 219.615 213.163C211.435 215.853 202.649 219.864 194.457 222.567" fill="black"/>
</g>
<path d="M98.5123 220.131C98.5123 220.131 88.0296 223.864 87.9811 235.619C87.8962 258.136 133.463 282.955 133.463 282.955L194.117 242.769L197.91 241.23C197.91 241.23 116.06 210.472 98.5123 220.131Z" fill="#263238"/>
<path d="M163.396 263.068C162.84 262.75 162.309 262.389 161.809 261.989C160.815 261.274 159.385 260.196 157.664 258.863C154.198 256.172 149.472 252.367 144.334 247.956C139.195 243.544 134.784 239.473 131.609 236.479C130.009 234.964 128.749 233.716 127.876 232.844C127.408 232.414 126.974 231.948 126.58 231.45C127.105 231.807 127.596 232.213 128.046 232.662L131.948 236.176C135.196 239.121 139.716 243.157 144.794 247.519C149.872 251.882 154.489 255.724 157.943 258.487C159.567 259.832 160.924 260.911 161.966 261.771C162.479 262.162 162.957 262.596 163.396 263.068Z" fill="#455A64"/>
<path d="M115.624 228.541C117.585 228.23 119.593 228.413 121.465 229.075C123.4 229.531 125.189 230.469 126.664 231.801C126.567 231.959 124.35 230.589 121.296 229.668C118.242 228.747 115.624 228.735 115.624 228.541Z" fill="#455A64"/>
<path d="M120.908 224.991C122.374 225.485 123.647 226.431 124.543 227.693C125.581 228.826 126.241 230.253 126.434 231.777C126.252 231.838 125.586 229.947 124.01 228.081C122.435 226.215 120.75 225.148 120.908 224.991Z" fill="#455A64"/>
<path d="M102.839 188.15L120.096 234.625C120.576 235.92 121.446 237.035 122.585 237.816C123.724 238.597 125.077 239.007 126.458 238.988L221.433 237.776V230.505L186.192 231.789L171.225 185.399C170.979 184.63 170.493 183.959 169.839 183.486C169.185 183.013 168.397 182.762 167.589 182.769L106.365 182.975C105.748 182.976 105.141 183.127 104.596 183.416C104.051 183.705 103.584 184.122 103.237 184.632C102.889 185.142 102.672 185.729 102.602 186.342C102.533 186.955 102.614 187.575 102.839 188.15Z" fill="#FDEBD4"/>
<path d="M102.839 188.15V188.004C102.839 187.907 102.754 187.762 102.717 187.568C102.584 186.994 102.584 186.397 102.717 185.823C102.968 184.889 103.566 184.087 104.39 183.581C104.908 183.257 105.5 183.07 106.111 183.036C106.765 183.036 107.48 183.036 108.219 183.036H133.778H151.689H167.032C167.914 182.941 168.803 183.137 169.565 183.593C170.321 184.065 170.877 184.798 171.128 185.653C175.648 199.687 180.677 215.284 186.046 231.971V232.068H186.155L221.493 230.674L221.336 230.529V237.8L221.493 237.655L161.772 238.455L135.814 238.806L129.827 238.891H126.919C125.98 238.943 125.041 238.807 124.156 238.491C123.304 238.182 122.526 237.699 121.871 237.073C121.215 236.447 120.698 235.692 120.35 234.855L118.484 229.85L107.092 199.299L103.941 191.022C103.226 189.131 102.839 188.15 102.839 188.15C102.839 188.15 103.19 189.156 103.881 191.046L106.935 199.347L118.229 229.923L120.084 234.88C120.44 235.75 120.973 236.538 121.649 237.193C122.325 237.848 123.129 238.356 124.01 238.685C124.922 239.013 125.89 239.157 126.858 239.109H129.767L135.753 239.036L161.712 238.709L221.433 237.934H221.578V230.408H221.421L186.179 231.704L186.337 231.801C180.944 215.126 175.903 199.529 171.382 185.508C171.103 184.595 170.505 183.812 169.698 183.302C168.894 182.828 167.961 182.62 167.032 182.708H161.748H151.689L133.778 182.854L108.219 182.975C107.48 182.975 106.777 182.975 106.111 182.975C105.323 183.041 104.576 183.349 103.971 183.857C103.365 184.365 102.932 185.047 102.73 185.811C102.588 186.392 102.588 186.999 102.73 187.58C102.75 187.773 102.787 187.963 102.839 188.15Z" fill="#263238"/>
<path d="M144.951 205.722C144.216 205.35 143.388 205.199 142.569 205.287C141.75 205.375 140.973 205.699 140.334 206.219C139.792 206.731 139.417 207.395 139.257 208.123C139.098 208.851 139.16 209.611 139.437 210.303C139.732 210.989 140.212 211.58 140.825 212.009C141.437 212.437 142.157 212.685 142.903 212.727C143.69 212.771 144.47 212.559 145.126 212.122C145.781 211.685 146.277 211.046 146.539 210.303C146.796 209.467 146.778 208.571 146.488 207.747C146.197 206.922 145.65 206.212 144.927 205.722" fill="white"/>
<path d="M123.247 285.475C123.247 285.475 208.829 230.662 212.61 228.517C215.822 226.687 224.426 221.391 232.897 223.73C241.368 226.069 248.979 233.68 252.784 244.781C254.953 251.131 255.983 261.965 256.42 270.085C257.001 279.78 255.729 287.875 249.379 295.243C246.596 298.717 242.898 301.344 238.702 302.829C237.805 303.108 236.884 303.351 235.927 303.557C219.724 307.059 201.34 301.387 192.239 287.536L190.239 284.494C190.239 284.494 134.19 305.096 133.281 304.793L123.247 285.475Z" fill="#263238"/>
<path d="M229.25 270.012L228.777 270.218L227.371 270.775L221.942 272.872L201.752 280.47C193.184 283.67 182.908 287.475 171.383 291.668C159.858 295.861 147.085 300.406 133.451 305.072L133.197 305.156L133.075 304.926C130.93 300.842 128.676 296.516 126.386 292.141C125.174 289.911 124.047 287.693 122.968 285.621L122.835 285.366L123.077 285.221L188.434 243.726L208.066 231.329L213.398 227.996L214.792 227.148C215.107 226.954 215.277 226.869 215.277 226.869C215.277 226.869 215.131 226.99 214.828 227.196L213.459 228.093L208.163 231.547L188.64 244.09L123.405 285.742L123.514 285.342C124.604 287.402 125.756 289.62 126.931 291.85L133.621 304.647L133.245 304.49C146.879 299.885 159.664 295.316 171.201 291.159L201.607 280.083L221.857 272.654L227.335 270.666L228.753 270.169C228.915 270.106 229.081 270.054 229.25 270.012Z" fill="#455A64"/>
<path d="M183.017 74.5726C183.017 74.5726 177.878 96.6409 177.878 112.141V117.303C177.878 117.303 191.136 127.604 201.995 127.907L210.345 105.294L183.017 74.5726Z" fill="#4C1E08"/>
<path d="M240.811 86.1338C237.987 75.542 236.642 63.1082 227.541 56.4792C220.791 51.5348 213.241 50.335 204.891 50.9531C200.782 51.2681 196.189 53.3768 192.675 55.4612C187.828 58.4061 185.949 64.114 183.743 69.3251C179.32 79.7472 180.374 93.6353 183.743 97.3922L227.371 118.673C235.794 113.934 241.102 111.983 242.107 100.495C242.507 95.6687 242.068 90.8101 240.811 86.1338Z" fill="#4C1E08"/>
<path d="M226.887 64.9867L199.68 57.8972C190.93 56.9156 185.041 67.6528 184.423 76.4268C183.744 86.1824 183.296 98.1072 184.423 105.391C186.64 120.042 197.85 121.981 197.85 121.981C197.85 121.981 197.85 122.199 197.935 126.55L197.874 133.603C197.796 136.462 198.732 139.257 200.516 141.492C204.673 146.522 211.956 146.982 220.415 143.528C225.263 141.541 228.644 137.736 228.898 132.682L231.565 70.2462C231.598 68.9396 231.133 67.6693 230.264 66.6927C229.396 65.716 228.188 65.1062 226.887 64.9867Z" fill="#FFBE9D"/>
<path d="M187.925 90.6058C187.918 91.095 188.101 91.5679 188.435 91.9249C188.77 92.282 189.229 92.4955 189.718 92.5206C189.957 92.5404 190.198 92.5123 190.426 92.438C190.654 92.3637 190.866 92.2447 191.047 92.0878C191.229 91.931 191.377 91.7395 191.484 91.5246C191.591 91.3096 191.654 91.0756 191.669 90.8361C191.676 90.3481 191.493 89.8766 191.158 89.5214C190.823 89.1663 190.363 88.9554 189.876 88.9334C189.637 88.9102 189.396 88.9355 189.167 89.0077C188.938 89.08 188.726 89.1977 188.544 89.3539C188.362 89.5101 188.213 89.7015 188.106 89.9167C188 90.1318 187.938 90.3662 187.925 90.6058Z" fill="#263238"/>
<path d="M186.919 85.1644C187.149 85.4068 188.579 84.3646 190.554 84.3888C192.53 84.413 194.044 85.431 194.275 85.1765C194.505 84.922 194.141 84.6312 193.499 84.1585C192.629 83.5473 191.593 83.2174 190.53 83.2133C189.478 83.2053 188.451 83.5321 187.597 84.1464C187.016 84.619 186.797 85.0553 186.919 85.1644Z" fill="#263238"/>
<path d="M205.739 90.6057C205.732 91.0969 205.917 91.5715 206.254 91.9289C206.591 92.2863 207.054 92.4984 207.545 92.5204C207.783 92.5402 208.023 92.5121 208.251 92.4377C208.478 92.3632 208.689 92.244 208.869 92.087C209.05 91.93 209.197 91.7384 209.303 91.5236C209.408 91.3087 209.47 91.0749 209.484 90.8359C209.494 90.3471 209.311 89.8738 208.976 89.518C208.64 89.1622 208.179 88.9522 207.69 88.9333C207.452 88.9118 207.211 88.9382 206.983 89.0111C206.755 89.084 206.544 89.2019 206.362 89.3578C206.18 89.5137 206.031 89.7044 205.924 89.9187C205.817 90.1331 205.754 90.3666 205.739 90.6057Z" fill="#263238"/>
<path d="M206.769 84.7523C206.999 85.0068 208.429 83.9646 210.405 83.9767C212.38 83.9888 213.907 85.0189 214.125 84.7765C214.343 84.5341 214.004 84.2191 213.35 83.7464C212.481 83.1337 211.443 82.8075 210.381 82.8133C209.33 82.8017 208.303 83.1242 207.448 83.7343C206.866 84.2069 206.648 84.6917 206.769 84.7523Z" fill="#263238"/>
<path d="M199.328 98.095C198.268 97.7496 197.169 97.5419 196.056 97.4769C195.535 97.4163 195.05 97.3194 194.965 96.968C194.927 96.4338 195.054 95.9008 195.329 95.441C195.814 94.2291 196.335 92.8839 196.88 91.5145C199.037 85.9399 200.6 81.359 200.37 81.2741C200.14 81.1893 198.213 85.6369 196.056 91.2115L194.565 95.1501C194.243 95.7727 194.144 96.4873 194.287 97.174C194.36 97.358 194.474 97.5227 194.621 97.6551C194.768 97.7875 194.944 97.8842 195.135 97.9374C195.419 98.0179 195.712 98.0627 196.007 98.0708C197.109 98.2157 198.224 98.2238 199.328 98.095Z" fill="#263238"/>
<path d="M197.777 121.981C204.666 122.134 211.463 120.372 217.41 116.891C217.41 116.891 212.562 127.095 197.862 125.629L197.777 121.981Z" fill="#EB996E"/>
<path d="M205.982 101.912C205.692 101.467 205.298 101.101 204.833 100.845C204.368 100.589 203.846 100.452 203.316 100.446C202.564 100.383 201.809 100.525 201.131 100.856C200.452 101.186 199.876 101.694 199.462 102.324C199.161 102.908 199.096 103.585 199.28 104.215C199.413 104.542 199.28 104.385 199.559 104.603C200.389 105.472 201.422 106.121 202.564 106.493C203.179 106.655 203.828 106.626 204.426 106.41C205.023 106.193 205.541 105.799 205.909 105.281C206.231 104.781 206.408 104.202 206.421 103.607C206.434 103.013 206.282 102.426 205.982 101.912Z" fill="#EB996E"/>
<path d="M205.63 99.6099C205.303 99.6099 205.267 101.779 203.376 103.306C201.486 104.833 199.147 104.518 199.135 104.882C199.135 105.015 199.644 105.306 200.625 105.342C201.915 105.37 203.173 104.941 204.176 104.13C205.14 103.358 205.765 102.241 205.921 101.016C206.018 100.143 205.739 99.5978 205.63 99.6099Z" fill="#263238"/>
<path d="M205.739 77.4204C205.896 77.9778 207.932 77.8566 210.271 78.2929C212.61 78.7292 214.489 79.5048 214.84 79.02C214.997 78.8019 214.695 78.2566 213.955 77.687C212.97 76.9682 211.832 76.4851 210.63 76.275C209.428 76.0649 208.195 76.1334 207.023 76.4751C206.163 76.7296 205.739 77.1295 205.739 77.4204Z" fill="#263238"/>
<path d="M186.906 79.7351C187.379 80.1108 188.821 79.3715 190.663 79.0201C192.505 78.6686 194.105 78.7171 194.384 78.1839C194.505 77.9294 194.178 77.5173 193.414 77.2144C192.388 76.8542 191.284 76.7766 190.218 76.9899C189.152 77.2031 188.163 77.6992 187.355 78.4262C186.821 79.0322 186.688 79.5412 186.906 79.7351Z" fill="#263238"/>
<path d="M199.946 56.3096C199.92 56.4175 199.9 56.5267 199.886 56.6368L199.946 56.3096Z" fill="#263238"/>
<path d="M221.154 127.107C221.445 123.266 219.773 119.46 220.1 115.619C220.439 111.547 222.948 107.984 223.905 103.997C225.432 97.6346 222.839 90.9935 221.76 84.4979C218.005 84.016 214.556 82.1752 212.065 79.3232C209.024 76.0026 207.121 71.8216 205.255 67.7134C205.5 71.8197 207.021 75.7471 209.605 78.9475C208.787 79.1012 207.944 79.0606 207.144 78.8291C206.344 78.5975 205.61 78.1815 205 77.6144C203.786 76.4757 202.827 75.0919 202.189 73.5546C200.486 69.9029 199.479 65.9657 199.22 61.9448C198.857 67.7066 199.682 73.4813 201.643 78.9111C200.582 78.7485 199.497 78.823 198.468 79.1293C197.954 79.2799 197.411 79.309 196.883 79.2144C196.355 79.1197 195.857 78.9039 195.426 78.5839C194.949 78.0471 194.641 77.3808 194.542 76.6691C193.367 71.8051 193.039 66.7749 193.572 61.7994C192.268 64.4776 191.233 67.2786 190.482 70.1614C189.729 73.0566 189.804 76.1052 190.7 78.9596C190.46 79.1971 190.135 79.3304 189.797 79.3304C189.459 79.3304 189.135 79.1971 188.894 78.9596C188.414 78.4655 188.112 77.8262 188.034 77.1418C187.709 74.6729 187.791 72.1675 188.276 69.7251C186.895 72.367 186.507 75.3846 185.792 78.2688C185.077 81.1531 183.889 84.1343 181.453 85.8552C180.914 82.1299 180.914 78.3463 181.453 74.6211C182.024 71.4904 183.032 68.4553 184.447 65.6047C185.77 62.4392 187.691 59.5588 190.106 57.1216C194.299 53.2072 196.166 54.7705 198.953 56.1157L199.28 56.249C199.274 56.1805 199.274 56.1115 199.28 56.043L199.389 55.4492C206.557 53.5984 214.091 53.7072 221.203 55.7643C227.151 57.8644 232.255 61.8413 235.745 67.0953L235.915 67.3619C242.387 78.1961 247.367 93.7808 243.562 119.242L221.154 127.107Z" fill="#4C1E08"/>
<path d="M180.738 156.677C178.412 163.609 176.073 170.65 175.697 177.946C175.321 185.241 177.163 192.973 182.229 198.245" fill="#01ABFF"/>
<path d="M182.229 198.245C182.229 198.245 182.096 198.172 181.878 197.966C181.571 197.67 181.28 197.359 181.005 197.033C179.971 195.834 179.084 194.516 178.363 193.106C176.081 188.386 175.074 183.151 175.443 177.921C175.843 172.739 176.902 167.628 178.593 162.712C179.211 160.822 179.745 159.307 180.132 158.277C180.306 157.725 180.529 157.189 180.799 156.677C180.702 157.245 180.56 157.804 180.375 158.35C180.011 159.562 179.563 161.04 179.018 162.846C177.439 167.768 176.431 172.854 176.012 178.006C175.67 183.138 176.616 188.275 178.763 192.949C179.737 194.826 180.898 196.601 182.229 198.245Z" fill="#263238"/>
<path d="M263.909 160.289C263.931 160.555 263.931 160.822 263.909 161.088C263.909 161.67 263.849 162.434 263.812 163.367C263.716 165.342 263.534 168.214 263.267 171.729C262.746 178.794 261.764 188.525 260.843 199.275C260.487 204.362 259.676 209.408 258.42 214.35C257.918 216.529 257.17 218.643 256.19 220.652C255.243 222.372 254.014 223.92 252.554 225.233C250.427 227.099 247.91 228.466 245.186 229.232C244.454 229.444 243.709 229.609 242.956 229.729C242.692 229.777 242.425 229.805 242.156 229.814C242.156 229.741 243.235 229.596 245.113 228.99C247.761 228.156 250.196 226.759 252.251 224.894C253.654 223.605 254.83 222.089 255.729 220.41C256.668 218.427 257.383 216.346 257.862 214.205C259.085 209.288 259.891 204.278 260.274 199.226C261.183 188.465 262.237 178.745 262.867 171.692C263.182 168.226 263.437 165.403 263.619 163.355C263.703 162.421 263.776 161.67 263.825 161.076C263.826 160.812 263.855 160.548 263.909 160.289Z" fill="#263238"/>
</svg>
