<svg width="343" height="343" viewBox="0 0 343 343" fill="none" xmlns="http://www.w3.org/2000/svg">
<g opacity="0.3">
<path opacity="0.3" d="M182.268 159.821H182.336L182.268 159.753V159.821Z" fill="#F08F0C"/>
<path opacity="0.3" d="M182.199 159.753V159.821H182.267L182.199 159.753Z" fill="#F08F0C"/>
<path opacity="0.3" d="M182.132 159.753L181.857 159.684L182.063 159.821L182.132 159.753Z" fill="#F08F0C"/>
<path opacity="0.3" d="M163.044 26.7515L172.621 93.5609L172.895 93.4923L182.199 158.998L191.434 93.4923H191.571L200.806 27.7118C188.356 25.7912 175.631 25.4482 163.044 26.7515Z" fill="#F08F0C"/>
<path opacity="0.3" d="M268.875 58.9213C259.16 50.8274 248.42 44.0367 236.995 38.8236L209.768 98.9795L209.905 99.0481L182.404 159.684L268.875 58.9213Z" fill="#F08F0C"/>
<path opacity="0.3" d="M118.372 141.027L181.72 159.616H181.446L182.062 159.821H182.13V159.753L182.199 159.821H182.13L182.199 159.89H182.267L182.541 160.027L182.336 159.89L246.026 178.616L245.957 178.753L316.625 199.605C318.883 189.453 320.046 179.027 320.046 168.601C320.046 165.652 319.977 162.702 319.772 159.753H248.762V159.89L182.404 159.959V159.89L182.678 159.821L182.404 159.959L183.02 159.821H182.746L312.178 121.409C307.937 109.2 301.985 97.6762 294.597 87.0443L182.678 159.753H182.472L182.541 159.616L182.404 159.753L182.472 159.41L182.336 159.684V159.753L182.267 159.821V159.753H182.13V159.684L182.062 159.478L182.13 159.753L181.993 159.684L182.062 159.753H181.857L63.9856 83.6147C55.8447 94.5895 49.3458 106.662 44.6938 119.489L118.372 141.027ZM182.199 159.821L181.993 159.753L182.199 159.821Z" fill="#F08F0C"/>
<path opacity="0.3" d="M138.622 109.268L182.062 159.547L154.493 98.9792L125.761 35.8738C113.652 40.6753 102.227 47.1917 91.8291 55.1484L138.622 109.268Z" fill="#F08F0C"/>
<path opacity="0.3" d="M238.227 195.969L182.473 160.095L225.913 210.305L225.845 210.374L277.495 270.255C287.346 260.584 295.692 249.54 302.396 237.468L238.227 195.969Z" fill="#F08F0C"/>
<path opacity="0.3" d="M182.13 159.821V159.889H182.199L182.13 159.821H182.199H182.13Z" fill="#F08F0C"/>
<path opacity="0.3" d="M182.132 159.89V159.821L181.857 159.958L182.132 159.89Z" fill="#F08F0C"/>
<path opacity="0.3" d="M181.925 160.095L126.376 196.244L126.239 196.038L56.0503 241.584C63.4386 253.93 72.674 265.111 83.346 274.714L147.105 200.634L181.925 160.095Z" fill="#F08F0C"/>
<path opacity="0.3" d="M118.44 178.684L182.062 159.821L36.1428 159.958C36.006 162.771 35.8691 165.583 35.8691 168.464C35.8691 179.713 37.1689 190.962 39.8369 201.937L118.44 178.684Z" fill="#F08F0C"/>
<path opacity="0.3" d="M182.062 160.302L119.466 298.311C132.601 304.278 146.625 308.188 160.991 309.903L182.062 160.302Z" fill="#F08F0C"/>
<path opacity="0.3" d="M182.404 160.302L203.543 308.668C217.567 306.13 231.112 301.466 243.7 294.881L182.404 160.302Z" fill="#F08F0C"/>
<path opacity="0.3" d="M182.13 160.096L182.199 160.576L182.268 160.096L182.199 159.89L182.13 160.096Z" fill="#F08F0C"/>
</g>
<g opacity="0.5">
<path opacity="0.5" d="M136.022 306.474L135.543 306.336L134.175 305.788L131.917 304.964L130.481 304.416C130.002 304.21 129.455 304.004 128.907 303.73L125.145 302.084C123.777 301.466 122.34 300.712 120.767 300.026C119.193 299.34 117.551 298.38 115.841 297.488C114.131 296.596 112.284 295.499 110.368 294.401C108.453 293.304 106.537 292 104.553 290.766C103.527 290.148 102.569 289.394 101.543 288.708C100.517 288.022 99.4909 287.268 98.4648 286.513L95.3179 284.112C94.7706 283.701 94.2233 283.289 93.7444 282.878L92.171 281.574C91.1448 280.683 90.0503 279.86 88.9557 278.899L85.7404 276.018C84.6459 275.058 83.6197 274.029 82.5251 273C81.4306 271.971 80.336 270.942 79.3098 269.845L76.163 266.484L73.0845 262.986C68.8431 258.047 64.9437 252.834 61.3179 247.347C57.7606 241.859 54.6137 236.166 51.8089 230.267C51.1248 228.826 50.5091 227.386 49.825 226.014L48.0463 221.761C47.4306 220.39 46.9517 218.949 46.4044 217.577C45.8572 216.205 45.3783 214.834 44.8994 213.462C44.4205 212.09 44.0101 210.718 43.5996 209.346C43.1892 207.974 42.8471 206.602 42.4366 205.299C42.2314 204.613 42.0946 203.996 41.8894 203.31C41.7525 202.624 41.5473 202.007 41.4105 201.321C41.0684 200.017 40.7948 198.714 40.5212 197.48C40.2475 196.245 40.0423 194.942 39.7686 193.776C39.495 192.609 39.2898 191.375 39.0845 190.209C38.7425 187.808 38.332 185.544 38.1268 183.349C37.9216 181.154 37.5795 179.097 37.5111 177.107C37.4427 175.118 37.169 173.266 37.169 171.551C37.169 169.837 37.0322 168.19 37.0322 166.681C37.0322 165.172 37.0322 163.8 37.1006 162.566C37.1006 161.948 37.1006 161.4 37.1006 160.851C37.1006 160.302 37.169 159.822 37.169 159.342C37.2375 158.382 37.2375 157.627 37.3059 156.941C37.3743 156.255 37.3743 155.844 37.3743 155.501C37.3743 155.158 37.4427 155.021 37.4427 155.021C37.4427 155.021 37.4427 155.158 37.4427 155.501C37.4427 155.844 37.4427 156.324 37.3743 156.941C37.3059 157.559 37.3059 158.382 37.3059 159.342C37.3059 159.822 37.3059 160.302 37.2375 160.851C37.2375 161.4 37.2375 161.948 37.2375 162.566C37.2375 163.8 37.2375 165.172 37.2375 166.681C37.2375 168.19 37.3743 169.768 37.3743 171.551C37.3743 173.335 37.5795 175.118 37.7163 177.107C37.8532 179.097 38.1268 181.154 38.4004 183.349C38.6741 185.544 39.0845 187.808 39.4266 190.14C39.5634 191.306 39.8371 192.541 40.1107 193.707C40.3843 194.873 40.5896 196.176 40.8632 197.411C41.1368 198.646 41.4789 199.949 41.7525 201.252C41.8894 201.869 42.0946 202.555 42.2314 203.241C42.3682 203.927 42.5735 204.545 42.7787 205.231C43.1892 206.534 43.5312 207.906 43.9417 209.277C44.3521 210.649 44.831 212.021 45.3099 213.393C45.7888 214.765 46.2676 216.137 46.8149 217.509C47.3622 218.88 47.8411 220.321 48.4568 221.693L50.2354 225.946L52.2193 230.198C57.7606 241.996 64.9437 252.903 73.4266 262.78L76.505 266.278L79.6519 269.639C80.6781 270.737 81.7726 271.766 82.8672 272.794C83.9618 273.823 84.9879 274.852 86.0825 275.813L89.2978 278.693C90.3923 279.654 91.4185 280.477 92.5131 281.369L94.0865 282.672C94.6338 283.083 95.1127 283.495 95.6599 283.906L98.8068 286.307C99.833 287.062 100.859 287.748 101.885 288.502C102.911 289.257 103.869 289.943 104.895 290.56C106.879 291.863 108.795 293.167 110.71 294.195C112.626 295.224 114.404 296.39 116.115 297.282C117.825 298.174 119.467 299.134 121.04 299.889C122.614 300.643 124.05 301.398 125.418 302.015L129.113 303.661C129.66 303.936 130.207 304.141 130.686 304.347L132.123 304.896L134.312 305.788L135.68 306.336L136.022 306.474Z" fill="#F18F09"/>
<path opacity="0.5" d="M100.038 289.393C104.28 283.22 103.733 274.646 100.244 268.061C96.7547 261.476 90.6662 256.606 84.3724 252.696C81.9097 259.418 81.9097 267.924 85.0565 274.372C88.2034 280.819 93.8131 285.004 100.038 289.393Z" fill="#F18F09"/>
<path opacity="0.5" d="M100.038 289.394C98.7381 282.054 92.3075 276.361 85.1244 274.166C77.9413 271.971 70.2793 272.794 63.0278 274.578C66.0379 281.025 72.058 287.13 78.7622 289.394C85.4664 291.657 92.5127 290.697 100.038 289.394Z" fill="#F18F09"/>
<path opacity="0.5" d="M68.5696 258.596C73.0162 254.069 73.8372 246.729 71.8533 240.693C69.8694 234.657 65.4911 229.65 60.7024 225.397C57.6923 230.678 56.3925 237.881 58.1712 243.711C59.9498 249.542 63.9861 254.069 68.5696 258.596Z" fill="#F18F09"/>
<path opacity="0.5" d="M68.6373 258.595C68.5689 252.216 63.9854 246.454 58.3074 243.642C52.6293 240.83 45.9935 240.35 39.6313 240.761C41.2048 246.66 45.4462 252.628 50.7822 255.509C56.1182 258.39 62.1384 258.664 68.6373 258.595Z" fill="#F18F09"/>
<path opacity="0.5" d="M48.1834 224.093C52.8353 221.829 55.4349 216.479 55.5033 211.266C55.5717 206.053 53.5878 201.046 51.125 196.519C47.3624 199.742 44.4892 204.887 44.2156 209.894C43.9419 214.901 45.8574 219.36 48.1834 224.093Z" fill="#F18F09"/>
<path opacity="0.5" d="M48.1824 224.093C49.8927 219.223 47.9088 213.598 44.3514 209.826C40.7941 206.053 35.8001 203.927 30.8746 202.555C30.5325 207.494 32.106 213.187 35.3897 216.891C38.6734 220.595 43.1884 222.31 48.1824 224.093Z" fill="#F18F09"/>
<path opacity="0.5" d="M38.6739 188.905C43.1205 187.808 46.3358 183.624 47.4304 179.165C48.525 174.706 47.704 169.974 46.3358 165.584C42.5049 167.641 39.0159 171.62 37.8529 175.804C36.69 180.057 37.5793 184.309 38.6739 188.905Z" fill="#F18F09"/>
<path opacity="0.5" d="M38.6739 188.905C41.0683 184.995 40.3841 179.714 37.9898 175.804C35.5954 171.894 31.696 169.15 27.6598 166.956C26.4284 171.14 26.7021 176.421 28.8912 180.194C31.0803 183.967 34.7061 186.436 38.6739 188.905Z" fill="#F18F09"/>
<path opacity="0.5" d="M36.9633 161.125C36.9633 161.125 26.907 146.652 42.2993 138.695C42.2993 138.695 51.4663 152.139 36.9633 161.125Z" fill="#F18F09"/>
<path opacity="0.5" d="M223.177 305.444C223.177 305.444 223.314 305.376 223.656 305.239L225.024 304.69L227.213 303.798L228.65 303.249C229.128 303.044 229.676 302.769 230.223 302.564L233.917 300.917C235.285 300.3 236.722 299.545 238.295 298.791C239.869 298.036 241.442 297.145 243.221 296.184C245 295.224 246.71 294.195 248.625 293.029C250.541 291.863 252.388 290.628 254.44 289.325C255.466 288.708 256.424 287.953 257.45 287.267C258.477 286.581 259.503 285.827 260.529 285.072L263.607 282.672C264.155 282.26 264.633 281.848 265.181 281.437L266.754 280.134C267.78 279.242 268.875 278.35 269.969 277.459L273.116 274.578C274.211 273.617 275.237 272.588 276.263 271.56C277.289 270.531 278.384 269.502 279.41 268.404L282.557 265.043L285.635 261.545C289.808 256.606 293.708 251.393 297.265 245.906C300.754 240.418 303.833 234.657 306.637 228.826L308.621 224.573L310.332 220.321C310.947 218.949 311.426 217.508 311.905 216.137C312.384 214.765 312.931 213.393 313.342 212.021C313.752 210.649 314.231 209.277 314.641 207.905C315.052 206.534 315.394 205.23 315.736 203.858C315.941 203.173 316.078 202.555 316.283 201.869C316.489 201.183 316.625 200.566 316.762 199.88C317.036 198.577 317.378 197.274 317.652 196.039C317.925 194.804 318.13 193.57 318.404 192.335C318.678 191.1 318.883 189.934 319.088 188.768C319.43 186.367 319.841 184.172 320.046 181.977C320.251 179.782 320.593 177.725 320.662 175.735C320.73 173.746 321.004 171.894 321.004 170.179C321.004 168.465 321.14 166.818 321.14 165.309C321.14 163.8 321.14 162.428 321.14 161.262C321.14 160.645 321.14 160.096 321.14 159.547C321.14 158.999 321.072 158.519 321.072 158.038C321.004 157.078 321.004 156.324 321.004 155.638L320.935 154.197C320.935 153.854 320.935 153.717 320.935 153.717C320.935 153.717 320.935 153.854 321.004 154.197C321.072 154.54 321.072 155.02 321.072 155.638C321.072 156.255 321.14 157.078 321.209 158.038C321.209 158.519 321.277 158.999 321.277 159.547C321.277 160.096 321.277 160.645 321.277 161.262C321.277 162.497 321.346 163.869 321.346 165.309C321.346 166.75 321.277 168.396 321.209 170.179C321.14 171.963 321.004 173.746 320.867 175.735C320.73 177.725 320.525 179.782 320.251 181.977C319.977 184.172 319.635 186.436 319.293 188.837C319.157 190.003 318.883 191.237 318.678 192.472C318.472 193.707 318.199 194.941 317.925 196.176C317.652 197.411 317.309 198.714 317.036 200.017C316.899 200.703 316.762 201.321 316.557 202.006C316.352 202.692 316.215 203.31 316.01 203.996C315.668 205.299 315.326 206.671 314.915 208.043C314.505 209.414 314.026 210.786 313.615 212.158C313.205 213.53 312.658 214.902 312.179 216.342C311.7 217.783 311.153 219.155 310.605 220.527L308.895 224.779L306.911 229.032C301.37 240.83 294.324 251.873 285.841 261.819C284.815 262.985 283.788 264.152 282.762 265.386L279.615 268.747C278.589 269.845 277.495 270.874 276.468 271.903C275.442 272.931 274.348 273.96 273.322 274.921L270.106 277.802C269.012 278.762 267.986 279.585 266.891 280.477L265.318 281.78C264.77 282.191 264.223 282.603 263.744 283.015L260.597 285.415C259.571 286.17 258.545 286.856 257.519 287.61C256.493 288.365 255.535 289.051 254.509 289.668C252.456 290.971 250.609 292.275 248.694 293.372C246.778 294.47 245.068 295.567 243.289 296.459C241.511 297.35 239.937 298.311 238.364 299.065C236.79 299.82 235.354 300.574 233.986 301.192L230.223 302.838C229.676 303.112 229.128 303.318 228.65 303.524L227.213 304.073L225.024 304.896L223.656 305.444C223.314 305.376 223.177 305.444 223.177 305.444Z" fill="#F18F09"/>
<path opacity="0.5" d="M259.024 288.159C254.783 282.054 255.261 273.48 258.75 266.827C262.239 260.173 268.259 255.303 274.553 251.393C277.016 258.115 277.084 266.621 273.938 273.069C270.791 279.516 265.249 283.769 259.024 288.159Z" fill="#F18F09"/>
<path opacity="0.5" d="M259.023 288.159C260.323 280.819 266.754 275.057 273.868 272.862C280.983 270.667 288.714 271.422 295.965 273.137C293.023 279.653 287.003 285.689 280.299 288.021C273.595 290.354 266.48 289.462 259.023 288.159Z" fill="#F18F09"/>
<path opacity="0.5" d="M290.356 257.292C285.84 252.765 285.019 245.425 287.003 239.389C288.987 233.353 293.297 228.277 298.086 224.024C301.164 229.306 302.464 236.508 300.754 242.339C299.044 248.169 294.939 252.628 290.356 257.292Z" fill="#F18F09"/>
<path opacity="0.5" d="M290.287 257.292C290.287 250.913 294.871 245.151 300.549 242.27C306.227 239.389 312.863 238.909 319.225 239.252C317.651 245.151 313.478 251.187 308.142 254.068C302.806 256.949 296.786 257.223 290.287 257.292Z" fill="#F18F09"/>
<path opacity="0.5" d="M310.605 222.653C305.953 220.389 303.353 215.039 303.217 209.895C303.08 204.75 305.064 199.674 307.526 195.147C311.289 198.371 314.231 203.515 314.504 208.454C314.778 213.393 312.862 217.851 310.605 222.653Z" fill="#F18F09"/>
<path opacity="0.5" d="M310.605 222.652C308.895 217.782 310.81 212.089 314.368 208.385C317.925 204.681 322.851 202.486 327.845 201.046C328.255 205.984 326.682 211.678 323.398 215.382C320.114 219.086 315.531 220.869 310.605 222.652Z" fill="#F18F09"/>
<path opacity="0.5" d="M319.909 187.396C315.462 186.299 312.178 182.183 311.152 177.725C310.126 173.266 310.81 168.533 312.178 164.143C316.009 166.201 319.567 170.111 320.73 174.364C321.824 178.548 321.003 182.8 319.909 187.396Z" fill="#F18F09"/>
<path opacity="0.5" d="M319.909 187.396C317.515 183.486 318.131 178.205 320.525 174.295C322.919 170.385 326.75 167.573 330.787 165.378C332.086 169.562 331.744 174.843 329.624 178.616C327.503 182.457 323.877 184.858 319.909 187.396Z" fill="#F18F09"/>
<path opacity="0.5" d="M321.482 159.616C321.482 159.616 331.47 145.074 316.01 137.186C316.01 137.186 306.979 150.699 321.482 159.616Z" fill="#F18F09"/>
</g>
<path d="M149.567 156.803L132.191 131.081L138.485 69.6218H139.032C141.7 69.5532 148.336 63.4485 149.294 61.3907C150.252 59.3329 148.199 43.8309 147.789 43.9681C143.547 45.2028 144.095 50.0043 144.095 50.0043L143.616 45.8887C142.384 39.8525 138.006 42.5963 138.006 42.5963C136.022 38.8237 132.123 41.7731 132.123 41.7731C131.028 38.5493 128.018 41.3616 128.018 41.3616C128.018 41.3616 128.018 40.3327 124.735 39.0294C122.956 38.3435 121.109 40.8128 119.809 43.145C118.646 45.34 118.099 47.7407 118.236 50.2101L116.525 68.1128L102.296 140.684L140.606 194.872L165.507 169.63L149.567 156.803Z" fill="#FFBE9D"/>
<path d="M134.244 62.8312C134.723 62.0081 135.338 61.2536 136.022 60.6363C137.733 59.0586 139.716 57.8926 141.837 57.138C142.727 56.8637 143.616 56.5893 144.505 56.4521L144.232 56.7265C144.232 54.7373 143.958 53.0911 143.89 51.8564C143.821 51.2391 143.821 50.5531 143.958 49.9358C144.095 50.5531 144.232 51.1705 144.232 51.8564C144.505 53.5026 144.642 55.0803 144.779 56.7265V57.0009L144.505 57.0694C143.616 57.2066 142.795 57.481 141.974 57.7554C139.853 58.4413 137.938 59.5388 136.228 60.9792C134.996 62.0767 134.312 62.8998 134.244 62.8312Z" fill="#EB996E"/>
<path d="M123.708 45.5454C123.914 45.8198 124.051 46.1628 124.119 46.5057C124.461 47.3974 124.529 48.4263 124.256 49.318C124.051 49.9354 123.366 50.3469 123.23 50.8957C123.093 51.513 123.298 52.1989 123.777 52.6791C124.94 53.708 126.719 53.6394 127.745 52.5419L127.813 52.4733C128.292 51.7874 128.566 51.0329 128.566 50.2097C128.634 49.3866 128.634 48.5635 128.634 47.809C128.634 46.4371 128.497 45.0653 128.36 43.6934C128.292 42.8017 128.087 41.91 127.676 41.0869C127.471 40.8125 127.266 40.5382 127.061 40.3324C127.061 40.3324 127.471 40.401 127.881 40.9497C128.36 41.7728 128.702 42.6645 128.839 43.6248C129.044 44.9967 129.181 46.3686 129.25 47.7404C129.318 48.5635 129.318 49.3866 129.25 50.2097C129.25 51.17 128.908 52.1303 128.36 52.8849C127.197 54.3253 125.077 54.4625 123.64 53.2964C123.572 53.2278 123.503 53.1592 123.435 53.1592C122.819 52.5419 122.614 51.7188 122.819 50.8957C122.956 50.5527 123.161 50.2098 123.435 50.004C123.64 49.7982 123.777 49.5924 123.914 49.318C124.187 48.4949 124.187 47.5346 123.982 46.7115C123.845 46.2314 123.777 45.8884 123.708 45.5454Z" fill="#EB996E"/>
<path d="M127.813 52.8167C127.882 52.8167 127.95 53.0911 128.224 53.4341C128.634 53.9142 129.25 54.2572 129.866 54.3258C130.823 54.3944 131.713 53.9828 132.328 53.2283C133.081 52.268 133.491 51.1705 133.56 49.9358C133.765 47.7409 133.423 45.4773 132.67 43.4195C132.055 41.8419 131.439 40.8816 131.576 40.8816C131.713 40.8816 132.397 41.6361 133.081 43.2823C134.039 45.4087 134.449 47.7409 134.175 50.0044C134.107 51.3077 133.628 52.6109 132.807 53.5712C132.123 54.463 130.96 54.8745 129.866 54.7373C129.113 54.6001 128.497 54.1886 128.087 53.5712C127.745 53.0911 127.813 52.8167 127.813 52.8167Z" fill="#EB996E"/>
<path d="M132.943 53.1596C133.011 53.1596 133.08 53.3654 133.422 53.6397C133.832 54.0513 134.379 54.2571 134.995 54.3257C135.816 54.4628 136.705 54.1885 137.39 53.6397C138.21 52.9538 138.758 51.9249 138.895 50.896C139.305 48.6324 138.553 46.5061 138.279 44.9284C138.074 44.1053 137.937 43.2822 137.868 42.3905C138.21 43.145 138.484 43.9681 138.689 44.7913C138.895 45.5458 139.168 46.4375 139.373 47.4664C139.647 48.6324 139.647 49.7985 139.51 50.9646C139.305 52.1307 138.689 53.2282 137.732 53.9827C136.979 54.6 135.953 54.8744 134.927 54.6686C134.243 54.5314 133.695 54.1885 133.285 53.7083C132.943 53.4339 132.943 53.1596 132.943 53.1596Z" fill="#EB996E"/>
<path d="M138.963 52.6107C139.031 52.6107 139.031 52.8851 139.168 53.3653C139.305 53.9826 139.647 54.5999 140.058 55.1487C140.605 55.9032 141.563 56.2462 142.52 56.0404C143.478 55.766 144.094 54.5313 144.025 53.2967C143.957 51.0331 143.752 48.7695 143.341 46.5746C143.136 45.6829 142.931 44.7226 142.794 43.8309C143.273 44.654 143.546 45.5457 143.752 46.506C144.299 48.7695 144.573 51.0331 144.573 53.2967C144.641 54.6685 143.957 56.2462 142.589 56.5891C141.494 56.7949 140.331 56.3147 139.715 55.3544C139.305 54.7371 139.031 54.0512 138.963 53.3653C138.895 53.1595 138.895 52.8851 138.963 52.6107Z" fill="#EB996E"/>
<path d="M123.366 140.684C123.64 140.067 123.982 139.518 124.324 138.97C126.103 136.294 128.223 133.825 130.686 131.767C131.165 131.287 131.712 130.944 132.328 130.601C131.849 131.081 131.37 131.561 130.891 131.973C130.002 132.796 128.771 133.962 127.539 135.403C126.308 136.843 125.282 138.146 124.529 139.175C124.187 139.724 123.777 140.204 123.366 140.684Z" fill="#EB996E"/>
<path d="M184.662 183.075L148.883 151.248L119.467 175.186L161.129 226.7L184.662 183.075Z" fill="#01ABFF"/>
<path d="M125.487 181.428C125.556 181.291 125.624 181.222 125.693 181.085C125.898 180.879 126.103 180.605 126.445 180.262C127.061 179.508 128.018 178.479 129.25 177.244C132.465 174.089 135.886 171.139 139.511 168.395C143.069 165.652 146.763 163.045 150.594 160.713C152.099 159.821 153.33 159.135 154.151 158.724C154.562 158.518 154.904 158.381 155.177 158.244C155.314 158.175 155.383 158.107 155.519 158.107C155.383 158.175 155.314 158.244 155.177 158.312L154.22 158.861C153.399 159.341 152.167 160.027 150.731 160.919C147.789 162.771 143.821 165.446 139.648 168.67C136.091 171.414 132.67 174.363 129.387 177.45C128.155 178.684 127.129 179.645 126.513 180.331L125.761 181.154C125.693 181.222 125.624 181.291 125.487 181.428Z" fill="#FAFAFA"/>
<path d="M158.597 160.164C158.46 160.233 158.392 160.301 158.255 160.37L157.297 160.987C156.408 161.536 155.176 162.291 153.671 163.251C150.661 165.172 146.488 167.984 142.178 171.345C137.869 174.706 134.174 178.067 131.575 180.536C130.275 181.771 129.249 182.8 128.565 183.554L127.744 184.377C127.675 184.446 127.539 184.583 127.47 184.652C127.47 184.652 127.539 184.515 127.744 184.309L128.496 183.417C129.18 182.663 130.207 181.634 131.438 180.331C138.142 173.746 145.531 167.915 153.535 162.977C155.04 162.016 156.339 161.33 157.229 160.85L158.255 160.301C158.392 160.301 158.46 160.233 158.597 160.164Z" fill="#FAFAFA"/>
<path d="M133.149 62.5568C131.849 61.5279 130.481 60.6362 129.044 59.813C127.539 59.1271 125.966 58.5784 124.393 58.1668C124.871 58.1668 125.35 58.1668 125.829 58.304C126.992 58.5784 128.087 58.9213 129.181 59.4701C130.276 60.0188 131.234 60.7048 132.123 61.4593C132.533 61.7336 132.875 62.1452 133.149 62.5568Z" fill="#EB996E"/>
<path d="M139.716 69.8274C137.938 70.3075 136.09 70.6505 134.243 70.8563C132.396 71.1992 130.549 71.405 128.702 71.5422C130.481 71.0621 132.328 70.7191 134.175 70.5133C136.022 70.1704 137.869 69.9646 139.716 69.8274Z" fill="#EB996E"/>
<path d="M164.275 122.713C165.37 108.446 177.205 97.4708 191.503 97.4022H192.939C208.195 98.2939 215.994 111.738 214.762 127.034L212.026 197.685H177L177.342 174.706C177.342 174.706 162.634 172.443 162.428 157.695C162.223 150.63 163.249 135.951 164.275 122.713Z" fill="#FFBE9D"/>
<path d="M177.137 174.637C183.978 174.637 190.614 172.648 196.36 168.944C196.36 168.944 191.845 179.576 177.205 178.273L177.137 174.637Z" fill="#EB996E"/>
<path d="M167.422 133.962C167.696 134.236 169.269 133.07 171.527 133.07C173.784 133.07 175.426 134.168 175.7 133.893C175.837 133.756 175.563 133.276 174.811 132.727C173.853 132.041 172.69 131.698 171.458 131.698C170.295 131.698 169.132 132.041 168.175 132.796C167.559 133.344 167.285 133.825 167.422 133.962Z" fill="#263238"/>
<path d="M189.793 132.796C190.066 133.07 191.64 131.904 193.897 131.904C196.155 131.904 197.797 133.002 198.07 132.727C198.207 132.59 197.934 132.11 197.181 131.561C196.223 130.875 195.06 130.532 193.829 130.532C192.666 130.532 191.503 130.875 190.545 131.63C189.93 132.178 189.656 132.727 189.793 132.796Z" fill="#263238"/>
<path d="M181.446 147.063C181.446 146.926 180.078 146.72 177.752 146.446C177.205 146.377 176.658 146.308 176.521 145.897C176.452 145.279 176.589 144.731 176.931 144.182C177.479 142.81 178.026 141.301 178.641 139.792C180.967 133.55 182.678 128.406 182.472 128.268C182.267 128.131 180.078 133.207 177.752 139.449C177.205 140.958 176.658 142.467 176.11 143.908C175.768 144.594 175.631 145.417 175.837 146.171C175.973 146.583 176.384 146.926 176.794 146.994C177.136 147.063 177.41 147.131 177.752 147.131C180.01 147.2 181.446 147.2 181.446 147.063Z" fill="#263238"/>
<path d="M188.083 148.572C187.74 148.572 187.74 151.041 185.62 152.756C183.499 154.471 180.899 154.265 180.899 154.608C180.899 154.745 181.515 155.088 182.61 155.088C184.046 155.088 185.415 154.608 186.577 153.716C187.604 152.824 188.288 151.59 188.493 150.218C188.561 149.189 188.288 148.572 188.083 148.572Z" fill="#263238"/>
<path d="M189.793 123.604C189.998 124.222 192.255 124.016 194.923 124.359C197.591 124.702 199.712 125.525 200.054 124.976C200.191 124.702 199.849 124.153 199.028 123.536C196.702 122.027 193.829 121.615 191.229 122.438C190.203 122.85 189.656 123.33 189.793 123.604Z" fill="#4C1E08"/>
<path d="M166.876 124.702C167.354 125.182 169.27 124.633 171.527 124.564C173.785 124.496 175.769 124.839 176.179 124.29C176.385 124.016 176.043 123.536 175.222 123.055C174.059 122.438 172.759 122.164 171.391 122.301C170.091 122.301 168.791 122.712 167.696 123.398C166.944 123.947 166.67 124.427 166.876 124.702Z" fill="#4C1E08"/>
<path d="M212.505 137.94C212.778 137.803 222.561 134.922 222.287 145.006C222.014 155.089 211.958 152.688 211.958 152.414C211.958 152.139 212.505 137.94 212.505 137.94Z" fill="#FFBE9D"/>
<path d="M214.215 148.709C214.283 148.709 214.352 148.846 214.694 148.984C215.104 149.189 215.583 149.189 215.994 149.052C217.088 148.709 218.046 147.063 218.114 145.211C218.183 144.319 218.046 143.496 217.704 142.673C217.499 142.056 217.088 141.507 216.404 141.301C215.994 141.164 215.583 141.37 215.378 141.781C215.241 142.056 215.309 142.261 215.241 142.261C215.173 142.261 215.036 142.056 215.104 141.644C215.173 141.37 215.309 141.164 215.515 141.027C215.788 140.821 216.13 140.752 216.472 140.821C217.293 141.027 217.977 141.644 218.251 142.467C218.662 143.359 218.798 144.319 218.798 145.28C218.662 147.269 217.567 149.189 216.13 149.532C215.583 149.669 214.967 149.532 214.557 149.189C214.283 148.915 214.215 148.709 214.215 148.709Z" fill="#EB996E"/>
<path d="M178.163 119.42C178.778 119.42 179.326 119.557 179.941 119.694C181.036 119.9 182.472 120.174 184.114 120.38C185.551 120.517 186.919 120.586 188.356 120.517C189.45 120.449 190.134 120.312 190.134 120.38C189.587 120.586 188.971 120.723 188.424 120.792C186.988 120.929 185.551 120.929 184.114 120.792C182.678 120.586 181.309 120.38 179.873 120.037C179.257 119.831 178.71 119.694 178.163 119.42Z" fill="#EB996E"/>
<path d="M178.437 116.402C178.505 116.333 180.42 117.362 183.02 118.048C185.62 118.734 187.809 118.803 187.809 118.94C187.33 119.009 186.851 119.009 186.372 119.009C184.046 118.871 181.789 118.254 179.736 117.225C179.189 116.951 178.779 116.745 178.437 116.402Z" fill="#EB996E"/>
<path d="M188.013 147.749C188.013 147.68 188.218 147.612 188.492 147.612C189.381 147.612 190.134 148.092 190.613 148.846C190.75 149.121 190.75 149.326 190.75 149.326C190.75 149.326 190.339 148.64 189.587 148.229C189.108 148.023 188.56 147.817 188.013 147.749Z" fill="#EB996E"/>
<path d="M190.203 145.554C190.682 145.417 191.229 145.349 191.708 145.486C194.239 145.76 196.292 147.681 196.771 150.219C196.907 150.699 196.907 151.248 196.771 151.728C196.702 151.728 196.702 151.179 196.497 150.287C195.881 147.955 194.034 146.172 191.64 145.76C190.819 145.554 190.203 145.623 190.203 145.554Z" fill="#EB996E"/>
<path d="M163.112 104.947C163.865 104.193 164.549 103.301 165.165 102.409C165.78 101.312 166.054 100.077 166.601 98.911C168.312 95.6871 172.143 94.1781 175.563 95.3442C178.231 90.1311 184.525 88.1419 189.724 90.817C189.861 90.8856 189.929 90.9542 190.066 90.9542C190.955 91.4344 191.776 92.0517 192.803 92.0517C193.623 91.9145 194.444 91.7087 195.128 91.2972C199.302 89.5138 204.09 91.503 205.869 95.6871C206.211 96.4416 206.416 97.3333 206.485 98.1565C209.837 97.4705 213.12 99.6655 213.805 103.027C214.01 103.918 213.941 104.81 213.736 105.633C217.362 104.261 221.466 106.045 222.835 109.749C223.861 112.492 223.108 115.579 220.988 117.5C222.629 118.597 223.108 120.929 222.356 122.713C221.535 124.496 219.961 125.868 218.046 126.485C217.499 126.691 217.02 126.828 216.473 126.965C215.925 128.68 215.378 130.326 215.036 131.973C214.42 134.716 213.189 143.085 213.189 143.085C210.863 143.085 210.042 141.233 210.384 138.969L210.794 129.984C210.794 129.984 202.927 124.427 206.69 114.139C207.169 113.315 207.442 112.287 207.511 111.326C206.895 107.759 203.543 108.377 201.559 108.583C199.575 108.926 197.728 109.68 196.018 110.778C194.376 111.875 192.529 112.767 190.613 113.384C187.535 114.207 184.183 113.59 181.173 112.355C179.463 111.669 177.684 110.709 175.837 110.915C171.937 111.395 169.817 116.677 165.917 117.019C163.249 117.225 160.855 114.825 160.513 112.218C160.171 109.611 161.402 106.936 163.112 104.947Z" fill="#4C1E08"/>
<path d="M163.66 104.33C163.66 104.33 163.591 104.467 163.591 104.81C163.591 105.221 163.728 105.701 164.002 106.044C164.412 106.593 165.028 107.005 165.712 107.073C166.67 107.142 167.559 106.799 168.312 106.25C169.201 105.496 169.953 104.604 170.501 103.644C171.185 102.477 172.143 101.449 173.306 100.694C174.674 99.9396 176.316 99.8024 177.821 100.145C179.394 100.625 180.899 101.38 182.131 102.546L181.857 102.615C182.336 100.42 183.772 98.5677 185.825 97.6074C187.74 96.7843 189.929 96.7843 191.845 97.7446C192.734 98.2247 193.487 98.8421 194.102 99.5966C194.718 100.283 195.334 101.037 195.949 101.654C196.565 102.272 197.318 102.683 198.139 102.889C198.959 103.026 199.78 102.958 200.533 102.683C201.285 102.477 202.038 102.203 202.79 102.066C203.475 101.929 204.227 101.86 204.98 101.929C206.211 102.066 207.442 102.546 208.4 103.369C209.563 104.329 210.384 105.701 210.658 107.21C210.658 107.416 210.726 107.553 210.726 107.691C210.726 107.759 210.726 107.759 210.726 107.828C210.589 107.073 210.316 106.319 209.974 105.633C209.016 103.712 207.1 102.409 204.911 102.203C204.227 102.135 203.543 102.203 202.859 102.34C202.175 102.477 201.422 102.752 200.67 103.026C199.849 103.301 199.028 103.369 198.139 103.301C197.249 103.095 196.428 102.615 195.813 101.997C194.444 100.763 193.487 99.0478 191.708 98.2247C188.493 96.5099 184.525 97.8132 182.815 101.037C182.541 101.586 182.336 102.203 182.199 102.82L182.131 103.095L181.925 102.889C180.762 101.792 179.326 101.037 177.752 100.557C176.316 100.145 174.811 100.351 173.511 101.037C172.416 101.792 171.459 102.752 170.774 103.849C170.159 104.878 169.406 105.77 168.448 106.456C167.696 107.073 166.67 107.348 165.712 107.279C164.96 107.21 164.344 106.799 163.933 106.182C163.66 105.77 163.523 105.358 163.591 104.878C163.523 104.604 163.591 104.467 163.66 104.33Z" fill="white"/>
<path d="M211 124.29C211 124.222 211.342 124.359 212.026 124.427C212.984 124.496 213.942 124.427 214.831 124.084C216.131 123.604 217.225 122.644 217.841 121.341C218.183 120.586 218.32 119.763 218.251 118.94C218.183 118.048 217.841 117.225 217.294 116.539C216.61 115.647 215.652 115.099 214.557 114.962L214.215 114.893L214.489 114.619C215.447 113.727 215.857 112.355 215.652 111.052C215.447 110.023 214.831 109.131 213.942 108.582C213.326 108.239 212.71 108.034 211.958 107.965C211.479 107.965 211.205 107.965 211.205 107.965C211.205 107.965 211.274 107.896 211.41 107.896C211.616 107.828 211.821 107.828 211.958 107.828C212.71 107.828 213.394 108.034 214.01 108.377C214.968 108.925 215.652 109.886 215.926 110.983C216.199 112.424 215.72 113.864 214.694 114.824L214.626 114.55C215.789 114.687 216.883 115.304 217.636 116.265C218.251 117.019 218.594 117.911 218.662 118.871C218.73 119.763 218.525 120.655 218.183 121.409C217.567 122.781 216.404 123.81 214.968 124.29C214.01 124.633 213.052 124.702 212.095 124.565C211.821 124.496 211.547 124.496 211.342 124.359C211.137 124.29 211 124.29 211 124.29Z" fill="white"/>
<path d="M138.553 325.747C138.553 325.404 138.553 327.873 138.553 325.747C138.553 308.462 145.189 269.501 145.189 269.501C145.942 264.013 161.06 194.323 161.06 194.323L177.479 186.984C179.873 192.265 186.098 194.666 191.366 192.334L212.847 182.868L243.632 199.879L249.994 237.948C249.994 237.948 229.471 285.414 230.155 288.844C230.839 292.274 225.64 312.166 225.64 312.166L225.845 325.816L138.553 325.747Z" fill="#01ABFF"/>
<g opacity="0.3">
<path opacity="0.3" d="M164.07 302.426C168.312 308.53 170.98 312.852 177.068 314.91C188.766 318.819 192.529 316.624 198.207 313.675C202.927 311.206 206.074 305.65 209.221 301.397C217.43 290.148 221.193 283.631 228.513 272.519L231.523 274.646C226.529 289.187 230.565 281.505 222.835 294.881C218.388 302.563 213.394 310.177 206.485 315.733C199.575 321.289 190.477 324.718 181.789 323.004C173.853 321.426 167.354 315.939 161.813 310.108C154.082 301.946 145.736 285.003 145.189 273.754C145.189 274.371 158.666 294.538 164.07 302.426Z" fill="black"/>
</g>
<path d="M152.509 233.902C152.509 233.764 152.509 233.696 152.578 233.559C152.646 233.284 152.715 233.01 152.783 232.598C152.988 231.775 153.193 230.609 153.467 229.169C154.014 226.288 154.698 222.31 155.383 217.851C156.067 213.392 156.545 209.414 156.956 206.465C157.161 205.024 157.298 203.858 157.435 203.035C157.503 202.692 157.572 202.349 157.572 202.075C157.572 201.937 157.64 201.869 157.64 201.732C157.64 201.869 157.64 201.937 157.64 202.075C157.64 202.349 157.572 202.623 157.572 203.035C157.503 203.927 157.366 205.093 157.161 206.465C156.819 209.414 156.34 213.392 155.725 217.851C155.109 222.31 154.356 226.288 153.741 229.169C153.399 230.609 153.125 231.775 152.92 232.53C152.851 232.873 152.715 233.216 152.646 233.422C152.578 233.696 152.578 233.764 152.509 233.902Z" fill="#263238"/>
<path d="M138.553 324.581C138.553 324.444 138.553 324.238 138.553 324.032C138.553 323.689 138.622 323.209 138.69 322.592C138.827 321.289 138.964 319.437 139.169 317.242C139.579 312.715 140.195 306.404 140.879 299.545C141.563 292.685 142.179 286.443 142.658 281.848C142.931 279.653 143.068 277.801 143.205 276.498C143.274 275.88 143.342 275.4 143.41 275.057C143.41 274.92 143.479 274.714 143.479 274.577C143.479 274.714 143.479 274.92 143.479 275.057C143.479 275.4 143.41 275.88 143.342 276.498C143.205 277.801 143.068 279.653 142.863 281.848C142.453 286.375 141.837 292.685 141.221 299.545C140.606 306.404 139.921 312.646 139.443 317.242C139.169 319.437 139.032 321.289 138.827 322.592C138.758 323.209 138.69 323.689 138.622 324.032C138.622 324.238 138.553 324.444 138.553 324.581Z" fill="#263238"/>
<path d="M204.159 230.815C204.022 230.815 203.817 230.815 203.611 230.815H202.175C200.875 230.815 199.096 230.746 196.77 230.678C192.255 230.472 185.961 230.198 178.984 229.58C173.1 229.1 167.217 228.277 161.402 227.042C159.623 226.631 157.913 226.082 156.271 225.396C155.656 225.122 155.108 224.779 154.561 224.367C155.108 224.71 155.724 225.053 156.271 225.327C157.913 226.013 159.692 226.494 161.402 226.837C167.217 228.003 173.1 228.826 178.984 229.237C185.893 229.855 192.187 230.198 196.702 230.472L202.106 230.746L203.543 230.815C203.817 230.815 204.022 230.815 204.159 230.815Z" fill="#FAFAFA"/>
<path d="M200.396 238.155C200.26 238.155 200.054 238.155 199.918 238.155L198.549 238.223C197.318 238.223 195.608 238.292 193.419 238.223C189.109 238.223 183.157 238.086 176.59 237.469C173.306 237.126 170.159 236.714 167.354 236.234C164.549 235.754 162.018 235.205 159.966 234.588C158.94 234.313 157.982 234.039 157.161 233.765C156.34 233.49 155.656 233.284 155.04 233.079L153.741 232.598C153.604 232.53 153.467 232.461 153.33 232.393C153.467 232.393 153.672 232.461 153.809 232.53L155.109 232.941C155.656 233.147 156.409 233.353 157.229 233.559C158.05 233.765 159.008 234.039 160.034 234.313C162.155 234.862 164.618 235.342 167.423 235.822C170.227 236.303 173.306 236.714 176.59 236.988C183.157 237.606 189.109 237.812 193.419 237.88L198.549 237.949H199.918C200.054 238.086 200.26 238.086 200.396 238.155Z" fill="#FAFAFA"/>
<path d="M172.211 177.587C172.279 177.656 171.185 178.342 169.611 179.645C168.722 180.4 167.833 181.223 167.012 182.115C165.986 183.212 165.096 184.309 164.207 185.476C163.386 186.642 162.565 187.876 161.881 189.18C161.334 190.208 160.786 191.306 160.376 192.403C159.623 194.324 159.281 195.49 159.213 195.49C159.213 195.216 159.281 194.873 159.418 194.598C159.623 193.844 159.897 193.021 160.171 192.266C160.581 191.169 161.06 190.003 161.607 188.974C162.291 187.671 163.044 186.436 163.933 185.201C164.823 184.035 165.78 182.869 166.738 181.84C167.559 180.948 168.448 180.194 169.406 179.439C170.022 178.959 170.706 178.479 171.39 177.999C171.732 177.862 171.937 177.725 172.211 177.587Z" fill="#263238"/>
<path d="M113.721 207.425C113.721 207.425 113.105 204.612 113.515 203.858C113.926 203.241 114.473 202.76 115.089 202.349C115.089 202.349 115.705 197.822 116.731 196.381C117.825 194.804 122.272 195.009 122.272 195.009C122.272 195.009 123.093 193.981 123.709 192.883C124.324 191.786 133.354 191.168 134.928 191.168C136.501 191.168 137.049 195.49 137.049 195.49C137.049 195.49 140.469 194.872 141.085 195.215C141.7 195.558 146.216 203.515 146.558 205.23C146.9 206.945 144.711 212.089 144.711 212.089C144.232 213.324 140.88 220.183 140.88 220.183L143.274 223.475L183.773 271.559C183.773 271.559 193.077 256.88 204.022 236.782C215.994 214.764 222.493 198.302 235.423 197.959L249.926 237.537C246.847 245.014 207.443 305.65 201.217 311.411C194.992 317.173 187.877 319.094 174.88 314.429C165.439 311 131.576 249.884 124.803 237.4L117.346 225.533L111.874 215.381C111.874 215.381 111.805 211.609 111.531 210.1C111.258 208.591 113.721 207.425 113.721 207.425Z" fill="#FFBE9D"/>
<path d="M132.328 193.912C132.807 194.255 133.081 194.804 133.217 195.352C133.423 196.724 134.38 197.753 135.749 198.028C137.048 198.508 138.075 199.537 138.69 200.771C138.896 201.114 139.032 201.526 139.101 201.937C139.169 202.075 139.169 202.212 139.169 202.417C139.101 202.417 139.032 201.8 138.553 200.908C137.938 199.742 136.912 198.851 135.68 198.371C134.928 198.165 134.244 197.753 133.765 197.204C133.423 196.656 133.149 196.107 133.081 195.49C132.807 194.872 132.602 194.392 132.328 193.912Z" fill="#EB996E"/>
<path d="M134.927 197.616C134.927 197.547 135.201 197.685 135.543 197.616C136.021 197.479 136.432 197.136 136.569 196.656C136.774 196.176 136.842 195.627 136.842 195.147C136.842 194.735 136.842 194.461 136.911 194.461C136.979 194.461 137.048 194.667 137.116 195.147C137.184 195.695 137.116 196.313 136.979 196.862C136.774 197.479 136.227 197.89 135.611 197.89C135.132 197.89 134.858 197.685 134.927 197.616Z" fill="#EB996E"/>
<path d="M138.553 200.36C138.485 200.36 138.143 199.88 137.938 199.125C137.801 198.782 137.801 198.439 137.869 198.097C137.938 197.822 138.006 197.685 138.074 197.754C138.143 197.822 138.074 198.371 138.28 199.057C138.485 199.743 138.69 200.36 138.553 200.36Z" fill="#EB996E"/>
<path d="M121.655 200.36C120.971 198.576 121.177 196.519 122.271 194.941C122.34 195.01 121.792 196.107 121.655 197.616C121.519 199.125 121.792 200.36 121.655 200.36Z" fill="#EB996E"/>
<path d="M115.499 205.641C114.883 204.544 114.815 203.309 115.157 202.143C115.294 202.692 115.294 203.309 115.294 203.926C115.431 204.407 115.499 205.024 115.499 205.641Z" fill="#EB996E"/>
<path d="M114.267 210.854C113.857 210.374 113.515 209.825 113.378 209.208C113.104 208.591 113.036 207.973 113.173 207.356C113.447 207.905 113.583 208.522 113.72 209.071C113.925 209.619 114.131 210.237 114.267 210.854Z" fill="#EB996E"/>
<path d="M182.13 294.126C182.199 293.852 182.336 293.509 182.472 293.234C182.609 292.96 182.746 292.617 182.883 292.205C183.02 291.794 183.225 291.382 183.362 290.834C183.772 289.667 184.114 288.433 184.388 287.267C184.73 285.758 184.935 284.249 185.072 282.74C185.14 281.231 185.14 279.721 185.072 278.144C185.004 276.909 184.798 275.674 184.593 274.44C184.525 273.891 184.388 273.411 184.32 273.068C184.251 272.725 184.114 272.313 184.046 272.039C183.977 271.765 183.909 271.422 183.841 271.147C183.977 271.422 184.114 271.696 184.183 272.039C184.251 272.313 184.388 272.656 184.525 273.068C184.662 273.48 184.798 273.96 184.867 274.44C185.14 275.674 185.346 276.909 185.414 278.144C185.688 281.231 185.414 284.317 184.73 287.335C184.456 288.57 184.046 289.736 183.635 290.902C183.43 291.382 183.225 291.862 183.088 292.274C182.951 292.617 182.814 292.96 182.609 293.234C182.472 293.646 182.336 293.852 182.13 294.126Z" fill="#EB996E"/>
<path d="M124.255 204.955C124.323 204.955 124.255 205.71 124.323 206.945C124.392 207.63 124.597 208.316 124.939 208.934C125.144 209.277 125.486 209.551 125.828 209.688C126.034 209.757 126.239 209.825 126.444 210.031C126.718 210.168 126.855 210.443 126.923 210.717C126.923 211.334 126.581 211.677 126.513 212.089C126.513 212.501 126.649 212.843 126.855 213.186C127.197 213.804 127.607 214.353 128.086 214.901C128.838 215.793 129.454 216.273 129.454 216.342C129.454 216.41 129.249 216.273 128.975 216.067C128.565 215.793 128.223 215.45 127.881 215.107C127.402 214.558 126.923 214.01 126.581 213.392C126.307 213.049 126.17 212.569 126.17 212.089C126.239 211.609 126.581 211.197 126.581 210.854C126.581 210.511 126.102 210.374 125.692 210.168C125.281 209.963 124.939 209.62 124.734 209.277C124.392 208.659 124.187 207.905 124.118 207.15C124.118 206.67 124.118 206.19 124.187 205.71C124.187 205.161 124.255 204.955 124.255 204.955Z" fill="#EB996E"/>
<path d="M120.014 208.248C119.946 208.797 119.946 209.277 120.083 209.825C120.288 210.374 120.63 210.854 121.041 211.129C121.383 211.335 121.588 211.678 121.656 212.089C121.656 212.501 121.656 212.844 121.519 213.255C121.246 214.49 121.451 215.793 122.135 216.891C122.477 217.302 122.751 217.714 123.161 218.125C123.161 218.125 123.024 218.057 122.751 217.919C122.409 217.645 122.135 217.371 121.93 217.028C121.109 215.93 120.835 214.49 121.177 213.187C121.314 212.844 121.314 212.501 121.314 212.158C121.246 211.883 121.109 211.609 120.835 211.403C120.356 211.06 119.946 210.511 119.809 209.894C119.672 209.483 119.672 209.071 119.809 208.659C119.878 208.316 119.946 208.179 120.014 208.248Z" fill="#EB996E"/>
<path d="M240.827 198.233C240.827 198.233 256.424 204.681 253.346 228.551C253.072 230.541 252.525 232.461 251.636 234.245C247.052 243.299 231.454 274.234 231.249 274.714C231.044 275.194 194.992 249.198 194.992 249.198C194.992 249.198 215.994 187.464 240.827 198.233Z" fill="#01ABFF"/>
<path d="M252.868 231.844C252.868 231.844 252.868 231.912 252.799 232.05C252.731 232.187 252.662 232.393 252.525 232.667L251.363 234.999C250.336 237.057 248.831 240.075 246.984 243.848L231.387 274.852L231.318 274.989L231.181 274.852L203.886 255.646L194.924 249.335L194.787 249.266L194.856 249.129C197.318 244.808 199.507 240.487 201.491 236.302C203.475 232.118 205.185 227.934 207.033 224.161C208.88 220.389 210.795 216.822 212.642 213.53C214.284 210.443 216.336 207.631 218.799 205.161C220.783 203.103 223.109 201.389 225.64 200.085C227.556 199.194 229.676 198.645 231.797 198.371C233.097 198.233 234.465 198.233 235.833 198.371C236.312 198.439 236.654 198.508 236.86 198.508L237.202 198.576C237.065 198.576 236.996 198.576 236.86 198.508C236.654 198.439 236.312 198.439 235.833 198.371C234.534 198.233 233.165 198.233 231.866 198.439C229.745 198.714 227.693 199.262 225.777 200.154C223.246 201.457 220.988 203.172 219.073 205.23C216.61 207.699 214.626 210.511 212.984 213.53C211.137 216.822 209.29 220.32 207.443 224.161C205.596 228.003 203.886 232.118 201.902 236.302C199.918 240.487 197.66 244.808 195.266 249.198L195.198 248.992L204.159 255.303L231.455 274.509L231.181 274.577C237.612 261.887 243.016 251.187 246.847 243.642L251.363 234.862L252.594 232.53L252.936 231.912L252.868 231.844Z" fill="#263238"/>
<path d="M237.612 260.104C237.475 260.036 237.338 259.967 237.201 259.898L236.175 259.281L232.344 256.812L219.688 248.581C214.763 245.357 210.179 242.544 206.896 240.555L202.996 238.155L201.97 237.469C201.833 237.4 201.696 237.331 201.628 237.194C201.765 237.263 201.902 237.331 202.038 237.4L203.133 238.017C204.091 238.566 205.459 239.321 207.101 240.281C210.453 242.27 214.968 245.014 219.962 248.238C224.956 251.461 229.334 254.411 232.549 256.537L236.38 259.075L237.407 259.761C237.407 259.898 237.543 260.036 237.612 260.104Z" fill="#FAFAFA"/>
<path d="M236.791 263.122C236.654 263.054 236.517 262.985 236.38 262.916L235.286 262.299L231.318 259.967L218.32 252.216L205.322 244.328L201.422 241.927L200.396 241.241C200.259 241.172 200.123 241.104 200.054 240.967C200.191 241.035 200.328 241.104 200.465 241.172L201.559 241.79L205.527 244.122L218.525 251.873L231.523 259.761L235.422 262.162L236.448 262.848C236.585 262.985 236.654 263.054 236.791 263.122Z" fill="#FAFAFA"/>
<path d="M145.531 104.055L145.326 104.81C145.258 105.153 144.984 105.427 144.642 105.496L143.89 105.701L144.642 105.976C144.916 106.044 145.189 106.319 145.258 106.593L145.531 107.348L145.805 106.593C145.942 106.319 146.147 106.044 146.421 105.976L147.105 105.77L146.421 105.564C146.147 105.496 145.874 105.221 145.805 104.947L145.531 104.055Z" fill="#005FAA"/>
<path d="M168.859 70.9931L168.654 71.7476C168.585 72.0906 168.312 72.365 167.97 72.4335L167.217 72.6393L167.97 72.9137C168.243 73.0509 168.517 73.2567 168.585 73.531L168.859 74.2856L169.133 73.531C169.27 73.2567 169.475 72.9823 169.748 72.9137L170.433 72.7079L169.748 72.5021C169.475 72.4335 169.201 72.1592 169.133 71.8848L168.859 70.9931Z" fill="#005FAA"/>
<path d="M268.397 180.879L268.191 181.565C268.123 181.908 267.849 182.182 267.507 182.251L266.755 182.456L267.507 182.731C267.781 182.868 268.055 183.074 268.123 183.348L268.397 184.103L268.67 183.348C268.807 183.074 269.012 182.799 269.286 182.731L269.97 182.525L269.286 182.319C269.012 182.251 268.739 181.976 268.67 181.702L268.397 180.879Z" fill="#005FAA"/>
<path d="M264.361 129.502L264.155 130.257C264.087 130.6 263.813 130.874 263.471 130.943L262.719 131.149L263.471 131.423C263.745 131.492 264.019 131.766 264.087 132.04L264.361 132.795L264.634 132.04C264.771 131.766 264.976 131.492 265.25 131.423L265.934 131.217L265.25 131.011C264.976 130.943 264.703 130.669 264.634 130.394L264.361 129.502Z" fill="#005FAA"/>
<path d="M152.168 75.5202L151.21 78.4697C150.799 79.773 149.773 80.8018 148.473 81.2134L145.463 82.1051L148.473 83.134C149.705 83.5456 150.663 84.5059 151.073 85.7405L152.099 88.7586L153.262 85.6033C153.673 84.3687 154.699 83.477 155.862 83.0654L158.735 82.1051L155.93 81.1448C154.767 80.7333 153.809 79.8415 153.331 78.6755L152.168 75.5202Z" fill="#005FAA"/>
<path d="M248.558 150.972L247.6 153.922C247.19 155.225 246.164 156.254 244.864 156.665L241.854 157.626L244.864 158.655C246.095 159.066 247.053 160.027 247.464 161.261L248.49 164.279L249.653 161.124C250.132 159.889 251.089 158.998 252.252 158.586L255.126 157.626L252.321 156.665C251.158 156.254 250.2 155.362 249.721 154.196L248.558 150.972Z" fill="#005FAA"/>
<path d="M98.8756 71.4734L98.4652 72.7081C98.3283 73.2568 97.8495 73.6684 97.3022 73.8741L96.0708 74.2857L97.3022 74.6973C97.7811 74.903 98.1915 75.246 98.3968 75.7947L98.8072 77.0294L99.2861 75.7262C99.4913 75.246 99.8334 74.8344 100.381 74.6973L101.544 74.2857L100.381 73.8741C99.9018 73.737 99.4913 73.3254 99.2861 72.8452L98.8756 71.4734Z" fill="#005FAA"/>
<path d="M235.56 173.814L235.149 175.048C235.012 175.597 234.534 176.009 233.986 176.214L232.755 176.626L233.986 177.038C234.465 177.175 234.876 177.586 235.081 178.135L235.491 179.37L235.97 178.066C236.175 177.586 236.586 177.175 237.065 177.038L238.228 176.626L237.065 176.214C236.586 176.077 236.175 175.666 236.039 175.186L235.56 173.814Z" fill="#005FAA"/>
<path d="M336.122 325.953C336.122 326.022 265.318 326.159 178.026 326.159C90.7344 326.159 19.9297 326.091 19.9297 325.953C19.9297 325.816 90.7344 325.748 178.026 325.748C265.318 325.748 336.122 325.885 336.122 325.953Z" fill="#263238"/>
<path d="M103.528 161.879C109.959 158.518 115.158 153.236 118.373 146.72L133.15 142.33L121.657 135.539C123.846 116.814 110.506 99.8026 91.8298 97.6076C73.1537 95.4126 56.188 108.788 53.9988 127.514C51.8097 146.24 65.1497 163.251 83.8258 165.446C90.5984 166.269 97.4394 165.034 103.528 161.879Z" fill="white"/>
<path d="M103.527 161.879C103.527 161.879 103.322 161.947 102.98 162.153L101.406 162.908C101.064 163.045 100.654 163.251 100.243 163.456L98.7383 163.937C98.191 164.142 97.6437 164.348 97.0281 164.554L94.9757 165.034C91.4868 165.789 87.9295 166.063 84.3721 165.651C83.8248 165.583 83.346 165.514 82.7987 165.446L81.1568 165.171C80.6096 165.103 80.0623 164.965 79.515 164.76L77.8047 164.348C76.6418 164.005 75.5472 163.525 74.3842 163.113L72.674 162.29C72.0583 162.016 71.511 161.742 70.9637 161.399C69.8007 160.713 68.6377 160.027 67.6116 159.204L65.9697 157.969L64.3963 156.529L63.5754 155.774C63.3017 155.5 63.0965 155.225 62.8229 154.951L61.3178 153.305C60.839 152.756 60.4285 152.07 59.9496 151.521L59.2655 150.561C59.0603 150.287 58.8551 149.875 58.6498 149.601L57.4868 147.543C57.1448 146.857 56.8027 146.102 56.4607 145.416C56.3239 145.074 56.1186 144.662 55.9818 144.319C55.845 143.976 55.7082 143.564 55.5714 143.153C55.2977 142.398 55.0241 141.644 54.8188 140.821C53.9295 137.528 53.519 134.167 53.519 130.738C53.6559 127.171 54.2716 123.673 55.4345 120.243C55.7766 119.42 56.0502 118.528 56.3923 117.705C56.7343 116.882 57.2132 116.059 57.6237 115.236C58.0341 114.413 58.5814 113.658 59.0603 112.835C59.1971 112.629 59.2655 112.423 59.4023 112.218L59.8128 111.669L60.6337 110.503C65.4225 104.261 72.2635 99.8709 79.9255 98.0874L81.02 97.8131L81.5673 97.6759L82.1146 97.6073L84.3721 97.3329L84.9194 97.2643H85.4667H86.6297C87.3822 97.1957 88.1347 97.1957 88.8872 97.2643L91.1448 97.4015C91.8973 97.4701 92.6498 97.6073 93.3339 97.7445C94.7705 98.0189 96.2071 98.2932 97.6437 98.7048C105.785 101.106 112.762 106.593 117.004 113.932L118.03 115.647C118.304 116.265 118.646 116.813 118.851 117.431C119.398 118.597 119.809 119.831 120.219 121.066C121.724 125.73 122.203 130.669 121.587 135.539L121.519 135.402L133.012 142.193L133.286 142.33L133.012 142.398L118.235 146.788L118.304 146.72C115.909 151.521 112.489 155.637 108.179 158.861C107.016 159.684 105.853 160.438 104.622 161.193L103.664 161.673L103.527 161.879L103.801 161.742L104.758 161.193C105.99 160.507 107.153 159.684 108.247 158.861C112.489 155.637 115.909 151.521 118.235 146.72V146.651H118.304L133.08 142.261V142.536L121.587 135.745L121.519 135.676V135.608C122.066 130.806 121.656 125.868 120.151 121.272C119.74 120.037 119.33 118.871 118.783 117.705C118.509 117.088 118.235 116.539 117.962 115.922L117.004 114.207C115.636 111.875 113.994 109.748 112.147 107.828C108.179 103.781 103.253 100.831 97.849 99.1849C96.4808 98.7734 95.0441 98.4304 93.6075 98.2246C92.855 98.156 92.1709 97.9503 91.4184 97.8817L89.2293 97.7445C88.4767 97.6759 87.7242 97.6759 87.0401 97.7445H85.9456H85.3983L84.851 97.8131L82.5935 98.0874L82.0462 98.156L81.4989 98.2932L80.4043 98.5676C72.8108 100.351 66.0381 104.672 61.3178 110.846L60.4969 111.943L60.0864 112.492C59.9496 112.698 59.8128 112.903 59.7444 113.109C59.2655 113.932 58.7866 114.687 58.3078 115.51C57.8289 116.333 57.4868 117.156 57.0764 117.979C56.6659 118.802 56.3923 119.694 56.1186 120.517C54.9557 123.878 54.34 127.377 54.2031 130.875C54.1347 134.236 54.6136 137.597 55.4345 140.821C55.7082 141.575 55.9818 142.33 56.187 143.153C56.3239 143.564 56.4607 143.907 56.5975 144.25L57.0764 145.348C57.4184 146.034 57.6921 146.788 58.0341 147.474C58.3762 148.16 58.8551 148.778 59.1971 149.463C59.4023 149.806 59.5392 150.149 59.8128 150.424L60.4969 151.315C60.9758 151.933 61.3862 152.55 61.7967 153.099L63.2333 154.745C63.507 155.019 63.7122 155.294 63.9858 155.568L64.8068 156.323L66.3118 157.763L67.9536 158.998C69.0482 159.821 70.1428 160.507 71.3057 161.193C71.853 161.536 72.4003 161.81 73.016 162.085L74.7263 162.908C75.8892 163.319 76.9838 163.799 78.1468 164.142L79.7886 164.554C80.3359 164.691 80.8832 164.828 81.4305 164.965L83.0039 165.24C83.5512 165.377 84.0301 165.446 84.5774 165.446C88.1347 165.857 91.692 165.651 95.1126 164.897L97.0965 164.417C97.7122 164.211 98.2594 164.005 98.8067 163.868L100.312 163.388C100.722 163.251 101.133 163.045 101.475 162.839L103.048 162.153L103.527 161.879Z" fill="#263238"/>
<path d="M88.4764 157.832C102.834 157.832 114.472 146.162 114.472 131.766C114.472 117.371 102.834 105.701 88.4764 105.701C74.1193 105.701 62.4805 117.371 62.4805 131.766C62.4805 146.162 74.1193 157.832 88.4764 157.832Z" fill="#22CDB1"/>
<path d="M80.8835 145.554C81.294 146.034 81.9097 146.309 82.5938 146.309C83.2779 146.309 83.8936 145.966 84.304 145.417L101.407 123.124C102.159 122.164 101.954 120.723 100.996 119.969C100.038 119.214 98.6018 119.42 97.8493 120.38L82.3885 140.478L74.4529 131.15C73.7688 130.121 72.4006 129.846 71.3745 130.464C70.3483 131.15 70.0747 132.521 70.6903 133.55C70.8272 133.687 70.964 133.893 71.1008 134.03L80.8835 145.554Z" fill="white"/>
</svg>
