<svg width="546" height="500" viewBox="0 0 546 500" fill="none" xmlns="http://www.w3.org/2000/svg">
<path d="M363 437.305C363 437.305 362.712 437.305 362.152 437.355L359.677 437.455L350.142 437.765L315.099 438.764L290.88 439.404C282.175 439.614 272.878 439.894 263.083 439.984C253.305 439.884 242.99 440.214 232.392 437.855C229.712 437.265 227.066 436.279 224.479 434.907L222.552 433.737L221.591 433.158C221.269 432.978 220.935 432.858 220.607 432.708C220.28 432.558 219.952 432.398 219.618 432.278L218.612 431.979C217.94 431.778 217.263 431.638 216.583 431.559C215.905 431.449 215.215 431.459 214.531 431.429C213.848 431.399 213.152 431.429 212.468 431.599C211.09 431.785 209.72 432.145 208.371 432.678C207.008 433.19 205.67 433.888 204.369 434.767C203.713 435.207 203.03 435.536 202.357 435.926C201.684 436.316 201.017 436.716 200.328 437.015C194.885 439.354 189.284 440.327 183.688 439.904C178.177 439.644 172.78 438.525 167.495 437.375C162.21 436.226 157.01 435.067 151.901 434.527C149.346 434.247 146.814 434.167 144.31 434.227C141.806 434.287 139.342 434.637 136.906 435.017C132.034 435.796 127.297 436.866 122.663 437.485C118.028 438.105 113.529 438.295 109.171 438.365C104.814 438.435 100.614 438.365 96.5728 438.315L84.9352 438.305L49.8585 437.915L40.3291 437.785L37.8478 437.735H37C37 437.735 37.2883 437.735 37.8478 437.735H40.3291H49.8641L84.9352 437.955L96.5559 438.035C100.597 438.035 104.802 438.125 109.154 438.035C113.506 437.945 118.005 437.755 122.629 437.135C127.252 436.516 131.983 435.436 136.861 434.647C139.302 434.267 141.778 433.947 144.288 433.847C146.797 433.747 149.341 433.847 151.901 434.147C157.027 434.677 162.222 435.836 167.512 436.985C172.802 438.135 178.183 439.234 183.677 439.504C189.246 439.918 194.82 438.949 200.237 436.626C200.916 436.326 201.577 435.896 202.25 435.536C202.922 435.177 203.589 434.837 204.245 434.387C205.561 433.503 206.914 432.798 208.292 432.278C209.654 431.742 211.037 431.378 212.429 431.189C213.124 431.049 213.819 431.069 214.509 431.019C215.198 430.969 215.899 431.019 216.589 431.149C217.278 431.279 217.968 431.339 218.641 431.579L219.664 431.889C219.997 432.008 220.331 432.168 220.664 432.318C220.997 432.468 221.331 432.598 221.659 432.778L222.631 433.368L224.553 434.527C227.118 435.891 229.745 436.871 232.403 437.455C242.967 439.814 253.276 439.454 263.055 439.614C272.838 439.534 282.147 439.274 290.851 439.084L315.065 438.505L350.136 437.645L359.671 437.425H362.152L363 437.305Z" fill="#263238"/>
<path d="M223.6 390.54C224.2 391.61 228.86 411.46 232.15 425.64C233.086 429.672 235.36 433.267 238.602 435.841C241.843 438.414 245.861 439.813 250 439.81H281.12C285.316 439.801 289.382 438.351 292.637 435.702C295.892 433.053 298.138 429.367 299 425.26L306.31 390.54H223.6Z" fill="#FBE2C1"/>
<path d="M223.6 390.54C223.6 390.54 243.6 401.48 268.43 400.07C293.26 398.66 306.34 390.54 306.34 390.54H223.6Z" fill="#005FAA"/>
<path d="M278.34 399.63C278.34 399.63 278.47 399.75 278.61 400.02C278.81 400.426 278.968 400.852 279.08 401.29C279.531 402.919 279.606 404.628 279.3 406.29C278.879 408.782 277.711 411.087 275.95 412.9C273.715 415.105 270.7 416.338 267.56 416.33C264.427 416.368 261.394 415.229 259.06 413.14C257.265 411.389 255.949 409.206 255.24 406.8C254.736 405.23 254.401 403.611 254.24 401.97C254.126 401.372 254.126 400.758 254.24 400.16C254.483 400.712 254.635 401.3 254.69 401.9C255.01 403.464 255.448 405.002 256 406.5C256.771 408.706 258.065 410.692 259.77 412.29C261.921 414.14 264.674 415.14 267.51 415.1C270.344 415.114 273.075 414.041 275.14 412.1C276.791 410.458 277.934 408.375 278.43 406.1C278.779 404.557 278.833 402.963 278.59 401.4C278.5 400.84 278.41 400.4 278.34 400.11C278.27 399.82 278.3 399.64 278.34 399.63Z" fill="#263238"/>
<path d="M219.88 276.69C219.88 276.69 192 355.46 157.79 375.93C157.79 375.93 196.79 395.93 219.88 375.93C240.14 358.34 273.23 296.87 278.2 276.69H219.88Z" fill="#FBE2C1"/>
<path d="M84.5498 367.54L149.8 370.82C149.8 370.82 171.74 383.62 197.67 384.68L137.1 384.75C124.195 385.339 111.297 383.455 99.0998 379.2C92.9998 377.05 88.7698 371 84.5498 367.54Z" fill="#FAD5A3"/>
<path d="M124.59 436.9C124.23 436.66 146.96 401.28 175.35 357.9C203.74 314.52 227.06 279.5 227.43 279.74C227.8 279.98 205.06 315.35 176.66 358.74C148.26 402.13 125 437.13 124.59 436.9Z" fill="#005FAA"/>
<path d="M156.37 433.87C156.08 434.19 140.42 420.2 121.37 402.64C102.32 385.08 87.1497 370.57 87.4497 370.25C87.7497 369.93 103.4 383.92 122.45 401.49C141.5 419.06 156.66 433.55 156.37 433.87Z" fill="#005FAA"/>
<path d="M185.47 431.16C185.1 430.93 205.86 396.56 231.83 354.39C257.8 312.22 279.16 278.21 279.52 278.39C279.88 278.57 259.14 312.99 233.16 355.17C207.18 397.35 185.84 431.38 185.47 431.16Z" fill="#005FAA"/>
<path d="M216.17 435.05C215.86 435.35 200.38 420.2 181.61 401.2C162.84 382.2 147.85 366.55 148.15 366.25C148.45 365.95 163.93 381.1 182.72 400.1C201.51 419.1 216.47 434.75 216.17 435.05Z" fill="#005FAA"/>
<path d="M196.28 415.37C196.28 415.8 183.1 416.49 166.82 416.91C150.54 417.33 137.32 417.32 137.31 416.91C137.3 416.5 150.49 415.79 166.78 415.37C183.07 414.95 196.27 414.94 196.28 415.37Z" fill="#005FAA"/>
<path d="M245.71 250.61C247.787 248.438 250.458 246.925 253.39 246.26C256.33 245.76 259.67 246.77 261.28 249.26C262.63 251.35 262.63 254.15 264.19 256.09C265.29 257.48 267 258.21 268.46 259.22C269.649 259.999 270.653 261.029 271.399 262.239C272.146 263.449 272.617 264.808 272.78 266.22C272.897 267.639 272.562 269.059 271.822 270.276C271.081 271.492 269.974 272.443 268.66 272.99L255.45 270.85L242.08 260.67L245.71 250.61Z" fill="#4C1E08"/>
<path d="M273 254.83C273.023 254.63 273.107 254.442 273.24 254.29C273.425 254.071 273.656 253.897 273.918 253.779C274.179 253.661 274.463 253.604 274.75 253.61C275.167 253.601 275.579 253.709 275.94 253.92C276.37 254.189 276.717 254.574 276.94 255.03C277.426 256.132 277.465 257.38 277.05 258.51C276.579 259.882 275.655 261.053 274.43 261.83C273.73 262.284 272.941 262.581 272.115 262.7C271.29 262.819 270.449 262.758 269.65 262.52C268.768 262.263 267.954 261.816 267.263 261.212C266.572 260.607 266.022 259.859 265.65 259.02C264.87 257.23 265.08 255.2 265.23 253.29C265.543 251.456 265.349 249.572 264.67 247.84C263.92 246.287 262.674 245.027 261.13 244.26C259.722 243.568 258.151 243.281 256.59 243.43C255.227 243.547 253.901 243.934 252.69 244.57C250.92 245.531 249.408 246.903 248.28 248.57C247.47 249.73 247.14 250.45 247.1 250.43C247.142 250.24 247.213 250.058 247.31 249.89C247.549 249.393 247.819 248.912 248.12 248.45C249.218 246.719 250.73 245.289 252.52 244.29C253.755 243.61 255.116 243.188 256.52 243.05C258.159 242.878 259.814 243.165 261.3 243.88C262.952 244.683 264.287 246.017 265.09 247.67C265.816 249.481 266.03 251.456 265.71 253.38C265.55 255.31 265.37 257.24 266.08 258.87C266.422 259.647 266.931 260.34 267.571 260.9C268.21 261.46 268.964 261.873 269.78 262.11C270.514 262.335 271.288 262.398 272.049 262.296C272.81 262.194 273.54 261.93 274.19 261.52C275.345 260.803 276.225 259.718 276.69 258.44C277.102 257.399 277.102 256.241 276.69 255.2C276.505 254.797 276.215 254.451 275.85 254.2C275.531 254.003 275.164 253.896 274.79 253.89C274.527 253.874 274.263 253.914 274.017 254.007C273.77 254.1 273.546 254.244 273.36 254.43C273.229 254.554 273.109 254.688 273 254.83Z" fill="#263238"/>
<path d="M170.14 373C164.51 374 137.3 363.71 117.71 361.11C113.13 360.5 105.54 365.45 103.92 365.34C96.2898 364.81 93.0498 347.34 102.31 341.07C112.31 334.32 172.31 346.81 172.31 346.81C172.31 346.81 182.18 350.87 181.24 361.63C180.27 373.18 170.14 373 170.14 373Z" fill="#EB996E"/>
<path d="M97.8097 346.5L76.6997 428C76.6997 428 91.2397 431.8 91.6997 432.64C92.0197 433.27 119.96 354.92 119.37 356.59L97.8097 346.5Z" fill="#EB996E"/>
<path d="M78.0496 426.19C78.0496 426.19 63.4796 423.09 66.0496 425.45C68.6196 427.81 90.4796 436.36 90.4796 436.36L91.6796 432.22L78.0496 426.19Z" fill="#EB996E"/>
<path d="M244 288.84C241.74 284.84 232.07 282.33 232.07 282.33L216.36 277.91L211.36 277.37C207.78 276.58 199.25 276.65 190.85 291.18C174.97 318.64 146.4 287.56 146.4 287.56C145.581 286.045 144.911 284.454 144.4 282.81C144.132 281.994 144.007 281.138 144.03 280.28C144.012 279.214 144.143 278.15 144.42 277.12C144.77 276.2 143.82 275.33 143.07 275.82C142.32 276.31 141.3 278.82 141.52 281.96C141.74 285.1 138.34 281.48 137.08 280.18C135.82 278.88 131.69 275 131 275.1C130 275.21 129.88 276.34 131.17 277.61C132.46 278.88 136.06 282.97 135.34 283.61C134.62 284.25 128.34 277.52 128.34 277.52C128.34 277.52 127.22 275.86 126.34 276.52C124.8 277.79 132.05 284.44 132.76 285.05C133.25 285.48 132.49 286.2 131.99 285.71C131.49 285.22 125.83 278.86 124.25 280.14C123.03 281.14 130.16 285.66 130.6 287.63C131.04 289.6 125.54 283.63 124.42 284.63C124 285 123.74 285.33 127.42 288.29C130.09 290.284 132.867 292.13 135.74 293.82C138.95 300.21 150.39 318.82 175.01 318.62C188.21 318.54 197.21 310.5 203.13 301.62L224.66 306.81L234.72 312.3C234.72 312.3 246.26 292.85 244 288.84Z" fill="#FFBE9D"/>
<path d="M229.41 279.58L260.18 282.33L236.36 267.12C236.36 267.12 240.53 259.27 241.96 257.07C242.25 256.61 281.64 279.07 285.44 282.33C289.05 285.43 287.5 297.11 277.19 297.46C266.88 297.81 239.19 297.46 239.19 297.46L229.41 279.58Z" fill="#FFBE9D"/>
<path d="M216.66 281.82C217.5 280.31 220.27 269.73 220.27 269.73C220.27 269.73 214.35 266.94 216.1 260.73C217.85 254.52 223.1 240.58 223.1 240.58L236.2 239L243.9 252.12L232.79 282.45L216.66 281.82Z" fill="#FFBE9D"/>
<path d="M220.77 251.23C220.716 251.385 220.709 251.552 220.75 251.711C220.791 251.87 220.879 252.013 221.001 252.122C221.123 252.231 221.275 252.302 221.438 252.325C221.6 252.347 221.766 252.322 221.913 252.251C222.061 252.18 222.185 252.066 222.268 251.925C222.352 251.784 222.391 251.621 222.382 251.457C222.373 251.294 222.316 251.136 222.218 251.005C222.119 250.874 221.984 250.775 221.83 250.72C221.727 250.684 221.617 250.668 221.508 250.674C221.399 250.68 221.292 250.707 221.194 250.755C221.095 250.802 221.007 250.869 220.934 250.95C220.862 251.032 220.806 251.127 220.77 251.23Z" fill="#263238"/>
<path d="M220.31 250.12C220.38 250.25 221.13 249.96 221.98 250.21C222.83 250.46 223.33 251.08 223.45 251C223.57 250.92 223.45 250.74 223.27 250.46C222.983 250.086 222.583 249.816 222.13 249.69C221.679 249.563 221.198 249.584 220.76 249.75C220.43 249.89 220.28 250.06 220.31 250.12Z" fill="#263238"/>
<path d="M229.81 254.38C229.756 254.535 229.749 254.702 229.79 254.861C229.831 255.02 229.919 255.163 230.041 255.272C230.163 255.381 230.315 255.452 230.478 255.475C230.64 255.498 230.806 255.472 230.954 255.401C231.101 255.33 231.225 255.216 231.308 255.075C231.392 254.934 231.431 254.771 231.422 254.607C231.413 254.444 231.356 254.286 231.258 254.155C231.159 254.024 231.024 253.925 230.87 253.87C230.661 253.799 230.434 253.813 230.236 253.909C230.037 254.004 229.885 254.173 229.81 254.38Z" fill="#263238"/>
<path d="M229.63 253.36C229.69 253.5 230.44 253.21 231.29 253.45C232.14 253.69 232.64 254.32 232.77 254.24C232.9 254.16 232.77 253.99 232.58 253.7C232.289 253.333 231.89 253.067 231.44 252.94C230.989 252.808 230.507 252.829 230.07 253C229.74 253.13 229.59 253.3 229.63 253.36Z" fill="#263238"/>
<path d="M224.12 259.4C223.629 259.363 223.149 259.242 222.7 259.04C222.571 259 222.447 258.946 222.33 258.88C222.248 258.829 222.18 258.758 222.131 258.674C222.082 258.591 222.054 258.497 222.05 258.4C222.073 258.064 222.211 257.747 222.44 257.5L223.6 255.94C224.535 254.559 225.61 253.279 226.81 252.12C226.025 253.595 225.086 254.982 224.01 256.26L222.83 257.79C222.661 257.951 222.54 258.155 222.48 258.38C222.48 258.5 222.61 258.6 222.83 258.69C223.65 259.07 224.15 259.33 224.12 259.4Z" fill="#263238"/>
<path d="M228.81 258.15C228.59 258.85 229.49 259.72 230.81 260.2C232.13 260.68 233.34 260.6 233.62 259.92C233.9 259.24 233.07 258.2 231.72 257.7C230.37 257.2 229 257.45 228.81 258.15Z" fill="#EB996E"/>
<path d="M226.75 261.16C226.83 261.11 223.75 261.74 222.07 261.16C222.227 261.694 222.561 262.159 223.017 262.479C223.473 262.798 224.024 262.954 224.58 262.92C225.1 262.968 225.618 262.811 226.023 262.482C226.429 262.153 226.689 261.679 226.75 261.16Z" fill="white"/>
<path d="M220.27 269.73C223.201 270.608 226.323 270.636 229.27 269.81C229.27 269.81 225.88 273.65 219.85 271.27L220.27 269.73Z" fill="#EB996E"/>
<path d="M233.7 253.14C233.84 253.14 233.77 253.67 233.28 253.9C232.79 254.13 232.36 253.9 232.42 253.76C232.48 253.62 232.76 253.59 233.05 253.43C233.34 253.27 233.57 253.09 233.7 253.14Z" fill="#263238"/>
<path d="M240.62 245C236.86 248.06 229.18 249.87 224.37 249.24C225.18 248.63 228.63 247.63 229.44 247.02C226.78 248.02 223.04 249.39 220.3 248.61C219.962 248.552 219.655 248.379 219.43 248.12C219.33 247.914 219.273 247.689 219.265 247.46C219.256 247.231 219.295 247.003 219.38 246.79C220.045 244.49 220.922 242.257 222 240.12C222.852 238.355 224.29 236.941 226.07 236.12C228.34 235.19 230.95 235.67 233.29 236.41C235.294 236.946 237.148 237.934 238.71 239.3C239.484 239.988 240.073 240.86 240.423 241.835C240.772 242.81 240.871 243.857 240.71 244.88" fill="#4C1E08"/>
<path d="M237.4 243.83C237.4 243.83 232.69 251.59 237.85 258.83C237.85 258.83 234.97 266.07 237.03 270.83C237.03 270.83 241.89 263.32 243.31 259.93C244.73 256.54 252.31 244.93 240.45 241.93L237.4 243.83Z" fill="#4C1E08"/>
<path d="M234.59 312.74C234.59 312.74 233.04 301.66 224.59 299.9C219.88 298.9 212.59 303.52 212.59 303.52L209.71 299.23C209.137 298.352 208.36 297.627 207.445 297.115C206.531 296.603 205.506 296.32 204.458 296.291C203.411 296.261 202.371 296.486 201.43 296.946C200.488 297.405 199.671 298.086 199.05 298.93C196.05 303.25 197.72 309 197.72 309L196.35 324.32L181.64 347.47C186.54 348.7 191.52 350.17 196.4 351.57L195 378.22C220.92 381.9 223.36 361.56 223.14 352.16L226 331.43L234.59 312.74Z" fill="#01ABFF"/>
<g opacity="0.2">
<path opacity="0.2" d="M213.14 328C207.731 327.07 202.387 325.797 197.14 324.19C199.858 324.571 202.55 325.122 205.2 325.84C207.89 326.389 210.542 327.111 213.14 328Z" fill="black"/>
</g>
<g opacity="0.4">
<path opacity="0.4" d="M234.59 312.39C234.481 312.496 234.34 312.563 234.19 312.58C233.974 312.6 233.757 312.573 233.553 312.5C233.35 312.428 233.164 312.312 233.01 312.16C232.559 311.675 232.218 311.099 232.01 310.47C231.859 310.119 231.63 309.808 231.34 309.56C231.007 309.295 230.61 309.122 230.19 309.06C229.183 308.965 228.167 309.05 227.19 309.31C225.961 309.563 224.683 309.364 223.59 308.75C222.453 308.058 221.375 307.272 220.37 306.4C219.361 305.473 218.066 304.919 216.7 304.83C215.331 305.015 214.019 305.5 212.86 306.25C211.68 306.945 210.328 307.292 208.96 307.25C207.715 307.193 206.511 306.784 205.49 306.07C204.664 305.415 203.901 304.685 203.21 303.89C202.648 303.264 201.968 302.754 201.21 302.39C200.637 302.127 200.008 302.01 199.38 302.05C198.841 302.12 198.332 302.338 197.91 302.68C197.981 302.55 198.08 302.437 198.2 302.35C198.53 302.081 198.928 301.908 199.35 301.85C200.028 301.763 200.718 301.856 201.35 302.12C202.158 302.473 202.886 302.987 203.49 303.63C204.184 304.391 204.944 305.091 205.76 305.72C206.726 306.347 207.848 306.694 209 306.72C210.286 306.732 211.55 306.386 212.65 305.72C213.871 304.918 215.26 304.408 216.71 304.23C218.196 304.315 219.609 304.908 220.71 305.91C221.69 306.771 222.737 307.553 223.84 308.25C224.844 308.828 226.023 309.023 227.16 308.8C228.193 308.546 229.264 308.481 230.32 308.61C230.799 308.697 231.247 308.907 231.62 309.22C231.932 309.514 232.178 309.873 232.34 310.27C232.52 310.878 232.823 311.443 233.23 311.93C233.357 312.07 233.511 312.183 233.683 312.262C233.855 312.341 234.041 312.384 234.23 312.39C234.45 312.46 234.58 312.36 234.59 312.39Z" fill="white"/>
</g>
<g opacity="0.4">
<path opacity="0.4" d="M231.15 320.47C230.964 319.994 230.736 319.536 230.47 319.1C230.08 318.536 229.579 318.057 228.998 317.693C228.417 317.328 227.768 317.086 227.09 316.98C226.159 316.856 225.212 317.023 224.38 317.46C223.416 318.021 222.414 318.512 221.38 318.93C220.131 319.296 218.796 319.229 217.59 318.74C216.953 318.487 216.367 318.121 215.86 317.66C215.376 317.176 214.931 316.654 214.53 316.1C214.15 315.568 213.703 315.088 213.2 314.67C212.717 314.291 212.146 314.04 211.54 313.94C210.348 313.804 209.141 313.941 208.01 314.34C206.949 314.711 205.863 315.005 204.76 315.22C203.753 315.399 202.716 315.303 201.76 314.94C200.978 314.614 200.337 314.023 199.95 313.27C199.7 312.733 199.335 312.258 198.88 311.88C198.594 311.662 198.239 311.555 197.88 311.58C197.63 311.58 197.52 311.7 197.5 311.68C197.48 311.66 197.59 311.55 197.86 311.48C198.059 311.44 198.264 311.44 198.463 311.479C198.662 311.519 198.851 311.597 199.02 311.71C200.02 312.21 200.23 314.02 201.92 314.6C202.81 314.908 203.765 314.976 204.69 314.8C205.769 314.565 206.832 314.258 207.87 313.88C209.073 313.446 210.359 313.295 211.63 313.44C212.319 313.55 212.969 313.832 213.52 314.26C214.056 314.704 214.533 315.215 214.94 315.78C215.323 316.312 215.748 316.814 216.21 317.28C216.876 317.883 217.683 318.308 218.557 318.516C219.431 318.724 220.344 318.708 221.21 318.47C222.241 318.074 223.244 317.606 224.21 317.07C225.12 316.61 226.154 316.453 227.16 316.62C227.877 316.744 228.559 317.02 229.16 317.429C229.762 317.838 230.27 318.37 230.65 318.99C230.854 319.325 231.005 319.689 231.1 320.07C231.131 320.201 231.147 320.335 231.15 320.47Z" fill="white"/>
</g>
<g opacity="0.4">
<path opacity="0.4" d="M227.39 329.23C227.038 328.934 226.63 328.713 226.19 328.58C224.947 328.369 223.669 328.569 222.55 329.15C221.723 329.516 220.841 329.743 219.94 329.82C218.855 329.842 217.795 329.488 216.94 328.82C215.12 327.52 214.04 325.27 212.2 323.75C211.775 323.368 211.279 323.073 210.74 322.883C210.201 322.692 209.63 322.61 209.06 322.64C207.975 322.785 206.917 323.088 205.92 323.54C204.969 323.963 203.956 324.23 202.92 324.33C201.997 324.366 201.081 324.152 200.27 323.71C199.151 323.047 198.164 322.182 197.36 321.16C197.038 320.815 196.759 320.432 196.53 320.02C196.888 320.327 197.223 320.662 197.53 321.02C198.368 321.965 199.358 322.762 200.46 323.38C201.216 323.768 202.061 323.948 202.91 323.9C203.895 323.774 204.856 323.501 205.76 323.09C206.797 322.595 207.903 322.258 209.04 322.09C210.32 322.018 211.577 322.452 212.54 323.3C213.456 324.107 214.281 325.013 215 326C215.648 326.887 216.408 327.686 217.26 328.38C218.007 329.006 218.945 329.359 219.92 329.38C220.779 329.314 221.622 329.115 222.42 328.79C223.106 328.513 223.826 328.325 224.56 328.23C225.123 328.157 225.696 328.205 226.24 328.37C226.585 328.48 226.9 328.668 227.16 328.92C227.34 329.1 227.4 329.22 227.39 329.23Z" fill="white"/>
</g>
<g opacity="0.4">
<path opacity="0.4" d="M224.87 342.68C224.741 342.706 224.609 342.706 224.48 342.68C224.101 342.66 223.728 342.572 223.38 342.42C222.148 341.776 221.112 340.812 220.38 339.63C219.861 338.868 219.25 338.172 218.56 337.56C217.746 336.916 216.763 336.52 215.73 336.42C213.51 336.11 211.12 336.96 208.51 337.42C207.224 337.69 205.896 337.69 204.61 337.42C203.374 337.168 202.27 336.479 201.5 335.48C200.906 334.561 200.404 333.587 200 332.57C199.652 331.725 199.127 330.964 198.46 330.34C197.463 329.454 196.192 328.938 194.86 328.88C193.91 328.83 193.39 329.01 193.38 328.95C193.37 328.89 193.5 328.89 193.75 328.81C194.114 328.727 194.486 328.68 194.86 328.67C196.267 328.668 197.629 329.16 198.71 330.06C199.429 330.709 200.002 331.503 200.39 332.39C200.803 333.368 201.305 334.305 201.89 335.19C202.594 336.091 203.598 336.709 204.72 336.93C205.941 337.175 207.199 337.175 208.42 336.93C209.7 336.7 210.93 336.36 212.16 336.12C213.352 335.864 214.578 335.8 215.79 335.93C216.893 336.062 217.935 336.51 218.79 337.22C219.489 337.87 220.107 338.602 220.63 339.4C221.301 340.561 222.258 341.532 223.41 342.22C223.871 342.445 224.363 342.6 224.87 342.68Z" fill="white"/>
</g>
<g opacity="0.4">
<path opacity="0.4" d="M223.72 349.36C223.261 349.109 222.783 348.895 222.29 348.72C220.915 348.364 219.483 348.293 218.08 348.51C217.18 348.61 216.19 348.78 215.08 348.87C213.916 349.007 212.737 348.933 211.6 348.65C210.355 348.252 209.233 347.543 208.34 346.59C207.34 345.66 206.54 344.59 205.54 343.67C204.6 342.751 203.417 342.119 202.13 341.85C200.912 341.631 199.669 341.591 198.44 341.73C196.318 342.087 194.156 342.141 192.02 341.89C190.552 341.632 189.229 340.846 188.3 339.68C188.061 339.362 187.875 339.007 187.75 338.63C187.7 338.498 187.67 338.36 187.66 338.22C187.881 338.689 188.149 339.135 188.46 339.55C189.397 340.623 190.682 341.331 192.09 341.55C193.85 341.89 195.99 341.55 198.4 341.28C199.675 341.13 200.964 341.163 202.23 341.38C203.61 341.664 204.88 342.338 205.89 343.32C206.89 344.32 207.78 345.32 208.7 346.26C209.514 347.17 210.546 347.859 211.7 348.26C212.776 348.539 213.894 348.624 215 348.51C216.06 348.44 217.05 348.29 218 348.22C219.45 348.023 220.926 348.153 222.32 348.6C222.69 348.742 223.042 348.926 223.37 349.15C223.63 349.25 223.74 349.34 223.72 349.36Z" fill="white"/>
</g>
<g opacity="0.2">
<path opacity="0.2" d="M222.64 359.56C222.64 359.56 222.64 359.69 222.56 359.85C222.4 360.068 222.164 360.217 221.9 360.27C221.513 360.344 221.113 360.302 220.75 360.15C220.377 359.974 219.993 359.824 219.6 359.7C219.253 359.627 218.894 359.631 218.549 359.71C218.204 359.79 217.88 359.943 217.6 360.16C217.14 360.49 216.94 360.8 216.87 360.76C216.8 360.72 216.87 360.34 217.36 359.88C217.663 359.575 218.038 359.352 218.451 359.232C218.864 359.111 219.3 359.097 219.72 359.19C220.143 359.321 220.552 359.495 220.94 359.71C221.217 359.855 221.527 359.923 221.84 359.91C222.37 359.87 222.57 359.52 222.64 359.56Z" fill="white"/>
</g>
<g opacity="0.2">
<path opacity="0.2" d="M215.16 310.12C215.081 312.016 215.753 313.866 217.03 315.27C217.678 316.035 218.539 316.59 219.503 316.866C220.467 317.142 221.491 317.125 222.445 316.819C223.4 316.513 224.242 315.931 224.866 315.146C225.49 314.361 225.867 313.409 225.95 312.41C224.193 313.712 222.017 314.318 219.84 314.11C217.84 313.94 215.84 311.98 215.16 310.11" fill="black"/>
</g>
<path d="M226 312.41C225.626 312.953 225.111 313.382 224.51 313.65C223.094 314.417 221.448 314.644 219.877 314.289C218.307 313.934 216.918 313.021 215.97 311.72C215.541 311.216 215.261 310.604 215.16 309.95C215.24 309.95 215.52 310.61 216.26 311.49C217.213 312.65 218.526 313.46 219.991 313.792C221.456 314.123 222.99 313.957 224.35 313.32C225.35 312.84 225.89 312.34 226 312.41Z" fill="#263238"/>
<g opacity="0.2">
<path opacity="0.2" d="M207.92 350.57C212.68 351.7 216.27 352.85 218.68 356.07C221.68 360.02 221.99 364.24 220.86 366.4C219.61 368.78 218.52 372.7 212.22 376.19C216.71 373.19 218.15 366.19 217.07 361.39C216.468 359.01 215.33 356.798 213.745 354.923C212.159 353.048 210.167 351.559 207.92 350.57Z" fill="black"/>
</g>
<path d="M127.74 266.53L133.52 294.33L143.92 292.75L140.52 265.44L127.74 266.53Z" fill="#E0E0E0"/>
<path d="M134.42 291.75L142.11 290.66L140 271C139.97 270.738 139.856 270.493 139.676 270.3C139.496 270.107 139.259 269.978 139 269.93C136.93 269.59 132 268.93 131 269.75L130.45 270.27C130.289 270.417 130.17 270.603 130.103 270.81C130.037 271.017 130.025 271.237 130.07 271.45L134.42 291.75Z" fill="#01ABFF"/>
<g opacity="0.4">
<path opacity="0.4" d="M129.93 271.06C131.22 271.776 132.599 272.32 134.03 272.68C135.473 273.039 136.99 272.962 138.39 272.46C138.87 272.296 139.289 271.989 139.59 271.58C139.734 271.372 139.805 271.121 139.793 270.868C139.78 270.615 139.684 270.373 139.52 270.18C139.234 269.953 138.884 269.82 138.52 269.8L134.99 269.32C134 269.127 132.985 269.11 131.99 269.27C131.52 269.345 131.081 269.554 130.727 269.871C130.372 270.188 130.116 270.601 129.99 271.06" fill="white"/>
</g>
<g opacity="0.4">
<path opacity="0.4" d="M140.91 280.47C140.91 280.47 140.58 280.95 139.75 281.32C138.645 281.788 137.401 281.81 136.28 281.38C135.64 281.13 135.1 280.8 134.59 280.59C134.161 280.392 133.692 280.296 133.22 280.31C132.782 280.355 132.362 280.51 132 280.76C132 280.76 132 280.6 132.19 280.41C132.467 280.154 132.816 279.99 133.19 279.94C133.729 279.867 134.278 279.94 134.78 280.15C135.34 280.35 135.89 280.67 136.48 280.9C137.493 281.271 138.601 281.296 139.63 280.97C140.42 280.73 140.86 280.4 140.91 280.47Z" fill="white"/>
</g>
<g opacity="0.4">
<path opacity="0.4" d="M141.35 282.22C141.35 282.22 141.02 282.7 140.19 283.07C139.084 283.534 137.842 283.555 136.72 283.13C136.08 282.88 135.54 282.55 135.03 282.34C134.601 282.142 134.132 282.046 133.66 282.06C133.222 282.105 132.802 282.26 132.44 282.51C132.44 282.51 132.44 282.35 132.63 282.16C132.904 281.9 133.255 281.735 133.63 281.69C134.169 281.617 134.718 281.69 135.22 281.9C135.78 282.1 136.33 282.42 136.92 282.65C137.933 283.021 139.041 283.046 140.07 282.72C140.86 282.47 141.3 282.15 141.35 282.22Z" fill="white"/>
</g>
<path d="M136.24 271.53C136.18 271.29 134.24 259.99 134.24 259.99L140.65 256.35L141.65 258.15L136.47 260.93L137.83 271.71L136.24 271.53Z" fill="#005FAA"/>
<path d="M133.42 271.55C133.006 270.909 132.67 270.221 132.42 269.5C131.86 268.22 131.12 266.42 130.34 264.43C129.41 262.06 128.62 259.95 128.16 258.63L128.45 258.52C128.654 259.004 128.782 259.517 128.83 260.04C128.543 259.599 128.317 259.122 128.16 258.62L128.45 258.51C129.02 259.79 129.89 261.87 130.82 264.24C131.61 266.24 132.29 268.05 132.76 269.37C133.056 270.071 133.277 270.802 133.42 271.55Z" fill="#005FAA"/>
<path d="M119.44 265.72L124.97 254.32L137.76 257.15C137.76 257.15 132.51 257.7 132.76 261.83C132.76 261.83 127.63 259.75 125.91 264.38C125.88 264.38 123.11 261.74 119.44 265.72Z" fill="#FBE2C1"/>
<path d="M125.15 254.05C125.763 257.508 126.031 261.019 125.95 264.53C125.555 262.817 125.334 261.068 125.29 259.31C125.073 257.565 125.026 255.804 125.15 254.05Z" fill="#005FAA"/>
<path d="M133.05 261.91C131.449 260.996 129.988 259.858 128.71 258.53C127.317 257.324 126.102 255.926 125.1 254.38C125.22 254.29 126.88 256.09 129.1 258.16C131.32 260.23 133.14 261.79 133.05 261.91Z" fill="#005FAA"/>
<path d="M207.74 350.39C207.74 350.39 143.52 337.04 132.85 344.26C131.019 345.529 129.52 347.22 128.48 349.19L77.4798 422.96C77.4798 422.96 61.7198 416.82 64.1698 419.96C66.6198 423.1 89.6198 436.82 89.6198 436.82L92.5598 432.82C102.84 421.67 133.93 386.66 146.21 372.82C165.96 375.19 199.62 379.4 205.36 378.33C205.36 378.33 216.19 378.53 217.26 366.17C218.31 354.73 207.74 350.39 207.74 350.39Z" fill="#FFBE9D"/>
<circle cx="183.5" cy="180.5" r="26.5" fill="#FBE2C1"/>
<path d="M64 136.543H137.5C130.5 121.043 109 119.043 90 129.543C76 123.943 66.8333 131.876 64 136.543Z" fill="#FEF5E9"/>
<path d="M280 154H318C314.381 145.988 303.265 144.955 293.442 150.382C286.204 147.487 281.465 151.588 280 154Z" fill="#FEF5E9"/>
</svg>
